<svg xmlns="http://www.w3.org/2000/svg" xmlns:xlink="http://www.w3.org/1999/xlink" width="500" zoomAndPan="magnify" viewBox="0 0 375 374.999991" height="500" preserveAspectRatio="xMidYMid meet" version="1.0"><defs><g/><clipPath id="9c3864106f"><path d="M 80.675781 140 L 114 140 L 114 172 L 80.675781 172 Z M 80.675781 140 " clip-rule="nonzero"/></clipPath><clipPath id="513baf8b57"><path d="M 174 219 L 201 219 L 201 255.644531 L 174 255.644531 Z M 174 219 " clip-rule="nonzero"/></clipPath><clipPath id="70d982a7bf"><path d="M 261 140 L 294.863281 140 L 294.863281 172 L 261 172 Z M 261 140 " clip-rule="nonzero"/></clipPath><clipPath id="61c25fc840"><path d="M 135.929688 70.304688 L 232 70.304688 L 232 131 L 135.929688 131 Z M 135.929688 70.304688 " clip-rule="nonzero"/></clipPath><clipPath id="fa14db9baf"><path d="M 182 88 L 239.570312 88 L 239.570312 129 L 182 129 Z M 182 88 " clip-rule="nonzero"/></clipPath><clipPath id="722e1dcad8"><path d="M 139 123 L 229 123 L 229 170.488281 L 139 170.488281 Z M 139 123 " clip-rule="nonzero"/></clipPath><clipPath id="d5486dc784"><path d="M 174.050781 170.21875 L 200.539062 170.21875 L 200.539062 195.554688 L 174.050781 195.554688 Z M 174.050781 170.21875 " clip-rule="nonzero"/></clipPath></defs><path fill="#ffffff" d="M 228.839844 50.636719 L 146.15625 50.636719 C 146.15625 50.636719 143.160156 69.808594 120.992188 72.804688 L 120.992188 135.117188 C 120.992188 188.175781 187.5 218.734375 187.5 218.734375 C 187.5 218.734375 254.003906 188.175781 254.003906 135.117188 L 254.003906 72.804688 C 231.832031 69.808594 228.839844 50.636719 228.839844 50.636719 Z M 248.074219 135.117188 C 248.074219 178.21875 199.167969 206.078125 187.496094 212.113281 C 182.363281 209.460938 170.039062 202.605469 157.894531 192.136719 C 148.773438 184.273438 141.535156 175.941406 136.382812 167.371094 C 130.105469 156.929688 126.925781 146.078125 126.925781 135.113281 L 126.925781 77.671875 C 137.34375 74.945312 143.421875 68.882812 146.789062 63.933594 C 148.605469 61.265625 149.816406 58.683594 150.609375 56.566406 L 224.386719 56.566406 C 225.179688 58.683594 226.390625 61.269531 228.207031 63.933594 C 231.578125 68.882812 237.65625 74.945312 248.074219 77.671875 Z M 248.074219 135.117188 " fill-opacity="1" fill-rule="nonzero"/><path fill="#ffffff" d="M 160.773438 31.828125 L 214.222656 31.828125 C 214.222656 31.828125 221.511719 27.007812 223.625 16.148438 C 225.308594 7.484375 219.820312 0.0273438 219.820312 0.0273438 L 219.085938 6.5 L 221.933594 12.015625 C 221.933594 12.015625 220.507812 10.226562 218.550781 10.28125 C 218.550781 10.28125 218.710938 13.132812 220.824219 14.230469 C 220.824219 14.230469 217.445312 13.84375 216.597656 16.371094 C 215.753906 18.890625 218.023438 18.945312 218.023438 18.945312 C 218.023438 18.945312 216.703125 17.300781 218.128906 16.476562 C 219.558594 15.65625 220.300781 17.136719 219.085938 19.714844 C 217.867188 22.289062 215.59375 24.8125 213.800781 24.921875 C 212.777344 24.984375 212.253906 24.089844 211.988281 23.304688 C 212.835938 23.15625 213.484375 22.390625 213.484375 21.46875 C 213.484375 20.4375 212.679688 19.601562 211.6875 19.601562 C 210.695312 19.601562 209.890625 20.4375 209.890625 21.46875 C 209.890625 22.394531 210.542969 23.15625 211.390625 23.304688 C 211.050781 24.019531 210.394531 24.832031 209.152344 24.921875 C 206.882812 25.085938 205.5625 20.152344 205.878906 18.726562 C 206.195312 17.296875 208.203125 17.191406 208.308594 18.449219 C 208.308594 18.449219 209.046875 16.914062 207.726562 16.367188 C 206.964844 16.050781 206.359375 16.246094 205.984375 16.46875 C 206.597656 15.925781 207.691406 14.722656 207.992188 12.855469 C 207.992188 12.855469 205.984375 12.96875 204.925781 14.996094 L 206.089844 10.9375 L 203.765625 6.335938 L 201.441406 10.941406 L 202.601562 15 C 201.546875 12.96875 199.539062 12.859375 199.539062 12.859375 C 199.839844 14.722656 200.933594 15.925781 201.546875 16.472656 C 201.171875 16.25 200.566406 16.050781 199.804688 16.371094 C 198.484375 16.917969 199.222656 18.453125 199.222656 18.453125 C 199.328125 17.191406 201.335938 17.300781 201.652344 18.726562 C 201.96875 20.152344 200.648438 25.089844 198.378906 24.925781 C 197.125 24.832031 196.46875 24.007812 196.128906 23.289062 C 196.929688 23.101562 197.53125 22.359375 197.53125 21.46875 C 197.53125 20.441406 196.726562 19.605469 195.734375 19.605469 C 194.746094 19.605469 193.941406 20.441406 193.941406 21.46875 C 193.941406 22.375 194.558594 23.125 195.378906 23.296875 C 195 24.007812 194.3125 24.808594 193.09375 24.871094 C 190.878906 24.980469 188.710938 16.972656 189.714844 14.339844 C 190.71875 11.710938 193.792969 13.628906 192.625 15.710938 C 192.625 15.710938 194.097656 15.546875 194.203125 13.40625 C 194.296875 11.550781 192 10.398438 190.386719 11.203125 C 190.941406 10.722656 191.710938 9.886719 192.144531 8.691406 C 192.144531 8.691406 190.242188 8.253906 188.765625 10.0625 L 190.558594 5.183594 L 187.5 0.0273438 L 184.433594 5.183594 L 186.230469 10.0625 C 184.75 8.253906 182.847656 8.691406 182.847656 8.691406 C 183.285156 9.886719 184.050781 10.722656 184.605469 11.203125 C 182.996094 10.398438 180.695312 11.550781 180.789062 13.40625 C 180.894531 15.546875 182.367188 15.710938 182.367188 15.710938 C 181.199219 13.628906 184.277344 11.707031 185.277344 14.339844 C 186.28125 16.972656 184.117188 24.980469 181.898438 24.871094 C 180.683594 24.808594 179.992188 24.007812 179.613281 23.296875 C 180.433594 23.125 181.054688 22.375 181.054688 21.46875 C 181.054688 20.441406 180.25 19.605469 179.257812 19.605469 C 178.265625 19.605469 177.460938 20.441406 177.460938 21.46875 C 177.460938 22.359375 178.0625 23.101562 178.867188 23.289062 C 178.527344 24.007812 177.871094 24.832031 176.617188 24.925781 C 174.347656 25.089844 173.027344 20.152344 173.34375 18.726562 C 173.660156 17.300781 175.667969 17.191406 175.773438 18.453125 C 175.773438 18.453125 176.511719 16.917969 175.191406 16.371094 C 174.429688 16.050781 173.824219 16.25 173.449219 16.472656 C 174.0625 15.929688 175.15625 14.722656 175.457031 12.859375 C 175.457031 12.859375 173.449219 12.96875 172.390625 15 L 173.554688 10.941406 L 171.230469 6.335938 L 168.90625 10.941406 L 170.070312 15 C 169.011719 12.96875 167.003906 12.859375 167.003906 12.859375 C 167.304688 14.722656 168.398438 15.925781 169.011719 16.472656 C 168.636719 16.25 168.035156 16.050781 167.269531 16.371094 C 165.949219 16.917969 166.6875 18.453125 166.6875 18.453125 C 166.792969 17.191406 168.800781 17.300781 169.117188 18.726562 C 169.433594 20.152344 168.113281 25.089844 165.84375 24.925781 C 164.601562 24.835938 163.945312 24.023438 163.605469 23.304688 C 164.453125 23.160156 165.105469 22.394531 165.105469 21.46875 C 165.105469 20.441406 164.300781 19.605469 163.308594 19.605469 C 162.316406 19.605469 161.515625 20.441406 161.515625 21.46875 C 161.515625 22.394531 162.160156 23.15625 163.007812 23.304688 C 162.742188 24.089844 162.21875 24.988281 161.195312 24.925781 C 159.402344 24.816406 157.128906 22.292969 155.914062 19.714844 C 154.695312 17.136719 155.441406 15.65625 156.867188 16.480469 C 158.292969 17.304688 156.972656 18.949219 156.972656 18.949219 C 156.972656 18.949219 159.246094 18.894531 158.398438 16.371094 C 157.554688 13.847656 154.171875 14.234375 154.171875 14.234375 C 156.285156 13.136719 156.445312 10.285156 156.445312 10.285156 C 154.492188 10.230469 153.0625 12.019531 153.0625 12.019531 L 155.914062 6.5 L 155.175781 0.03125 C 155.175781 0.03125 149.6875 7.488281 151.375 16.152344 C 153.484375 27.007812 160.773438 31.828125 160.773438 31.828125 Z M 203.710938 21.742188 C 203.710938 21.742188 205.851562 24.433594 205.621094 25.757812 C 205.394531 27.078125 203.984375 26.84375 203.710938 25.566406 C 203.4375 26.84375 202.027344 27.078125 201.800781 25.757812 C 201.574219 24.433594 203.710938 21.742188 203.710938 21.742188 Z M 187.5 21.46875 C 187.5 21.46875 189.636719 24.160156 189.410156 25.484375 C 189.179688 26.808594 187.769531 26.570312 187.5 25.296875 C 187.226562 26.570312 185.8125 26.808594 185.585938 25.484375 C 185.359375 24.160156 187.5 21.46875 187.5 21.46875 Z M 171.285156 21.742188 C 171.285156 21.742188 173.421875 24.433594 173.195312 25.757812 C 172.964844 27.078125 171.554688 26.84375 171.285156 25.566406 C 171.011719 26.84375 169.601562 27.078125 169.375 25.757812 C 169.144531 24.433594 171.285156 21.742188 171.285156 21.742188 Z M 171.285156 21.742188 " fill-opacity="1" fill-rule="nonzero"/><path fill="#ffffff" d="M 214.539062 35.234375 C 215.136719 35.234375 215.628906 34.742188 215.628906 34.144531 C 215.628906 33.542969 215.140625 33.050781 214.539062 33.050781 L 160.457031 33.050781 C 159.859375 33.050781 159.367188 33.542969 159.367188 34.144531 C 159.367188 34.742188 159.855469 35.234375 160.457031 35.234375 Z M 214.539062 35.234375 " fill-opacity="1" fill-rule="nonzero"/><path fill="#ffffff" d="M 158.941406 45.140625 L 216.054688 45.140625 C 216.054688 45.140625 217.042969 39.953125 214.519531 36.457031 L 160.476562 36.457031 C 157.953125 39.953125 158.941406 45.140625 158.941406 45.140625 Z M 203.6875 40.359375 C 204.074219 40.359375 204.394531 40.671875 204.394531 41.0625 C 204.394531 41.453125 204.078125 41.769531 203.6875 41.769531 C 203.296875 41.769531 202.980469 41.453125 202.980469 41.0625 C 202.980469 40.671875 203.296875 40.359375 203.6875 40.359375 Z M 201.390625 40.105469 C 201.921875 40.105469 202.351562 40.535156 202.351562 41.0625 C 202.351562 41.59375 201.921875 42.023438 201.390625 42.023438 C 200.859375 42.023438 200.429688 41.59375 200.429688 41.0625 C 200.429688 40.535156 200.859375 40.105469 201.390625 40.105469 Z M 198.636719 39.84375 C 199.308594 39.84375 199.855469 40.386719 199.855469 41.0625 C 199.855469 41.738281 199.308594 42.285156 198.636719 42.285156 C 197.960938 42.285156 197.414062 41.738281 197.414062 41.0625 C 197.414062 40.386719 197.960938 39.84375 198.636719 39.84375 Z M 192.414062 41.0625 C 193.234375 40.507812 193.929688 39.40625 193.339844 38.917969 C 192.75 38.433594 192.203125 39.128906 192.203125 39.128906 C 192.03125 38.160156 193.296875 37.484375 194.015625 38.328125 C 194.730469 39.171875 193.972656 40.582031 193.972656 40.582031 L 195.109375 40.101562 L 196.925781 41.0625 L 195.109375 42.027344 L 193.972656 41.542969 C 193.972656 41.542969 194.730469 42.953125 194.015625 43.796875 C 193.296875 44.640625 192.03125 43.964844 192.203125 42.996094 C 192.203125 42.996094 192.75 43.691406 193.339844 43.207031 C 193.929688 42.722656 193.234375 41.621094 192.414062 41.0625 Z M 190.265625 39.316406 C 190.675781 39.316406 191.003906 39.648438 191.003906 40.058594 C 191.003906 40.464844 190.675781 40.796875 190.265625 40.796875 C 189.855469 40.796875 189.523438 40.464844 189.523438 40.058594 C 189.523438 39.648438 189.855469 39.316406 190.265625 39.316406 Z M 184.730469 39.316406 C 185.140625 39.316406 185.472656 39.648438 185.472656 40.058594 C 185.472656 40.464844 185.140625 40.796875 184.730469 40.796875 C 184.320312 40.796875 183.992188 40.464844 183.992188 40.058594 C 183.992188 39.648438 184.320312 39.316406 184.730469 39.316406 Z M 183.941406 41.757812 C 185.039062 40.828125 186.871094 41.8125 186.871094 41.8125 L 186.246094 40.332031 L 187.496094 37.976562 L 188.75 40.332031 L 188.121094 41.8125 C 188.121094 41.8125 189.953125 40.824219 191.050781 41.757812 C 192.148438 42.691406 191.269531 44.335938 190.007812 44.117188 C 190.007812 44.117188 190.914062 43.402344 190.285156 42.636719 C 189.652344 41.867188 188.21875 42.773438 187.496094 43.84375 C 186.773438 42.773438 185.339844 41.867188 184.707031 42.636719 C 184.078125 43.402344 184.980469 44.117188 184.980469 44.117188 C 183.722656 44.335938 182.847656 42.691406 183.941406 41.757812 Z M 179.886719 40.101562 L 181.023438 40.582031 C 181.023438 40.582031 180.265625 39.171875 180.980469 38.332031 C 181.699219 37.488281 182.964844 38.164062 182.796875 39.132812 C 182.796875 39.132812 182.246094 38.4375 181.65625 38.921875 C 181.066406 39.40625 181.761719 40.507812 182.585938 41.0625 C 181.761719 41.621094 181.066406 42.722656 181.65625 43.207031 C 182.246094 43.691406 182.796875 42.996094 182.796875 42.996094 C 182.964844 43.964844 181.699219 44.640625 180.980469 43.796875 C 180.265625 42.953125 181.023438 41.546875 181.023438 41.546875 L 179.886719 42.027344 L 178.074219 41.0625 Z M 176.363281 39.84375 C 177.035156 39.84375 177.582031 40.386719 177.582031 41.0625 C 177.582031 41.738281 177.035156 42.285156 176.363281 42.285156 C 175.6875 42.285156 175.140625 41.738281 175.140625 41.0625 C 175.140625 40.386719 175.6875 39.84375 176.363281 39.84375 Z M 173.605469 40.105469 C 174.136719 40.105469 174.566406 40.535156 174.566406 41.0625 C 174.566406 41.59375 174.136719 42.023438 173.605469 42.023438 C 173.074219 42.023438 172.644531 41.59375 172.644531 41.0625 C 172.648438 40.535156 173.078125 40.105469 173.605469 40.105469 Z M 171.308594 40.359375 C 171.699219 40.359375 172.015625 40.671875 172.015625 41.0625 C 172.015625 41.453125 171.699219 41.769531 171.308594 41.769531 C 170.921875 41.769531 170.601562 41.453125 170.601562 41.0625 C 170.605469 40.671875 170.917969 40.359375 171.308594 40.359375 Z M 171.308594 40.359375 " fill-opacity="1" fill-rule="nonzero"/><path fill="#ffffff" d="M 158.050781 46.859375 C 158.050781 47.28125 158.394531 47.628906 158.816406 47.628906 L 216.179688 47.628906 C 216.601562 47.628906 216.945312 47.28125 216.945312 46.859375 C 216.945312 46.4375 216.601562 46.09375 216.179688 46.09375 L 158.816406 46.09375 C 158.394531 46.089844 158.050781 46.4375 158.050781 46.859375 Z M 158.050781 46.859375 " fill-opacity="1" fill-rule="nonzero"/><path fill="#ffffff" d="M 179.632812 217.765625 C 175.492188 217.984375 171.957031 215.046875 170.402344 215.738281 C 168.851562 216.425781 169.886719 217.765625 169.886719 217.765625 C 168.9375 217.8125 166.265625 216.253906 164.972656 216.597656 C 163.679688 216.945312 164.28125 218.753906 164.28125 218.753906 C 164.28125 218.753906 160.832031 215.738281 159.105469 216.6875 C 157.382812 217.632812 159.105469 219.160156 159.105469 219.160156 C 156.089844 219.222656 151.949219 213.667969 154.710938 209.957031 C 157.46875 206.25 161.523438 209.957031 160.140625 211.339844 C 158.761719 212.71875 157.902344 214.441406 160.832031 214.875 C 163.761719 215.304688 165.574219 209.785156 163.332031 206.855469 C 161.089844 203.921875 156.867188 205.042969 156.867188 205.042969 C 157.984375 204.785156 158.332031 202.542969 155.832031 202.457031 C 153.328125 202.367188 151.085938 205.386719 151.085938 205.386719 C 151.605469 203.835938 149.792969 201.765625 147.980469 204.09375 C 146.171875 206.425781 148.5 211.511719 148.5 211.511719 C 144.878906 207.199219 141.6875 208.40625 140.308594 209.871094 C 138.929688 211.339844 136.253906 209.871094 136.253906 209.871094 C 137.890625 213.839844 140.652344 214.53125 143.324219 214.789062 C 146 215.046875 148.296875 217.230469 148.296875 217.230469 C 144.503906 215.507812 141.167969 219.160156 141.167969 219.160156 C 146.226562 219.367188 145.308594 220.449219 154.390625 223.210938 C 163.476562 225.96875 179.632812 217.765625 179.632812 217.765625 Z M 179.632812 217.765625 " fill-opacity="1" fill-rule="nonzero"/><path fill="#ffffff" d="M 172.507812 223.160156 C 169.402344 228.40625 165.621094 227.117188 165.621094 227.117188 C 169.367188 226.714844 172 222.054688 172 222.054688 C 168.253906 226.246094 158.429688 225.699219 158.429688 225.699219 C 161.164062 230.964844 166.53125 229.246094 166.53125 229.246094 C 164.058594 231.792969 165.417969 234.714844 165.417969 234.714844 C 167.949219 233.804688 169.164062 230.257812 169.164062 230.257812 C 169.453125 234.84375 176.050781 235.421875 176.050781 235.421875 C 171.796875 230.765625 172.507812 223.160156 172.507812 223.160156 Z M 172.507812 223.160156 " fill-opacity="1" fill-rule="nonzero"/><path fill="#ffffff" d="M 152.015625 202.453125 C 153.828125 196.527344 143.617188 191.421875 141.390625 191.75 C 139.167969 192.078125 140.074219 193.808594 140.074219 193.808594 C 140.074219 193.808594 137.519531 190.101562 135.710938 190.429688 C 133.898438 190.761719 134.804688 192.492188 134.804688 192.492188 C 134.804688 192.492188 131.757812 188.539062 130.109375 189.730469 C 128.460938 190.925781 129.945312 192.324219 129.945312 192.324219 C 123.523438 191.335938 122.453125 183.761719 125.417969 181.539062 C 128.382812 179.316406 131.511719 181.210938 131.511719 181.210938 C 131.511719 181.210938 129.121094 180.550781 129.453125 183.679688 C 129.78125 186.808594 135.050781 186.480469 135.464844 183.105469 C 135.875 179.726562 133.816406 177.09375 129.535156 177.011719 C 125.25 176.925781 118.171875 181.046875 120.886719 189.445312 C 123.605469 197.84375 134.886719 198.007812 143.535156 198.175781 C 152.179688 198.335938 152.015625 202.453125 152.015625 202.453125 Z M 152.015625 202.453125 " fill-opacity="1" fill-rule="nonzero"/><path fill="#ffffff" d="M 135.039062 206.242188 C 135.039062 206.242188 134.957031 204.265625 137.964844 202.453125 C 140.96875 200.644531 142.453125 203.855469 140.886719 205.171875 C 139.324219 206.488281 138.746094 205.171875 138.746094 205.171875 C 138.746094 205.171875 138.335938 207.230469 140.476562 207.230469 C 142.617188 207.230469 143.523438 205.75 144.921875 203.441406 C 146.324219 201.136719 148.957031 200.726562 150.6875 201.960938 C 150.929688 202.132812 149.285156 197.84375 139.980469 199.574219 C 130.675781 201.300781 125.238281 197.1875 125.238281 197.1875 C 125.238281 197.1875 126.722656 198.667969 126.96875 200.066406 C 127.214844 201.46875 130.097656 201.550781 130.097656 201.550781 C 130.097656 201.550781 128.039062 202.125 127.792969 203.773438 C 127.546875 205.421875 126.722656 205.914062 126.722656 205.914062 C 126.722656 205.914062 130.835938 207.054688 133.226562 203.527344 C 133.226562 203.527344 130.839844 203.609375 129.933594 204.597656 C 129.933594 204.597656 131.828125 202.371094 134.382812 202.457031 C 134.382812 202.457031 132.816406 204.535156 133.3125 206.089844 C 133.804688 207.644531 133.148438 208.632812 133.148438 208.632812 C 133.148438 208.632812 137.261719 207.398438 137.964844 203.277344 C 137.964844 203.277344 135.921875 204.285156 135.039062 206.242188 Z M 135.039062 206.242188 " fill-opacity="1" fill-rule="nonzero"/><path fill="#ffffff" d="M 130.542969 173.089844 C 130.542969 173.089844 118.3125 162.960938 119.054688 156.539062 C 119.796875 150.117188 119.300781 142.828125 113.496094 143.445312 C 107.6875 144.0625 109.78125 148.757812 109.78125 148.757812 C 109.28125 146.039062 113.988281 145.421875 114.234375 148.878906 C 114.484375 152.335938 110.035156 155.054688 107.070312 151.71875 C 104.105469 148.386719 105.21875 142.332031 103.367188 141.714844 C 101.511719 141.097656 100.523438 142.949219 100.523438 142.949219 C 99.289062 139.242188 101.882812 133.191406 99.78125 132.203125 C 97.683594 131.214844 96.570312 133.683594 96.570312 133.683594 C 96.941406 129.730469 101.636719 127.878906 100.894531 125.285156 C 100.152344 122.691406 97.4375 124.171875 97.4375 124.171875 C 100.894531 117.996094 112.011719 120.46875 111.519531 125.40625 C 111.023438 130.347656 105.835938 125.902344 105.097656 130.84375 C 104.355469 135.785156 117.941406 139.242188 117.941406 125.40625 C 117.941406 111.574219 88.296875 104.160156 89.039062 132.574219 C 89.777344 160.984375 130.542969 175.066406 130.542969 175.066406 C 117.324219 169.136719 115.222656 157.648438 115.222656 157.648438 C 118.683594 167.65625 130.542969 173.089844 130.542969 173.089844 Z M 130.542969 173.089844 " fill-opacity="1" fill-rule="nonzero"/><path fill="#ffffff" d="M 106.113281 173.140625 C 96.621094 177.929688 100.878906 189.730469 107.003906 189.730469 C 113.125 189.730469 114.722656 185.027344 113.125 183.253906 C 111.527344 181.480469 111.703125 182.988281 109.929688 185.027344 C 108.15625 187.070312 104.074219 185.738281 104.871094 182.011719 C 105.671875 178.285156 109.664062 178.375 109.664062 178.375 C 109.664062 178.375 107.179688 179.339844 108.066406 180.632812 C 108.953125 181.921875 112.945312 178.730469 112.945312 178.730469 C 112.945312 178.730469 111.171875 180.59375 112.855469 181.125 C 114.542969 181.65625 117.824219 177.574219 117.824219 177.574219 C 117.824219 177.574219 116.9375 179.527344 118.625 179.617188 C 120.3125 179.707031 121.730469 175.710938 127.40625 175.800781 C 127.410156 175.800781 115.609375 168.347656 106.113281 173.140625 Z M 106.113281 173.140625 " fill-opacity="1" fill-rule="nonzero"/><g clip-path="url(#9c3864106f)"><path fill="#ffffff" d="M 101.101562 170.695312 C 103.570312 172.683594 110.449219 168.878906 113.980469 169.246094 C 113.980469 169.246094 92.539062 161.121094 86.4375 140.140625 C 86.4375 140.140625 86.007812 146.621094 87.507812 150.238281 C 87.507812 150.238281 85.789062 149.171875 83.867188 150.164062 C 81.949219 151.15625 80.675781 150.996094 80.675781 150.996094 C 80.675781 150.996094 82.976562 154.355469 87 154.648438 C 87 154.648438 84.878906 155.726562 84.585938 157.78125 C 84.289062 159.835938 83.558594 160.6875 83.558594 160.6875 C 83.558594 160.6875 87.792969 160.695312 90.078125 158.242188 C 90.078125 158.242188 88.671875 156.796875 86.113281 158.742188 C 86.113281 158.742188 88.035156 155.683594 91.066406 156.125 C 91.066406 156.125 89.09375 153.378906 85.867188 152.03125 C 85.867188 152.03125 93.082031 153.164062 93.433594 160.175781 C 93.785156 167.1875 88.121094 164.15625 89.917969 161.582031 C 89.917969 161.582031 87.21875 162.4375 88.929688 165.773438 C 90.640625 169.105469 96.179688 168.769531 97.152344 163.804688 C 97.152344 163.804688 96.585938 166.335938 98.03125 166.996094 C 99.476562 167.65625 101.199219 166.65625 101.199219 166.65625 C 101.199219 166.65625 98.636719 168.703125 101.101562 170.695312 Z M 101.101562 170.695312 " fill-opacity="1" fill-rule="nonzero"/></g><path fill="#ffffff" d="M 99.921875 84.40625 C 98.359375 100.382812 118.777344 115.371094 118.777344 115.371094 C 115.320312 108.617188 117.460938 100.382812 115.320312 96.761719 C 113.179688 93.136719 111.367188 97.417969 111.367188 97.417969 C 111.367188 97.417969 111.035156 92.808594 108.894531 92.476562 C 106.753906 92.148438 106.917969 96.101562 106.917969 96.101562 C 103.296875 91.984375 102.636719 80.785156 108.238281 78.601562 C 112.835938 76.808594 113.835938 80.457031 113.835938 80.457031 C 113.835938 80.457031 109.554688 78.644531 109.660156 83.089844 C 109.769531 87.539062 118.285156 89.515625 119.4375 81.113281 C 120.585938 72.714844 101.480469 68.429688 99.921875 84.40625 Z M 99.921875 84.40625 " fill-opacity="1" fill-rule="nonzero"/><path fill="#ffffff" d="M 141.617188 56.820312 C 150.5 42.171875 131.441406 33.613281 127.050781 41.527344 C 122.664062 49.441406 131.203125 53.199219 134.140625 49.464844 C 137.074219 45.734375 132.257812 44.542969 132.257812 44.542969 C 132.257812 44.542969 135.445312 42.070312 138.226562 46.542969 C 141.617188 51.988281 133.890625 61.136719 128.160156 62.335938 C 128.160156 62.335938 130.828125 59.066406 128.789062 57.976562 C 126.75 56.886719 123.519531 60.617188 123.519531 60.617188 C 123.519531 60.617188 124.710938 55.800781 120.5625 57.527344 C 116.417969 59.253906 112.980469 67.660156 105.703125 71.214844 C 105.703125 71.21875 132.734375 71.46875 141.617188 56.820312 Z M 141.617188 56.820312 " fill-opacity="1" fill-rule="nonzero"/><path fill="#ffffff" d="M 89.832031 112.902344 C 94.773438 115.617188 98.847656 111.292969 97.734375 109.070312 C 96.625 106.847656 95.390625 107.464844 94.152344 109.316406 C 92.917969 111.171875 90.191406 109.925781 91.617188 106.78125 C 93.042969 103.636719 97.488281 104.007812 99.835938 105.613281 C 99.835938 105.613281 98.476562 106.230469 98.96875 107.464844 C 99.464844 108.699219 103.539062 108.453125 103.539062 108.453125 C 103.539062 108.453125 101.5625 109.195312 102.179688 110.429688 C 102.796875 111.664062 108.855469 110.308594 112.375 112.285156 C 112.375 112.285156 103.414062 99.3125 94.890625 99.808594 C 86.371094 100.300781 84.890625 110.183594 89.832031 112.902344 Z M 89.832031 112.902344 " fill-opacity="1" fill-rule="nonzero"/><path fill="#ffffff" d="M 118.734375 91.746094 C 118.734375 92.167969 118.65625 92.574219 118.492188 92.960938 C 118.332031 93.351562 118.101562 93.695312 117.804688 93.992188 C 117.507812 94.292969 117.160156 94.523438 116.773438 94.683594 C 116.382812 94.84375 115.976562 94.925781 115.554688 94.925781 C 115.132812 94.925781 114.726562 94.84375 114.339844 94.683594 C 113.949219 94.523438 113.605469 94.292969 113.308594 93.992188 C 113.007812 93.695312 112.777344 93.351562 112.617188 92.960938 C 112.457031 92.574219 112.375 92.167969 112.375 91.746094 C 112.375 91.324219 112.457031 90.917969 112.617188 90.527344 C 112.777344 90.140625 113.007812 89.796875 113.308594 89.496094 C 113.605469 89.199219 113.949219 88.96875 114.339844 88.808594 C 114.726562 88.644531 115.132812 88.566406 115.554688 88.566406 C 115.976562 88.566406 116.382812 88.644531 116.773438 88.808594 C 117.160156 88.96875 117.507812 89.199219 117.804688 89.496094 C 118.101562 89.796875 118.332031 90.140625 118.492188 90.527344 C 118.65625 90.917969 118.734375 91.324219 118.734375 91.746094 Z M 118.734375 91.746094 " fill-opacity="1" fill-rule="nonzero"/><path fill="#ffffff" d="M 101.105469 77.121094 C 101.105469 77.121094 92.832031 77.664062 89.636719 81.359375 C 89.636719 81.359375 93.289062 76.433594 100.339844 75.707031 C 100.339844 75.707031 92.6875 71.421875 88.824219 76.742188 C 84.960938 82.0625 81.664062 82.46875 81.664062 82.46875 C 81.664062 82.46875 94.144531 89.171875 101.105469 77.121094 Z M 101.105469 77.121094 " fill-opacity="1" fill-rule="nonzero"/><path fill="#ffffff" d="M 103.28125 73.75 C 103.28125 73.75 97.691406 67.625 92.808594 67.433594 C 92.808594 67.433594 98.9375 67.214844 103.90625 72.269531 C 103.90625 72.269531 102.476562 63.617188 95.910156 63.917969 C 89.339844 64.222656 86.964844 61.898438 86.964844 61.898438 C 86.964844 61.898438 89.519531 75.835938 103.28125 73.75 Z M 103.28125 73.75 " fill-opacity="1" fill-rule="nonzero"/><path fill="#ffffff" d="M 107.355469 58.21875 C 104.621094 62.265625 106.246094 70.398438 106.246094 70.398438 C 116.074219 60.542969 106.355469 50.234375 106.355469 50.234375 C 106.355469 50.234375 106.824219 53.523438 102.6875 58.632812 C 98.554688 63.746094 104.683594 70.027344 104.683594 70.027344 C 103.550781 63.03125 107.355469 58.21875 107.355469 58.21875 Z M 107.355469 58.21875 " fill-opacity="1" fill-rule="nonzero"/><path fill="#ffffff" d="M 87.675781 99.757812 C 87.675781 99.757812 94.914062 95.378906 102.925781 100.546875 C 102.925781 100.546875 95.808594 92.597656 98.015625 83.582031 C 98.015625 83.582031 92.550781 88.394531 96.203125 94.664062 C 96.203125 94.664062 90.003906 93.800781 87.675781 99.757812 Z M 87.675781 99.757812 " fill-opacity="1" fill-rule="nonzero"/><path fill="#ffffff" d="M 108.566406 137.398438 C 107.222656 137.398438 106.136719 138.484375 106.136719 139.828125 C 106.136719 141.167969 107.222656 142.257812 108.566406 142.257812 C 109.90625 142.257812 110.996094 141.167969 110.996094 139.828125 C 110.996094 138.484375 109.90625 137.398438 108.566406 137.398438 Z M 108.566406 137.398438 " fill-opacity="1" fill-rule="nonzero"/><path fill="#ffffff" d="M 89.285156 114.804688 C 89.617188 115.136719 89.875 115.519531 90.054688 115.953125 C 90.234375 116.386719 90.324219 116.839844 90.324219 117.308594 C 90.324219 117.777344 90.234375 118.230469 90.054688 118.664062 C 89.875 119.097656 89.617188 119.480469 89.285156 119.8125 C 88.953125 120.144531 88.570312 120.402344 88.136719 120.582031 C 87.703125 120.761719 87.253906 120.851562 86.78125 120.851562 C 86.3125 120.851562 85.863281 120.761719 85.425781 120.582031 C 84.992188 120.402344 84.609375 120.144531 84.277344 119.8125 C 83.945312 119.480469 83.691406 119.097656 83.511719 118.664062 C 83.332031 118.230469 83.242188 117.777344 83.242188 117.308594 C 83.242188 116.839844 83.332031 116.386719 83.511719 115.953125 C 83.691406 115.519531 83.945312 115.136719 84.277344 114.804688 C 84.609375 114.472656 84.992188 114.21875 85.425781 114.039062 C 85.863281 113.859375 86.3125 113.769531 86.78125 113.769531 C 87.253906 113.769531 87.703125 113.859375 88.136719 114.039062 C 88.570312 114.21875 88.953125 114.472656 89.285156 114.804688 Z M 89.285156 114.804688 " fill-opacity="1" fill-rule="nonzero"/><path fill="#ffffff" d="M 116.304688 56.109375 C 118.894531 56.109375 120.992188 54.011719 120.992188 51.421875 C 120.992188 48.832031 118.894531 46.730469 116.304688 46.730469 C 113.714844 46.730469 111.617188 48.832031 111.617188 51.421875 C 111.617188 54.011719 113.714844 56.109375 116.304688 56.109375 Z M 116.304688 56.109375 " fill-opacity="1" fill-rule="nonzero"/><g clip-path="url(#513baf8b57)"><path fill="#ffffff" d="M 195.652344 220.324219 C 190.546875 218.265625 187.5 222.21875 187.5 222.21875 C 187.5 222.21875 184.449219 218.265625 179.34375 220.324219 C 173.757812 222.578125 173.332031 229.960938 177.367188 231.441406 C 180.453125 232.574219 180.582031 229.792969 180.582031 229.792969 C 178.769531 230.863281 176.382812 226.664062 180.910156 225.511719 C 185.441406 224.359375 187.003906 229.546875 185.191406 231.605469 C 183.441406 233.597656 184.460938 235.96875 184.53125 236.128906 C 183.703125 233.996094 181.238281 233.503906 180.417969 235.394531 C 179.59375 237.289062 183.792969 239.347656 183.792969 239.347656 C 178.523438 238.9375 178.769531 243.382812 178.769531 243.382812 C 179.761719 240.664062 185.359375 241.652344 183.382812 245.605469 C 181.40625 249.558594 187.5 255.695312 187.5 255.695312 C 187.5 255.695312 193.597656 249.558594 191.617188 245.605469 C 189.644531 241.652344 195.242188 240.664062 196.230469 243.382812 C 196.230469 243.382812 196.476562 238.9375 191.207031 239.347656 C 191.207031 239.347656 195.40625 237.289062 194.582031 235.394531 C 193.761719 233.503906 191.296875 233.996094 190.472656 236.128906 C 190.539062 235.96875 191.558594 233.597656 189.808594 231.605469 C 187.996094 229.546875 189.5625 224.359375 194.089844 225.511719 C 198.621094 226.664062 196.230469 230.863281 194.421875 229.792969 C 194.421875 229.792969 194.546875 232.574219 197.632812 231.441406 C 201.664062 229.960938 201.238281 222.578125 195.652344 220.324219 Z M 195.652344 220.324219 " fill-opacity="1" fill-rule="nonzero"/></g><path fill="#ffffff" d="M 234.6875 209.871094 C 233.308594 208.40625 230.117188 207.199219 226.496094 211.511719 C 226.496094 211.511719 228.824219 206.425781 227.011719 204.09375 C 225.203125 201.765625 223.390625 203.835938 223.90625 205.386719 C 223.90625 205.386719 221.667969 202.371094 219.164062 202.457031 C 216.664062 202.542969 217.007812 204.785156 218.128906 205.042969 C 218.128906 205.042969 213.902344 203.921875 211.664062 206.855469 C 209.421875 209.785156 211.230469 215.304688 214.164062 214.875 C 217.09375 214.441406 216.230469 212.71875 214.851562 211.339844 C 213.472656 209.957031 217.527344 206.25 220.285156 209.957031 C 223.042969 213.667969 218.90625 219.222656 215.886719 219.160156 C 215.886719 219.160156 217.613281 217.632812 215.886719 216.6875 C 214.164062 215.738281 210.714844 218.753906 210.714844 218.753906 C 210.714844 218.753906 211.316406 216.945312 210.023438 216.597656 C 208.730469 216.253906 206.058594 217.8125 205.109375 217.765625 C 205.109375 217.765625 206.144531 216.425781 204.589844 215.738281 C 203.039062 215.046875 199.503906 217.984375 195.363281 217.765625 C 195.363281 217.765625 211.515625 225.96875 220.601562 223.210938 C 229.683594 220.453125 228.765625 219.367188 233.824219 219.164062 C 233.824219 219.164062 230.492188 215.507812 226.695312 217.234375 C 226.695312 217.234375 228.996094 215.046875 231.667969 214.789062 C 234.34375 214.53125 237.101562 213.839844 238.738281 209.875 C 238.738281 209.871094 236.066406 211.339844 234.6875 209.871094 Z M 234.6875 209.871094 " fill-opacity="1" fill-rule="nonzero"/><path fill="#ffffff" d="M 202.996094 222.054688 C 202.996094 222.054688 205.632812 226.714844 209.378906 227.117188 C 209.378906 227.117188 205.59375 228.40625 202.492188 223.160156 C 202.492188 223.160156 203.199219 230.765625 198.945312 235.421875 C 198.945312 235.421875 205.542969 234.84375 205.832031 230.257812 C 205.832031 230.257812 207.046875 233.804688 209.578125 234.714844 C 209.578125 234.714844 210.9375 231.792969 208.464844 229.246094 C 208.464844 229.246094 213.832031 230.964844 216.566406 225.699219 C 216.570312 225.699219 206.746094 226.246094 202.996094 222.054688 Z M 202.996094 222.054688 " fill-opacity="1" fill-rule="nonzero"/><path fill="#ffffff" d="M 245.460938 177.007812 C 241.179688 177.09375 239.121094 179.726562 239.53125 183.105469 C 239.945312 186.480469 245.214844 186.808594 245.542969 183.679688 C 245.875 180.550781 243.484375 181.207031 243.484375 181.207031 C 243.484375 181.207031 246.613281 179.3125 249.578125 181.539062 C 252.546875 183.761719 251.472656 191.335938 245.050781 192.324219 C 245.050781 192.324219 246.53125 190.921875 244.886719 189.730469 C 243.238281 188.535156 240.191406 192.488281 240.191406 192.488281 C 240.191406 192.488281 241.097656 190.761719 239.285156 190.429688 C 237.472656 190.101562 234.921875 193.804688 234.921875 193.804688 C 234.921875 193.804688 235.828125 192.078125 233.605469 191.746094 C 231.378906 191.417969 221.167969 196.523438 222.980469 202.453125 C 222.980469 202.453125 222.816406 198.335938 231.464844 198.171875 C 240.109375 198.007812 251.390625 197.839844 254.109375 189.441406 C 256.828125 181.042969 249.746094 176.925781 245.460938 177.007812 Z M 245.460938 177.007812 " fill-opacity="1" fill-rule="nonzero"/><path fill="#ffffff" d="M 248.027344 200.066406 C 248.273438 198.667969 249.753906 197.183594 249.753906 197.183594 C 249.753906 197.183594 244.320312 201.300781 235.015625 199.574219 C 225.707031 197.84375 224.066406 202.132812 224.308594 201.960938 C 226.035156 200.726562 228.671875 201.136719 230.074219 203.441406 C 231.472656 205.75 232.378906 207.230469 234.519531 207.230469 C 236.660156 207.230469 236.25 205.171875 236.25 205.171875 C 236.25 205.171875 235.671875 206.488281 234.109375 205.171875 C 232.542969 203.855469 234.023438 200.640625 237.03125 202.453125 C 240.035156 204.265625 239.953125 206.242188 239.953125 206.242188 C 239.074219 204.285156 237.03125 203.277344 237.03125 203.277344 C 237.730469 207.394531 241.847656 208.628906 241.847656 208.628906 C 241.847656 208.628906 241.191406 207.640625 241.683594 206.085938 C 242.179688 204.535156 240.613281 202.453125 240.613281 202.453125 C 243.164062 202.371094 245.0625 204.59375 245.0625 204.59375 C 244.15625 203.605469 241.765625 203.523438 241.765625 203.523438 C 244.15625 207.054688 248.273438 205.910156 248.273438 205.910156 C 248.273438 205.910156 247.449219 205.417969 247.203125 203.769531 C 246.957031 202.125 244.894531 201.546875 244.894531 201.546875 C 244.894531 201.546875 247.777344 201.46875 248.027344 200.066406 Z M 248.027344 200.066406 " fill-opacity="1" fill-rule="nonzero"/><path fill="#ffffff" d="M 244.453125 175.066406 C 244.453125 175.066406 285.21875 160.984375 285.957031 132.574219 C 286.699219 104.164062 257.054688 111.574219 257.054688 125.410156 C 257.054688 139.242188 270.640625 135.785156 269.902344 130.84375 C 269.160156 125.90625 263.972656 130.351562 263.476562 125.410156 C 262.984375 120.46875 274.101562 117.996094 277.558594 124.175781 C 277.558594 124.175781 274.839844 122.691406 274.101562 125.285156 C 273.359375 127.878906 278.054688 129.734375 278.425781 133.683594 C 278.425781 133.683594 277.3125 131.214844 275.214844 132.203125 C 273.113281 133.191406 275.707031 139.242188 274.472656 142.949219 C 274.472656 142.949219 273.484375 141.097656 271.628906 141.714844 C 269.777344 142.332031 270.890625 148.386719 267.925781 151.722656 C 264.960938 155.058594 260.511719 152.339844 260.761719 148.878906 C 261.007812 145.421875 265.714844 146.039062 265.214844 148.757812 C 265.214844 148.757812 267.308594 144.0625 261.5 143.445312 C 255.695312 142.828125 255.199219 150.117188 255.941406 156.539062 C 256.683594 162.964844 244.453125 173.089844 244.453125 173.089844 C 244.453125 173.089844 256.3125 167.65625 259.773438 157.652344 C 259.773438 157.648438 257.671875 169.136719 244.453125 175.066406 Z M 244.453125 175.066406 " fill-opacity="1" fill-rule="nonzero"/><path fill="#ffffff" d="M 268.882812 173.140625 C 259.386719 168.347656 247.585938 175.800781 247.585938 175.800781 C 253.265625 175.710938 254.6875 179.707031 256.371094 179.617188 C 258.058594 179.527344 257.167969 177.574219 257.167969 177.574219 C 257.167969 177.574219 260.453125 181.65625 262.136719 181.125 C 263.824219 180.59375 262.046875 178.730469 262.046875 178.730469 C 262.046875 178.730469 266.042969 181.921875 266.929688 180.632812 C 267.816406 179.339844 265.332031 178.375 265.332031 178.375 C 265.332031 178.375 269.324219 178.285156 270.121094 182.011719 C 270.921875 185.738281 266.839844 187.070312 265.066406 185.027344 C 263.289062 182.988281 263.46875 181.480469 261.871094 183.253906 C 260.273438 185.027344 261.871094 189.730469 267.992188 189.730469 C 274.113281 189.730469 278.375 177.929688 268.882812 173.140625 Z M 268.882812 173.140625 " fill-opacity="1" fill-rule="nonzero"/><g clip-path="url(#70d982a7bf)"><path fill="#ffffff" d="M 294.320312 150.996094 C 294.320312 150.996094 293.046875 151.15625 291.128906 150.164062 C 289.207031 149.171875 287.488281 150.242188 287.488281 150.242188 C 288.988281 146.621094 288.558594 140.140625 288.558594 140.140625 C 282.453125 161.121094 261.015625 169.246094 261.015625 169.246094 C 264.546875 168.878906 271.425781 172.6875 273.894531 170.695312 C 276.359375 168.707031 273.796875 166.660156 273.796875 166.660156 C 273.796875 166.660156 275.519531 167.664062 276.964844 167.003906 C 278.410156 166.34375 277.84375 163.808594 277.84375 163.808594 C 278.8125 168.773438 284.355469 169.109375 286.066406 165.777344 C 287.78125 162.445312 285.078125 161.589844 285.078125 161.589844 C 286.875 164.160156 281.210938 167.191406 281.5625 160.183594 C 281.914062 153.171875 289.128906 152.035156 289.128906 152.035156 C 285.902344 153.382812 283.929688 156.128906 283.929688 156.128906 C 286.960938 155.6875 288.882812 158.746094 288.882812 158.746094 C 286.324219 156.800781 284.917969 158.25 284.917969 158.25 C 287.203125 160.699219 291.4375 160.691406 291.4375 160.691406 C 291.4375 160.691406 290.707031 159.839844 290.410156 157.789062 C 290.113281 155.734375 287.996094 154.652344 287.996094 154.652344 C 292.019531 154.355469 294.320312 150.996094 294.320312 150.996094 Z M 294.320312 150.996094 " fill-opacity="1" fill-rule="nonzero"/></g><path fill="#ffffff" d="M 255.5625 81.113281 C 256.714844 89.511719 265.226562 87.535156 265.335938 83.089844 C 265.441406 78.644531 261.160156 80.453125 261.160156 80.453125 C 261.160156 80.453125 262.160156 76.808594 266.757812 78.601562 C 272.359375 80.785156 271.699219 91.984375 268.078125 96.101562 C 268.078125 96.101562 268.242188 92.148438 266.101562 92.476562 C 263.960938 92.804688 263.628906 97.417969 263.628906 97.417969 C 263.628906 97.417969 261.816406 93.136719 259.675781 96.757812 C 257.535156 100.382812 259.675781 108.617188 256.21875 115.371094 C 256.21875 115.371094 276.636719 100.382812 275.074219 84.40625 C 273.515625 68.429688 254.410156 72.714844 255.5625 81.113281 Z M 255.5625 81.113281 " fill-opacity="1" fill-rule="nonzero"/><path fill="#ffffff" d="M 269.292969 71.21875 C 262.019531 67.660156 258.578125 59.253906 254.433594 57.527344 C 250.285156 55.800781 251.476562 60.621094 251.476562 60.621094 C 251.476562 60.621094 248.246094 56.890625 246.207031 57.976562 C 244.167969 59.066406 246.835938 62.339844 246.835938 62.339844 C 241.105469 61.136719 233.378906 51.988281 236.769531 46.542969 C 239.550781 42.070312 242.738281 44.546875 242.738281 44.546875 C 242.738281 44.546875 237.921875 45.734375 240.855469 49.46875 C 243.792969 53.199219 252.332031 49.441406 247.945312 41.527344 C 243.558594 33.613281 224.496094 42.171875 233.378906 56.824219 C 242.261719 71.46875 269.292969 71.21875 269.292969 71.21875 Z M 269.292969 71.21875 " fill-opacity="1" fill-rule="nonzero"/><path fill="#ffffff" d="M 280.84375 109.316406 C 279.609375 107.464844 278.371094 106.847656 277.261719 109.070312 C 276.148438 111.292969 280.226562 115.617188 285.164062 112.902344 C 290.105469 110.183594 288.625 100.300781 280.101562 99.808594 C 271.578125 99.3125 262.621094 112.28125 262.621094 112.28125 C 266.136719 110.308594 272.195312 111.664062 272.8125 110.429688 C 273.429688 109.195312 271.453125 108.453125 271.453125 108.453125 C 271.453125 108.453125 275.53125 108.699219 276.023438 107.464844 C 276.519531 106.230469 275.160156 105.613281 275.160156 105.613281 C 277.503906 104.003906 281.953125 103.636719 283.378906 106.78125 C 284.804688 109.925781 282.078125 111.171875 280.84375 109.316406 Z M 280.84375 109.316406 " fill-opacity="1" fill-rule="nonzero"/><path fill="#ffffff" d="M 262.621094 91.746094 C 262.621094 92.167969 262.539062 92.574219 262.378906 92.960938 C 262.21875 93.351562 261.988281 93.695312 261.6875 93.992188 C 261.390625 94.292969 261.046875 94.523438 260.65625 94.683594 C 260.269531 94.84375 259.863281 94.925781 259.441406 94.925781 C 259.019531 94.925781 258.613281 94.84375 258.222656 94.683594 C 257.835938 94.523438 257.488281 94.292969 257.191406 93.992188 C 256.894531 93.695312 256.664062 93.351562 256.503906 92.960938 C 256.339844 92.574219 256.261719 92.167969 256.261719 91.746094 C 256.261719 91.324219 256.339844 90.917969 256.503906 90.527344 C 256.664062 90.140625 256.894531 89.796875 257.191406 89.496094 C 257.488281 89.199219 257.835938 88.96875 258.222656 88.808594 C 258.613281 88.644531 259.019531 88.566406 259.441406 88.566406 C 259.863281 88.566406 260.269531 88.644531 260.65625 88.808594 C 261.046875 88.96875 261.390625 89.199219 261.6875 89.496094 C 261.988281 89.796875 262.21875 90.140625 262.378906 90.527344 C 262.539062 90.917969 262.621094 91.324219 262.621094 91.746094 Z M 262.621094 91.746094 " fill-opacity="1" fill-rule="nonzero"/><path fill="#ffffff" d="M 274.65625 75.707031 C 281.707031 76.433594 285.363281 81.359375 285.363281 81.359375 C 282.164062 77.664062 273.894531 77.121094 273.894531 77.121094 C 280.855469 89.171875 293.335938 82.46875 293.335938 82.46875 C 293.335938 82.46875 290.039062 82.0625 286.175781 76.742188 C 282.3125 71.421875 274.65625 75.707031 274.65625 75.707031 Z M 274.65625 75.707031 " fill-opacity="1" fill-rule="nonzero"/><path fill="#ffffff" d="M 282.1875 67.433594 C 277.304688 67.625 271.714844 73.75 271.714844 73.75 C 285.476562 75.832031 288.03125 61.898438 288.03125 61.898438 C 288.03125 61.898438 285.65625 64.222656 279.089844 63.917969 C 272.519531 63.617188 271.089844 72.269531 271.089844 72.269531 C 276.058594 67.214844 282.1875 67.433594 282.1875 67.433594 Z M 282.1875 67.433594 " fill-opacity="1" fill-rule="nonzero"/><path fill="#ffffff" d="M 267.640625 58.21875 C 267.640625 58.21875 271.445312 63.03125 270.316406 70.027344 C 270.316406 70.027344 276.441406 63.75 272.308594 58.636719 C 268.175781 53.523438 268.640625 50.234375 268.640625 50.234375 C 268.640625 50.234375 258.925781 60.542969 268.753906 70.398438 C 268.75 70.398438 270.375 62.265625 267.640625 58.21875 Z M 267.640625 58.21875 " fill-opacity="1" fill-rule="nonzero"/><path fill="#ffffff" d="M 287.320312 99.757812 C 284.992188 93.800781 278.792969 94.664062 278.792969 94.664062 C 282.445312 88.394531 276.980469 83.582031 276.980469 83.582031 C 279.1875 92.597656 272.070312 100.546875 272.070312 100.546875 C 280.082031 95.378906 287.320312 99.757812 287.320312 99.757812 Z M 287.320312 99.757812 " fill-opacity="1" fill-rule="nonzero"/><path fill="#ffffff" d="M 268.859375 139.828125 C 268.859375 138.484375 267.773438 137.398438 266.429688 137.398438 C 265.089844 137.398438 264 138.484375 264 139.828125 C 264 141.167969 265.089844 142.257812 266.429688 142.257812 C 267.773438 142.257812 268.859375 141.167969 268.859375 139.828125 Z M 268.859375 139.828125 " fill-opacity="1" fill-rule="nonzero"/><path fill="#ffffff" d="M 290.714844 114.808594 C 291.046875 115.140625 291.300781 115.523438 291.480469 115.957031 C 291.660156 116.390625 291.75 116.839844 291.75 117.3125 C 291.75 117.78125 291.660156 118.230469 291.480469 118.664062 C 291.300781 119.101562 291.046875 119.484375 290.714844 119.816406 C 290.382812 120.148438 290 120.402344 289.566406 120.582031 C 289.132812 120.761719 288.679688 120.851562 288.210938 120.851562 C 287.738281 120.851562 287.289062 120.761719 286.855469 120.582031 C 286.421875 120.402344 286.039062 120.148438 285.707031 119.816406 C 285.375 119.484375 285.117188 119.101562 284.9375 118.667969 C 284.757812 118.230469 284.667969 117.78125 284.667969 117.3125 C 284.667969 116.839844 284.757812 116.390625 284.9375 115.957031 C 285.117188 115.523438 285.375 115.140625 285.707031 114.808594 C 286.039062 114.476562 286.421875 114.21875 286.855469 114.039062 C 287.289062 113.859375 287.738281 113.769531 288.210938 113.769531 C 288.679688 113.769531 289.128906 113.859375 289.566406 114.039062 C 290 114.21875 290.382812 114.476562 290.714844 114.808594 Z M 290.714844 114.808594 " fill-opacity="1" fill-rule="nonzero"/><path fill="#ffffff" d="M 260.484375 47.082031 C 260.769531 47.203125 261.039062 47.347656 261.296875 47.515625 C 261.550781 47.6875 261.789062 47.882812 262.007812 48.101562 C 262.222656 48.316406 262.417969 48.554688 262.589844 48.808594 C 262.761719 49.066406 262.90625 49.335938 263.023438 49.621094 C 263.140625 49.90625 263.230469 50.199219 263.289062 50.5 C 263.351562 50.800781 263.378906 51.109375 263.378906 51.414062 C 263.378906 51.722656 263.351562 52.027344 263.289062 52.332031 C 263.230469 52.632812 263.140625 52.925781 263.023438 53.210938 C 262.90625 53.496094 262.761719 53.765625 262.589844 54.019531 C 262.417969 54.277344 262.222656 54.511719 262.007812 54.730469 C 261.789062 54.949219 261.550781 55.144531 261.296875 55.3125 C 261.039062 55.484375 260.769531 55.628906 260.484375 55.746094 C 260.199219 55.867188 259.90625 55.953125 259.605469 56.015625 C 259.304688 56.074219 259 56.105469 258.691406 56.105469 C 258.382812 56.105469 258.078125 56.074219 257.777344 56.015625 C 257.472656 55.953125 257.179688 55.867188 256.898438 55.746094 C 256.613281 55.628906 256.34375 55.484375 256.085938 55.3125 C 255.828125 55.144531 255.59375 54.949219 255.375 54.730469 C 255.15625 54.511719 254.964844 54.277344 254.792969 54.019531 C 254.621094 53.765625 254.476562 53.496094 254.359375 53.210938 C 254.242188 52.925781 254.152344 52.632812 254.09375 52.332031 C 254.03125 52.027344 254.003906 51.722656 254.003906 51.414062 C 254.003906 51.109375 254.03125 50.800781 254.09375 50.5 C 254.152344 50.199219 254.242188 49.90625 254.359375 49.621094 C 254.476562 49.335938 254.621094 49.066406 254.792969 48.808594 C 254.964844 48.554688 255.15625 48.316406 255.375 48.101562 C 255.59375 47.882812 255.828125 47.6875 256.085938 47.515625 C 256.34375 47.347656 256.613281 47.203125 256.898438 47.082031 C 257.179688 46.964844 257.472656 46.875 257.777344 46.816406 C 258.078125 46.757812 258.382812 46.726562 258.691406 46.726562 C 259 46.726562 259.304688 46.757812 259.605469 46.816406 C 259.90625 46.875 260.199219 46.964844 260.484375 47.082031 Z M 260.484375 47.082031 " fill-opacity="1" fill-rule="nonzero"/><g clip-path="url(#61c25fc840)"><path fill="#ffffff" d="M 219.742188 93.449219 L 185.925781 105.847656 L 142.210938 89.828125 L 185.925781 73.726562 L 221.917969 86.929688 L 231.253906 86.929688 L 186.492188 70.503906 C 186.167969 70.34375 185.765625 70.34375 185.363281 70.503906 L 136.976562 88.296875 C 136.332031 88.539062 135.929688 89.101562 135.929688 89.828125 C 135.929688 90.550781 136.332031 91.117188 136.976562 91.355469 L 156.863281 98.683594 L 156.863281 117.925781 C 156.863281 118.8125 156.863281 120.421875 169.179688 125.734375 C 172 126.941406 181.417969 130.886719 185.6875 130.886719 C 190.035156 130.886719 199.613281 126.941406 202.433594 125.734375 C 214.910156 120.421875 214.910156 118.8125 214.910156 117.925781 L 214.910156 98.683594 L 229.082031 93.449219 C 229.082031 93.449219 219.742188 93.449219 219.742188 93.449219 Z M 211.691406 117.363281 C 209.035156 119.695312 190.839844 127.585938 185.6875 127.585938 C 180.695312 127.585938 162.742188 119.695312 160.082031 117.363281 L 160.082031 99.8125 L 185.363281 109.070312 C 185.523438 109.148438 185.765625 109.148438 185.925781 109.148438 C 186.089844 109.148438 186.332031 109.148438 186.492188 109.070312 L 211.773438 99.8125 Z M 211.691406 117.363281 " fill-opacity="1" fill-rule="nonzero"/></g><g clip-path="url(#fa14db9baf)"><path fill="#ffffff" d="M 238.824219 119.292969 C 238.582031 118.246094 238.339844 117.121094 238.179688 116.074219 L 237.777344 112.855469 L 237.214844 109.632812 C 236.972656 108.425781 236.8125 107.296875 236.570312 106.089844 C 237.859375 105.6875 238.824219 104.480469 238.824219 103.03125 C 238.824219 101.5 237.777344 100.214844 236.328125 99.890625 C 236.410156 99.730469 236.570312 99.648438 236.648438 99.488281 L 237.132812 98.84375 C 237.375 98.601562 237.132812 98.363281 237.214844 98.199219 L 237.214844 90.230469 C 237.214844 89.34375 236.488281 88.621094 235.601562 88.621094 L 209.839844 88.621094 C 205.574219 88.699219 201.226562 88.457031 196.957031 88.941406 C 194.300781 89.183594 191.644531 89.425781 188.90625 89.667969 C 188.503906 89.023438 187.296875 88.539062 185.847656 88.539062 C 184.074219 88.539062 182.625 89.265625 182.625 90.148438 C 182.625 91.035156 184.074219 91.757812 185.847656 91.757812 C 187.296875 91.757812 188.421875 91.277344 188.90625 90.632812 C 191.5625 90.875 194.21875 91.195312 196.957031 91.355469 C 201.226562 91.921875 205.574219 91.679688 209.839844 91.679688 L 233.992188 91.679688 L 233.992188 98.039062 C 234.074219 98.28125 233.832031 98.523438 234.074219 98.683594 L 234.558594 99.328125 C 234.636719 99.488281 234.796875 99.570312 234.878906 99.730469 C 233.429688 100.050781 232.382812 101.339844 232.382812 102.871094 C 232.382812 104.320312 233.347656 105.527344 234.636719 105.929688 C 234.394531 107.136719 234.152344 108.265625 233.992188 109.472656 L 233.429688 112.691406 L 233.027344 115.914062 C 232.867188 116.960938 232.625 118.085938 232.382812 119.132812 C 232.140625 120.179688 232.140625 121.308594 232.382812 122.355469 C 232.542969 123.402344 232.867188 124.527344 233.347656 125.574219 C 233.832031 126.621094 234.394531 127.75 235.28125 128.796875 L 235.925781 128.796875 C 236.8125 127.75 237.457031 126.621094 237.859375 125.574219 C 238.339844 124.527344 238.582031 123.402344 238.824219 122.355469 C 239.066406 121.46875 239.066406 120.421875 238.824219 119.292969 Z M 238.824219 119.292969 " fill-opacity="1" fill-rule="nonzero"/></g><g clip-path="url(#722e1dcad8)"><path fill="#ffffff" d="M 227.632812 148.761719 C 226.90625 147.714844 225.457031 146.75 224.25 146.507812 C 191.082031 139.261719 148.007812 123.640625 147.605469 123.5625 C 147.523438 123.5625 147.363281 123.480469 147.28125 123.480469 C 147.121094 123.480469 142.453125 123.964844 140.761719 129.519531 C 140.117188 131.773438 139.875 136.042969 143.257812 138.375 C 142.53125 138.699219 141.566406 139.179688 140.519531 139.421875 C 140.195312 139.503906 139.957031 139.824219 139.957031 140.226562 C 139.957031 140.628906 140.277344 140.953125 140.601562 140.953125 C 140.761719 140.953125 154.609375 143.449219 170.066406 148.277344 L 156.300781 152.625 L 163.785156 153.109375 L 163.464844 156.894531 L 172.480469 152.625 L 170.066406 160.195312 L 175.140625 158.90625 L 179.246094 161.722656 L 179.890625 151.578125 C 195.507812 157.296875 209.757812 164.300781 217.003906 170.015625 C 217.167969 170.097656 217.328125 170.179688 217.488281 170.179688 C 217.648438 170.179688 217.808594 170.097656 217.972656 170.015625 C 217.972656 170.015625 221.515625 167.28125 224.25 165.105469 C 224.332031 165.023438 224.414062 164.945312 224.414062 164.863281 C 225.539062 163.898438 226.34375 162.609375 226.90625 161.320312 C 228.761719 157.617188 229.886719 151.980469 227.632812 148.761719 Z M 142.289062 129.921875 C 143.496094 125.898438 146.476562 125.171875 147.28125 125.089844 C 148.890625 125.65625 160.566406 129.839844 175.863281 134.753906 C 173.769531 135.476562 172.078125 137.328125 171.113281 139.261719 C 170.226562 140.953125 169.503906 143.285156 169.90625 145.378906 C 155.089844 140.386719 145.671875 137.894531 145.511719 137.8125 C 140.601562 135.878906 142.210938 130.164062 142.289062 129.921875 Z M 217.648438 168.40625 C 212.011719 164.058594 203.722656 159.792969 195.105469 155.925781 C 202.996094 158.90625 211.53125 162.367188 220.386719 166.152344 L 220.46875 166.152344 C 219.257812 167.199219 218.210938 168.003906 217.648438 168.40625 Z M 225.621094 160.757812 C 224.976562 162.207031 223.203125 164.863281 221.191406 164.621094 C 220.144531 164.542969 219.660156 163.09375 219.421875 162.207031 C 218.617188 159.390625 219.660156 155.445312 221.59375 153.351562 C 222.238281 152.707031 223.203125 151.980469 224.007812 151.980469 C 224.414062 151.980469 224.734375 152.144531 225.054688 152.546875 C 226.265625 153.914062 225.539062 157.699219 224.414062 159.390625 C 223.929688 160.113281 223.203125 160.597656 222.558594 160.757812 C 222.15625 160.839844 221.835938 160.757812 221.59375 160.515625 C 221.109375 160.113281 220.871094 159.390625 220.949219 158.585938 C 221.03125 157.539062 221.59375 156.652344 222.238281 156.328125 L 222.320312 156.328125 C 222.398438 156.410156 222.398438 156.652344 222.320312 156.972656 C 222.15625 157.375 222.480469 157.859375 222.882812 157.941406 C 223.285156 158.101562 223.769531 157.777344 223.847656 157.375 C 224.089844 156.410156 223.929688 155.523438 223.285156 155.042969 C 223.042969 154.878906 222.398438 154.476562 221.433594 154.960938 C 220.304688 155.605469 219.421875 156.972656 219.257812 158.503906 C 219.097656 159.871094 219.582031 161.160156 220.46875 161.886719 C 221.109375 162.367188 221.917969 162.609375 222.722656 162.449219 C 223.847656 162.289062 224.976562 161.484375 225.699219 160.355469 C 225.699219 160.273438 225.78125 160.273438 225.78125 160.195312 C 225.78125 160.355469 225.699219 160.597656 225.621094 160.757812 Z M 227.230469 154.238281 C 227.148438 153.191406 226.828125 152.222656 226.183594 151.578125 C 225.539062 150.855469 224.816406 150.53125 223.929688 150.453125 C 223.929688 150.453125 223.929688 150.453125 223.847656 150.453125 C 222.15625 150.453125 220.789062 151.742188 220.226562 152.304688 C 217.890625 154.800781 216.761719 159.390625 217.648438 162.691406 C 217.730469 163.011719 217.808594 163.253906 217.890625 163.496094 C 204.042969 157.617188 191.082031 152.707031 180.128906 148.84375 C 179.40625 146.75 180.371094 144.332031 181.339844 142.480469 C 182.386719 140.550781 184.074219 138.617188 186.25 137.972656 C 198.40625 141.675781 211.773438 145.378906 223.847656 148.039062 C 224.652344 148.199219 225.78125 148.921875 226.265625 149.648438 C 227.070312 150.773438 227.390625 152.386719 227.230469 154.238281 Z M 227.230469 154.238281 " fill-opacity="1" fill-rule="nonzero"/></g><g clip-path="url(#d5486dc784)"><path fill="#ffffff" d="M 187.328125 170.308594 L 191.410156 178.613281 L 200.539062 179.945312 L 193.929688 186.417969 L 195.496094 195.546875 L 187.328125 191.238281 L 179.15625 195.546875 L 180.71875 186.417969 L 174.113281 179.945312 L 183.242188 178.613281 Z M 187.328125 170.308594 " fill-opacity="1" fill-rule="nonzero"/><path fill="#ffffff" d="M 187.265625 170.226562 L 191.351562 178.535156 L 200.480469 179.867188 L 193.871094 186.335938 L 195.429688 195.46875 L 187.265625 191.15625 L 179.097656 195.46875 L 180.660156 186.335938 L 174.050781 179.867188 L 183.179688 178.535156 Z M 187.265625 170.226562 " fill-opacity="1" fill-rule="nonzero"/><path fill="#ffffff" d="M 187.265625 170.226562 L 191.351562 178.535156 L 200.480469 179.867188 L 193.871094 186.335938 L 195.429688 195.46875 L 187.265625 191.15625 L 179.097656 195.46875 L 180.660156 186.335938 L 174.050781 179.867188 L 183.179688 178.535156 Z M 187.265625 170.226562 " fill-opacity="1" fill-rule="nonzero"/><path fill="#ffffff" d="M 187.265625 170.226562 L 191.351562 178.535156 L 200.480469 179.867188 L 193.871094 186.335938 L 195.429688 195.46875 L 187.265625 191.15625 L 179.097656 195.46875 L 180.660156 186.335938 L 174.050781 179.867188 L 183.179688 178.535156 Z M 187.265625 170.226562 " fill-opacity="1" fill-rule="nonzero"/></g><g fill="#ffffff" fill-opacity="1"><g transform="translate(52.832709, 293.166124)"><g><path d="M 33.109375 -12.132812 L 33.109375 -12.335938 L 17.558594 -12.335938 L 16.753906 -11.851562 C 23.503906 -11.652344 24.550781 -11.453125 24.550781 -10.003906 L 24.550781 -3.375 C 23.464844 -2.25 21.9375 -1.488281 19.609375 -1.488281 C 12.777344 -1.488281 7.792969 -8.476562 7.792969 -16.675781 C 7.792969 -24.1875 11.492188 -27.765625 16.3125 -27.765625 C 22.582031 -27.765625 25.636719 -22.257812 23.546875 -16.714844 L 23.664062 -16.675781 L 29.492188 -24.46875 C 27.644531 -26.71875 23.988281 -28.6875 18.722656 -28.6875 C 10.445312 -28.6875 1.808594 -23.625 1.808594 -13.984375 C 1.808594 -5.585938 8.679688 0.5625 16.191406 0.5625 C 19.769531 0.5625 22.539062 -0.761719 24.429688 -2.652344 L 24.027344 0 L 33.109375 0 L 33.109375 -0.199219 C 31.460938 -0.402344 30.054688 -0.84375 30.054688 -2.289062 L 30.054688 -10.003906 C 30.054688 -11.453125 31.460938 -11.933594 33.109375 -12.132812 Z M 33.109375 -12.132812 "/></g></g></g><g fill="#ffffff" fill-opacity="1"><g transform="translate(86.339975, 293.166124)"><g><path d="M 25.472656 -8.558594 C 22.179688 -3.175781 19.648438 -0.644531 14.464844 -0.644531 L 9.160156 -0.644531 L 9.160156 -13.742188 L 12.535156 -13.742188 C 17.519531 -13.742188 19.40625 -12.65625 20.371094 -9 L 20.371094 -19.164062 C 19.40625 -15.46875 17.519531 -14.382812 12.535156 -14.382812 L 9.160156 -14.382812 L 9.160156 -27.484375 L 14.222656 -27.484375 C 19.40625 -27.484375 20.972656 -25.472656 24.027344 -20.972656 L 24.1875 -21.054688 L 22.703125 -28.125 L 0.601562 -28.125 L 0.601562 -27.925781 C 2.25 -27.722656 3.65625 -27.28125 3.65625 -25.835938 L 3.65625 -3.09375 C 3.65625 -1.648438 2.25 -0.804688 0.601562 -0.199219 L 0.601562 0 L 21.898438 0 L 23.265625 0.882812 L 23.503906 0 L 25.636719 -8.476562 Z M 25.472656 -8.558594 "/></g></g></g><g fill="#ffffff" fill-opacity="1"><g transform="translate(112.575271, 293.166124)"><g/></g></g><g fill="#ffffff" fill-opacity="1"><g transform="translate(120.610579, 293.166124)"><g><path d="M 28.40625 -4.460938 L 28.125 -4.660156 C 26.398438 -2.53125 23.222656 -1.488281 20.289062 -1.488281 C 12.816406 -1.488281 7.792969 -8.476562 7.792969 -16.675781 C 7.792969 -24.1875 11.570312 -27.84375 16.472656 -27.84375 C 22.621094 -27.84375 25.152344 -22.257812 23.0625 -16.675781 L 23.183594 -16.632812 L 29.011719 -24.46875 C 27.160156 -26.71875 23.90625 -28.6875 18.722656 -28.6875 C 10.445312 -28.6875 1.808594 -23.625 1.808594 -13.984375 C 1.808594 -5.585938 8.519531 0.5625 17.558594 0.5625 C 23.144531 0.5625 26.679688 -1.726562 28.40625 -4.460938 Z M 28.40625 -4.460938 "/></g></g></g><g fill="#ffffff" fill-opacity="1"><g transform="translate(150.823361, 293.166124)"><g><path d="M 17.316406 -28.6875 C 8.558594 -28.6875 1.808594 -23.101562 1.808594 -14.0625 C 1.808594 -5.023438 8.558594 0.5625 17.316406 0.5625 C 26.035156 0.5625 32.785156 -5.023438 32.785156 -14.0625 C 32.785156 -23.101562 26.035156 -28.6875 17.316406 -28.6875 Z M 19.003906 -0.160156 C 12.335938 -0.160156 7.632812 -8.71875 7.632812 -16.753906 C 7.632812 -23.425781 10.769531 -27.964844 15.589844 -27.964844 C 22.257812 -27.964844 26.960938 -19.40625 26.960938 -11.410156 C 26.960938 -4.742188 23.828125 -0.160156 19.003906 -0.160156 Z M 19.003906 -0.160156 "/></g></g></g><g fill="#ffffff" fill-opacity="1"><g transform="translate(185.415373, 293.166124)"><g><path d="M 24.589844 -8.277344 C 20.972656 -3.457031 19.046875 -0.644531 12.253906 -0.644531 L 9.160156 -0.644531 L 9.160156 -25.835938 C 9.160156 -27.28125 10.566406 -27.722656 12.617188 -27.925781 L 12.617188 -28.125 L 0.601562 -28.125 L 0.601562 -27.925781 C 2.25 -27.722656 3.65625 -27.28125 3.65625 -25.835938 L 3.65625 -4.5 C 3.65625 -2.371094 2.25 -0.804688 0.601562 -0.199219 L 0.601562 0 L 21.054688 0 L 22.421875 0.882812 L 22.660156 0 L 24.75 -8.195312 Z M 24.589844 -8.277344 "/></g></g></g><g fill="#ffffff" fill-opacity="1"><g transform="translate(210.766781, 293.166124)"><g><path d="M 24.589844 -8.277344 C 20.972656 -3.457031 19.046875 -0.644531 12.253906 -0.644531 L 9.160156 -0.644531 L 9.160156 -25.835938 C 9.160156 -27.28125 10.566406 -27.722656 12.617188 -27.925781 L 12.617188 -28.125 L 0.601562 -28.125 L 0.601562 -27.925781 C 2.25 -27.722656 3.65625 -27.28125 3.65625 -25.835938 L 3.65625 -4.5 C 3.65625 -2.371094 2.25 -0.804688 0.601562 -0.199219 L 0.601562 0 L 21.054688 0 L 22.421875 0.882812 L 22.660156 0 L 24.75 -8.195312 Z M 24.589844 -8.277344 "/></g></g></g><g fill="#ffffff" fill-opacity="1"><g transform="translate(236.118188, 293.166124)"><g><path d="M 25.472656 -8.558594 C 22.179688 -3.175781 19.648438 -0.644531 14.464844 -0.644531 L 9.160156 -0.644531 L 9.160156 -13.742188 L 12.535156 -13.742188 C 17.519531 -13.742188 19.40625 -12.65625 20.371094 -9 L 20.371094 -19.164062 C 19.40625 -15.46875 17.519531 -14.382812 12.535156 -14.382812 L 9.160156 -14.382812 L 9.160156 -27.484375 L 14.222656 -27.484375 C 19.40625 -27.484375 20.972656 -25.472656 24.027344 -20.972656 L 24.1875 -21.054688 L 22.703125 -28.125 L 0.601562 -28.125 L 0.601562 -27.925781 C 2.25 -27.722656 3.65625 -27.28125 3.65625 -25.835938 L 3.65625 -3.09375 C 3.65625 -1.648438 2.25 -0.804688 0.601562 -0.199219 L 0.601562 0 L 21.898438 0 L 23.265625 0.882812 L 23.503906 0 L 25.636719 -8.476562 Z M 25.472656 -8.558594 "/></g></g></g><g fill="#ffffff" fill-opacity="1"><g transform="translate(262.353484, 293.166124)"><g><path d="M 33.109375 -12.132812 L 33.109375 -12.335938 L 17.558594 -12.335938 L 16.753906 -11.851562 C 23.503906 -11.652344 24.550781 -11.453125 24.550781 -10.003906 L 24.550781 -3.375 C 23.464844 -2.25 21.9375 -1.488281 19.609375 -1.488281 C 12.777344 -1.488281 7.792969 -8.476562 7.792969 -16.675781 C 7.792969 -24.1875 11.492188 -27.765625 16.3125 -27.765625 C 22.582031 -27.765625 25.636719 -22.257812 23.546875 -16.714844 L 23.664062 -16.675781 L 29.492188 -24.46875 C 27.644531 -26.71875 23.988281 -28.6875 18.722656 -28.6875 C 10.445312 -28.6875 1.808594 -23.625 1.808594 -13.984375 C 1.808594 -5.585938 8.679688 0.5625 16.191406 0.5625 C 19.769531 0.5625 22.539062 -0.761719 24.429688 -2.652344 L 24.027344 0 L 33.109375 0 L 33.109375 -0.199219 C 31.460938 -0.402344 30.054688 -0.84375 30.054688 -2.289062 L 30.054688 -10.003906 C 30.054688 -11.453125 31.460938 -11.933594 33.109375 -12.132812 Z M 33.109375 -12.132812 "/></g></g></g><g fill="#ffffff" fill-opacity="1"><g transform="translate(295.860749, 293.166124)"><g><path d="M 25.472656 -8.558594 C 22.179688 -3.175781 19.648438 -0.644531 14.464844 -0.644531 L 9.160156 -0.644531 L 9.160156 -13.742188 L 12.535156 -13.742188 C 17.519531 -13.742188 19.40625 -12.65625 20.371094 -9 L 20.371094 -19.164062 C 19.40625 -15.46875 17.519531 -14.382812 12.535156 -14.382812 L 9.160156 -14.382812 L 9.160156 -27.484375 L 14.222656 -27.484375 C 19.40625 -27.484375 20.972656 -25.472656 24.027344 -20.972656 L 24.1875 -21.054688 L 22.703125 -28.125 L 0.601562 -28.125 L 0.601562 -27.925781 C 2.25 -27.722656 3.65625 -27.28125 3.65625 -25.835938 L 3.65625 -3.09375 C 3.65625 -1.648438 2.25 -0.804688 0.601562 -0.199219 L 0.601562 0 L 21.898438 0 L 23.265625 0.882812 L 23.503906 0 L 25.636719 -8.476562 Z M 25.472656 -8.558594 "/></g></g></g><g fill="#ffffff" fill-opacity="1"><g transform="translate(79.633017, 326.774397)"><g><path d="M 15.808594 -13.996094 L 15.808594 -14.097656 L 9.988281 -14.097656 L 9.988281 -13.996094 C 10.816406 -13.898438 11.519531 -13.675781 11.519531 -12.949219 L 11.519531 -7.128906 L 4.59375 -7.128906 L 4.59375 -12.949219 C 4.59375 -13.675781 5.296875 -13.898438 6.121094 -13.996094 L 6.121094 -14.097656 L 0.300781 -14.097656 L 0.300781 -13.996094 C 1.128906 -13.898438 1.832031 -13.675781 1.832031 -12.949219 L 1.832031 -1.148438 C 1.832031 -0.421875 1.128906 -0.203125 0.300781 -0.101562 L 0.300781 0 L 6.121094 0 L 6.121094 -0.101562 C 5.296875 -0.203125 4.59375 -0.421875 4.59375 -1.148438 L 4.59375 -6.789062 L 11.519531 -6.789062 L 11.519531 -1.148438 C 11.519531 -0.421875 10.816406 -0.203125 9.988281 -0.101562 L 9.988281 0 L 15.808594 0 L 15.808594 -0.101562 C 14.984375 -0.203125 14.28125 -0.421875 14.28125 -1.148438 L 14.28125 -12.949219 C 14.28125 -13.675781 14.984375 -13.898438 15.808594 -13.996094 Z M 15.808594 -13.996094 "/></g></g></g><g fill="#ffffff" fill-opacity="1"><g transform="translate(95.737592, 326.774397)"><g><path d="M 0.300781 0 L 6.121094 0 L 6.121094 -0.101562 C 5.296875 -0.203125 4.59375 -0.421875 4.59375 -1.148438 L 4.59375 -12.949219 C 4.59375 -13.675781 5.296875 -13.898438 6.121094 -13.996094 L 6.121094 -14.097656 L 0.300781 -14.097656 L 0.300781 -13.996094 C 1.128906 -13.898438 1.832031 -13.675781 1.832031 -12.949219 L 1.832031 -1.148438 C 1.832031 -0.421875 1.128906 -0.203125 0.300781 -0.101562 Z M 0.300781 0 "/></g></g></g><g fill="#ffffff" fill-opacity="1"><g transform="translate(102.159289, 326.774397)"><g><path d="M 16.59375 -6.082031 L 16.59375 -6.183594 L 8.800781 -6.183594 L 8.398438 -5.941406 C 11.78125 -5.839844 12.304688 -5.738281 12.304688 -5.015625 L 12.304688 -1.691406 C 11.761719 -1.128906 10.996094 -0.746094 9.828125 -0.746094 C 6.40625 -0.746094 3.90625 -4.25 3.90625 -8.359375 C 3.90625 -12.125 5.761719 -13.917969 8.175781 -13.917969 C 11.320312 -13.917969 12.847656 -11.15625 11.800781 -8.378906 L 11.863281 -8.359375 L 14.78125 -12.265625 C 13.855469 -13.394531 12.023438 -14.378906 9.386719 -14.378906 C 5.238281 -14.378906 0.90625 -11.84375 0.90625 -7.007812 C 0.90625 -2.800781 4.351562 0.28125 8.117188 0.28125 C 9.910156 0.28125 11.296875 -0.382812 12.246094 -1.328125 L 12.042969 0 L 16.59375 0 L 16.59375 -0.101562 C 15.769531 -0.203125 15.066406 -0.421875 15.066406 -1.148438 L 15.066406 -5.015625 C 15.066406 -5.738281 15.769531 -5.980469 16.59375 -6.082031 Z M 16.59375 -6.082031 "/></g></g></g><g fill="#ffffff" fill-opacity="1"><g transform="translate(118.948313, 326.774397)"><g><path d="M 15.808594 -13.996094 L 15.808594 -14.097656 L 9.988281 -14.097656 L 9.988281 -13.996094 C 10.816406 -13.898438 11.519531 -13.675781 11.519531 -12.949219 L 11.519531 -7.128906 L 4.59375 -7.128906 L 4.59375 -12.949219 C 4.59375 -13.675781 5.296875 -13.898438 6.121094 -13.996094 L 6.121094 -14.097656 L 0.300781 -14.097656 L 0.300781 -13.996094 C 1.128906 -13.898438 1.832031 -13.675781 1.832031 -12.949219 L 1.832031 -1.148438 C 1.832031 -0.421875 1.128906 -0.203125 0.300781 -0.101562 L 0.300781 0 L 6.121094 0 L 6.121094 -0.101562 C 5.296875 -0.203125 4.59375 -0.421875 4.59375 -1.148438 L 4.59375 -6.789062 L 11.519531 -6.789062 L 11.519531 -1.148438 C 11.519531 -0.421875 10.816406 -0.203125 9.988281 -0.101562 L 9.988281 0 L 15.808594 0 L 15.808594 -0.101562 C 14.984375 -0.203125 14.28125 -0.421875 14.28125 -1.148438 L 14.28125 -12.949219 C 14.28125 -13.675781 14.984375 -13.898438 15.808594 -13.996094 Z M 15.808594 -13.996094 "/></g></g></g><g fill="#ffffff" fill-opacity="1"><g transform="translate(135.052888, 326.774397)"><g><path d="M 12.769531 -4.289062 C 11.117188 -1.589844 9.847656 -0.320312 7.25 -0.320312 L 4.59375 -0.320312 L 4.59375 -6.886719 L 6.285156 -6.886719 C 8.78125 -6.886719 9.726562 -6.34375 10.210938 -4.511719 L 10.210938 -9.605469 C 9.726562 -7.753906 8.78125 -7.210938 6.285156 -7.210938 L 4.59375 -7.210938 L 4.59375 -13.777344 L 7.128906 -13.777344 C 9.726562 -13.777344 10.511719 -12.769531 12.042969 -10.511719 L 12.125 -10.554688 L 11.378906 -14.097656 L 0.300781 -14.097656 L 0.300781 -13.996094 C 1.128906 -13.898438 1.832031 -13.675781 1.832031 -12.949219 L 1.832031 -1.550781 C 1.832031 -0.824219 1.128906 -0.402344 0.300781 -0.101562 L 0.300781 0 L 10.976562 0 L 11.660156 0.441406 L 11.78125 0 L 12.847656 -4.25 Z M 12.769531 -4.289062 "/></g></g></g><g fill="#ffffff" fill-opacity="1"><g transform="translate(148.198248, 326.774397)"><g><path d="M 12.085938 -2.660156 L 9.648438 -6 C 12.085938 -6.667969 13.574219 -8.277344 13.574219 -10.292969 C 13.574219 -12.910156 11.5 -14.097656 7.894531 -14.097656 L 0.300781 -14.097656 L 0.300781 -13.996094 C 1.128906 -13.898438 1.832031 -13.675781 1.832031 -12.949219 L 1.832031 -1.148438 C 1.832031 -0.421875 1.128906 -0.203125 0.300781 -0.101562 L 0.300781 0 L 6.121094 0 L 6.121094 -0.101562 C 5.296875 -0.203125 4.59375 -0.421875 4.59375 -1.148438 L 4.59375 -5.679688 L 6.949219 -5.679688 L 10.734375 -0.34375 L 10.734375 0 L 15.085938 0 L 15.085938 -0.0585938 C 14.039062 -0.585938 13.273438 -1.027344 12.085938 -2.660156 Z M 4.59375 -13.734375 L 6.808594 -13.734375 C 10.25 -13.734375 10.855469 -11.601562 10.855469 -9.464844 C 10.855469 -6.667969 9.828125 -6 7.792969 -6 C 6.746094 -6 5.640625 -6.164062 4.59375 -6.464844 Z M 4.59375 -13.734375 "/></g></g></g><g fill="#ffffff" fill-opacity="1"><g transform="translate(163.074857, 326.774397)"><g/></g></g><g fill="#ffffff" fill-opacity="1"><g transform="translate(167.101005, 326.774397)"><g><path d="M 12.769531 -4.289062 C 11.117188 -1.589844 9.847656 -0.320312 7.25 -0.320312 L 4.59375 -0.320312 L 4.59375 -6.886719 L 6.285156 -6.886719 C 8.78125 -6.886719 9.726562 -6.34375 10.210938 -4.511719 L 10.210938 -9.605469 C 9.726562 -7.753906 8.78125 -7.210938 6.285156 -7.210938 L 4.59375 -7.210938 L 4.59375 -13.777344 L 7.128906 -13.777344 C 9.726562 -13.777344 10.511719 -12.769531 12.042969 -10.511719 L 12.125 -10.554688 L 11.378906 -14.097656 L 0.300781 -14.097656 L 0.300781 -13.996094 C 1.128906 -13.898438 1.832031 -13.675781 1.832031 -12.949219 L 1.832031 -1.550781 C 1.832031 -0.824219 1.128906 -0.402344 0.300781 -0.101562 L 0.300781 0 L 10.976562 0 L 11.660156 0.441406 L 11.78125 0 L 12.847656 -4.25 Z M 12.769531 -4.289062 "/></g></g></g><g fill="#ffffff" fill-opacity="1"><g transform="translate(180.246365, 326.774397)"><g><path d="M 6.746094 -14.097656 L 0.300781 -14.097656 L 0.300781 -13.996094 C 1.128906 -13.898438 1.832031 -13.675781 1.832031 -12.949219 L 1.832031 -1.550781 C 1.832031 -0.824219 1.128906 -0.402344 0.300781 -0.101562 L 0.300781 0 L 6.34375 0 C 11.15625 0 14.722656 -2.636719 14.722656 -7.410156 C 14.722656 -11.640625 11.964844 -14.097656 6.746094 -14.097656 Z M 7.371094 -0.363281 C 6.304688 -0.363281 5.378906 -0.585938 4.59375 -0.925781 L 4.59375 -13.777344 L 5.941406 -13.777344 C 10.007812 -13.777344 11.800781 -10.734375 11.800781 -6.285156 C 11.800781 -1.730469 10.03125 -0.363281 7.371094 -0.363281 Z M 7.371094 -0.363281 "/></g></g></g><g fill="#ffffff" fill-opacity="1"><g transform="translate(195.767157, 326.774397)"><g><path d="M 7.671875 0.28125 C 10.773438 0.28125 13.089844 -1.691406 13.089844 -5.378906 L 13.089844 -11.296875 C 13.089844 -13.695312 13.796875 -13.917969 14.621094 -14.015625 L 14.621094 -14.117188 L 10.9375 -14.117188 L 10.9375 -14.015625 C 11.964844 -13.917969 12.667969 -13.292969 12.667969 -10.894531 L 12.667969 -5.136719 C 12.667969 -1.773438 10.25 -0.441406 8.378906 -0.441406 C 6.828125 -0.441406 4.59375 -1.347656 4.59375 -5.09375 L 4.59375 -12.949219 C 4.59375 -13.675781 5.296875 -13.898438 6.121094 -13.996094 L 6.121094 -14.097656 L 0.300781 -14.097656 L 0.300781 -13.996094 C 1.128906 -13.898438 1.832031 -13.675781 1.832031 -12.949219 L 1.832031 -5.335938 C 1.832031 -0.703125 5.476562 0.28125 7.671875 0.28125 Z M 7.671875 0.28125 "/></g></g></g><g fill="#ffffff" fill-opacity="1"><g transform="translate(210.684017, 326.774397)"><g><path d="M 14.238281 -2.234375 L 14.097656 -2.335938 C 13.230469 -1.269531 11.640625 -0.746094 10.171875 -0.746094 C 6.425781 -0.746094 3.90625 -4.25 3.90625 -8.359375 C 3.90625 -12.125 5.800781 -13.957031 8.257812 -13.957031 C 11.339844 -13.957031 12.609375 -11.15625 11.558594 -8.359375 L 11.621094 -8.339844 L 14.542969 -12.265625 C 13.613281 -13.394531 11.984375 -14.378906 9.386719 -14.378906 C 5.238281 -14.378906 0.90625 -11.84375 0.90625 -7.007812 C 0.90625 -2.800781 4.269531 0.28125 8.800781 0.28125 C 11.601562 0.28125 13.375 -0.867188 14.238281 -2.234375 Z M 14.238281 -2.234375 "/></g></g></g><g fill="#ffffff" fill-opacity="1"><g transform="translate(225.822325, 326.774397)"><g><path d="M 14.320312 -2.539062 L 10.070312 -13.273438 C 9.648438 -14.320312 9.605469 -14.5625 9.605469 -14.683594 L 7.230469 -13.414062 L 6.847656 -13.191406 L 6.886719 -12.609375 L 2.476562 -2.4375 C 1.730469 -0.703125 1.25 -0.320312 0.402344 -0.0820312 L 0.402344 0 L 4.109375 0 L 4.109375 -0.0820312 C 2.980469 -0.320312 2.175781 -0.683594 2.921875 -2.417969 L 3.363281 -3.425781 L 11.058594 -3.425781 L 11.460938 -2.417969 C 12.164062 -0.644531 11.359375 -0.203125 9.949219 -0.0820312 L 9.949219 0 L 16.3125 0 L 16.3125 -0.0820312 C 15.40625 -0.203125 15.042969 -0.683594 14.320312 -2.539062 Z M 3.503906 -3.785156 L 7.351562 -12.667969 L 10.914062 -3.785156 Z M 3.503906 -3.785156 "/></g></g></g><g fill="#ffffff" fill-opacity="1"><g transform="translate(242.530817, 326.774397)"><g><path d="M 14.058594 -14.097656 L 0.867188 -14.097656 L 0.203125 -9.949219 L 0.28125 -9.949219 C 1.429688 -12.667969 2.636719 -13.777344 5.640625 -13.796875 L 5.640625 -1.347656 C 5.640625 -0.421875 4.933594 -0.203125 3.707031 -0.101562 L 3.707031 0 L 10.332031 0 L 10.332031 -0.101562 C 9.101562 -0.203125 8.398438 -0.421875 8.398438 -1.347656 L 8.398438 -13.796875 L 9.164062 -13.796875 C 11.417969 -13.796875 12.949219 -12.6875 12.6875 -9.949219 L 12.769531 -9.949219 Z M 14.058594 -14.097656 "/></g></g></g><g fill="#ffffff" fill-opacity="1"><g transform="translate(256.78336, 326.774397)"><g><path d="M 0.300781 0 L 6.121094 0 L 6.121094 -0.101562 C 5.296875 -0.203125 4.59375 -0.421875 4.59375 -1.148438 L 4.59375 -12.949219 C 4.59375 -13.675781 5.296875 -13.898438 6.121094 -13.996094 L 6.121094 -14.097656 L 0.300781 -14.097656 L 0.300781 -13.996094 C 1.128906 -13.898438 1.832031 -13.675781 1.832031 -12.949219 L 1.832031 -1.148438 C 1.832031 -0.421875 1.128906 -0.203125 0.300781 -0.101562 Z M 0.300781 0 "/></g></g></g><g fill="#ffffff" fill-opacity="1"><g transform="translate(263.205057, 326.774397)"><g><path d="M 8.679688 -14.378906 C 4.289062 -14.378906 0.90625 -11.582031 0.90625 -7.050781 C 0.90625 -2.515625 4.289062 0.28125 8.679688 0.28125 C 13.050781 0.28125 16.433594 -2.515625 16.433594 -7.050781 C 16.433594 -11.582031 13.050781 -14.378906 8.679688 -14.378906 Z M 9.527344 -0.0820312 C 6.183594 -0.0820312 3.828125 -4.371094 3.828125 -8.398438 C 3.828125 -11.742188 5.398438 -14.015625 7.8125 -14.015625 C 11.15625 -14.015625 13.515625 -9.726562 13.515625 -5.71875 C 13.515625 -2.375 11.941406 -0.0820312 9.527344 -0.0820312 Z M 9.527344 -0.0820312 "/></g></g></g><g fill="#ffffff" fill-opacity="1"><g transform="translate(280.537598, 326.774397)"><g><path d="M 11.058594 -14.097656 L 11.058594 -13.996094 C 11.882812 -13.898438 12.585938 -13.273438 12.585938 -10.535156 L 12.585938 -4.128906 L 4.855469 -13.253906 C 4.570312 -13.675781 4.371094 -13.898438 4.25 -14.097656 L 0.203125 -14.097656 C 0.847656 -13.777344 1.347656 -13.3125 2.035156 -12.507812 L 2.035156 -3.160156 C 2.035156 -0.421875 1.328125 -0.203125 0.503906 -0.101562 L 0.503906 0 L 3.96875 0 L 3.96875 -0.101562 C 3.140625 -0.203125 2.4375 -0.824219 2.4375 -3.566406 L 2.4375 -12.023438 L 13.03125 0.5625 L 13.070312 0.523438 C 13.03125 -0.203125 12.96875 -1.25 12.96875 -3.34375 L 12.96875 -10.9375 C 12.96875 -13.675781 13.675781 -13.898438 14.5 -13.996094 L 14.5 -14.097656 Z M 11.058594 -14.097656 "/></g></g></g></svg>