<svg xmlns="http://www.w3.org/2000/svg" xmlns:xlink="http://www.w3.org/1999/xlink" width="500" zoomAndPan="magnify" viewBox="0 0 375 374.999991" height="500" preserveAspectRatio="xMidYMid meet" version="1.0"><defs><g/><clipPath id="2af555330a"><path d="M 163 74.128906 L 212 74.128906 L 212 95 L 163 95 Z M 163 74.128906 " clip-rule="nonzero"/></clipPath><clipPath id="aa7c8e8e59"><path d="M 117.925781 165 L 140 165 L 140 186 L 117.925781 186 Z M 117.925781 165 " clip-rule="nonzero"/></clipPath><clipPath id="e5b65d0bbf"><path d="M 179 217 L 196 217 L 196 240.628906 L 179 240.628906 Z M 179 217 " clip-rule="nonzero"/></clipPath><clipPath id="2f977740dc"><path d="M 235 165 L 257.425781 165 L 257.425781 186 L 235 186 Z M 235 165 " clip-rule="nonzero"/></clipPath><clipPath id="aad46dfff4"><path d="M 153.914062 119.917969 L 216 119.917969 L 216 160 L 153.914062 160 Z M 153.914062 119.917969 " clip-rule="nonzero"/></clipPath><clipPath id="c707aa44da"><path d="M 184 131 L 221.414062 131 L 221.414062 159 L 184 159 Z M 184 131 " clip-rule="nonzero"/></clipPath><clipPath id="2ce758658c"><path d="M 178.742188 185 L 195.992188 185 L 195.992188 201.496094 L 178.742188 201.496094 Z M 178.742188 185 " clip-rule="nonzero"/></clipPath></defs><path fill="#ffffff" d="M 214.425781 107.109375 L 160.574219 107.109375 C 160.574219 107.109375 158.621094 119.597656 144.183594 121.546875 L 144.183594 162.132812 C 144.183594 196.6875 187.5 216.589844 187.5 216.589844 C 187.5 216.589844 230.8125 196.6875 230.8125 162.132812 L 230.8125 121.546875 C 216.375 119.597656 214.425781 107.109375 214.425781 107.109375 Z M 226.953125 162.128906 C 226.953125 190.203125 195.101562 208.347656 187.496094 212.277344 C 184.152344 210.550781 176.128906 206.085938 168.21875 199.269531 C 162.277344 194.148438 157.5625 188.722656 154.207031 183.136719 C 150.121094 176.335938 148.046875 169.269531 148.046875 162.128906 L 148.046875 124.71875 C 154.832031 122.941406 158.789062 118.996094 160.984375 115.769531 C 162.167969 114.03125 162.957031 112.351562 163.472656 110.972656 L 211.523438 110.972656 C 212.042969 112.351562 212.828125 114.035156 214.011719 115.769531 C 216.207031 118.992188 220.164062 122.941406 226.953125 124.71875 Z M 226.953125 162.128906 " fill-opacity="1" fill-rule="nonzero"/><g clip-path="url(#2af555330a)"><path fill="#ffffff" d="M 170.09375 94.859375 L 204.902344 94.859375 C 204.902344 94.859375 209.652344 91.71875 211.027344 84.648438 C 212.125 79.003906 208.550781 74.148438 208.550781 74.148438 L 208.070312 78.363281 L 209.925781 81.957031 C 209.925781 81.957031 208.996094 80.789062 207.722656 80.828125 C 207.722656 80.828125 207.828125 82.683594 209.203125 83.398438 C 209.203125 83.398438 207.003906 83.148438 206.453125 84.792969 C 205.902344 86.433594 207.378906 86.46875 207.378906 86.46875 C 207.378906 86.46875 206.519531 85.398438 207.449219 84.863281 C 208.378906 84.324219 208.863281 85.289062 208.070312 86.96875 C 207.277344 88.648438 205.796875 90.292969 204.628906 90.363281 C 203.964844 90.402344 203.621094 89.820312 203.449219 89.308594 C 204.003906 89.210938 204.421875 88.710938 204.421875 88.113281 C 204.421875 87.441406 203.898438 86.898438 203.253906 86.898438 C 202.609375 86.898438 202.082031 87.441406 202.082031 88.113281 C 202.082031 88.714844 202.507812 89.210938 203.0625 89.308594 C 202.839844 89.773438 202.410156 90.300781 201.601562 90.363281 C 200.125 90.46875 199.261719 87.253906 199.46875 86.324219 C 199.675781 85.398438 200.984375 85.324219 201.050781 86.148438 C 201.050781 86.148438 201.535156 85.148438 200.671875 84.789062 C 200.175781 84.582031 199.78125 84.710938 199.539062 84.855469 C 199.9375 84.503906 200.652344 83.71875 200.84375 82.503906 C 200.84375 82.503906 199.539062 82.574219 198.851562 83.898438 L 199.605469 81.253906 L 198.09375 78.253906 L 196.578125 81.253906 L 197.335938 83.898438 C 196.648438 82.578125 195.339844 82.503906 195.339844 82.503906 C 195.535156 83.71875 196.25 84.503906 196.648438 84.859375 C 196.402344 84.714844 196.011719 84.585938 195.511719 84.792969 C 194.652344 85.148438 195.132812 86.148438 195.132812 86.148438 C 195.203125 85.328125 196.511719 85.398438 196.71875 86.328125 C 196.921875 87.257812 196.0625 90.46875 194.585938 90.363281 C 193.769531 90.304688 193.339844 89.765625 193.121094 89.296875 C 193.644531 89.175781 194.035156 88.691406 194.035156 88.113281 C 194.035156 87.441406 193.511719 86.898438 192.863281 86.898438 C 192.21875 86.898438 191.695312 87.441406 191.695312 88.113281 C 191.695312 88.703125 192.097656 89.191406 192.632812 89.304688 C 192.386719 89.765625 191.9375 90.289062 191.144531 90.328125 C 189.699219 90.398438 188.289062 85.183594 188.941406 83.46875 C 189.597656 81.757812 191.597656 83.007812 190.839844 84.363281 C 190.839844 84.363281 191.796875 84.257812 191.867188 82.863281 C 191.925781 81.652344 190.429688 80.902344 189.382812 81.425781 C 189.742188 81.113281 190.242188 80.570312 190.523438 79.792969 C 190.523438 79.792969 189.285156 79.503906 188.324219 80.683594 L 189.492188 77.503906 L 187.5 74.148438 L 185.503906 77.503906 L 186.671875 80.683594 C 185.710938 79.503906 184.472656 79.792969 184.472656 79.792969 C 184.753906 80.570312 185.253906 81.113281 185.613281 81.425781 C 184.566406 80.902344 183.070312 81.652344 183.128906 82.863281 C 183.199219 84.257812 184.15625 84.363281 184.15625 84.363281 C 183.398438 83.007812 185.398438 81.757812 186.054688 83.46875 C 186.707031 85.183594 185.296875 90.398438 183.851562 90.328125 C 183.058594 90.289062 182.609375 89.765625 182.363281 89.304688 C 182.898438 89.191406 183.300781 88.703125 183.300781 88.113281 C 183.300781 87.441406 182.777344 86.898438 182.132812 86.898438 C 181.484375 86.898438 180.960938 87.441406 180.960938 88.113281 C 180.960938 88.691406 181.355469 89.175781 181.875 89.296875 C 181.65625 89.765625 181.226562 90.304688 180.414062 90.363281 C 178.933594 90.46875 178.074219 87.257812 178.28125 86.328125 C 178.488281 85.398438 179.792969 85.328125 179.863281 86.148438 C 179.863281 86.148438 180.34375 85.148438 179.484375 84.792969 C 178.984375 84.585938 178.59375 84.714844 178.347656 84.859375 C 178.75 84.503906 179.460938 83.71875 179.65625 82.503906 C 179.65625 82.503906 178.347656 82.578125 177.660156 83.898438 L 178.417969 81.253906 L 176.902344 78.253906 L 175.390625 81.253906 L 176.148438 83.898438 C 175.460938 82.578125 174.152344 82.503906 174.152344 82.503906 C 174.347656 83.71875 175.058594 84.503906 175.457031 84.859375 C 175.214844 84.714844 174.820312 84.585938 174.324219 84.792969 C 173.464844 85.148438 173.945312 86.148438 173.945312 86.148438 C 174.015625 85.328125 175.320312 85.398438 175.527344 86.328125 C 175.734375 87.257812 174.875 90.46875 173.394531 90.363281 C 172.585938 90.304688 172.160156 89.777344 171.9375 89.308594 C 172.492188 89.214844 172.914062 88.714844 172.914062 88.113281 C 172.914062 87.441406 172.390625 86.898438 171.746094 86.898438 C 171.097656 86.898438 170.574219 87.441406 170.574219 88.113281 C 170.574219 88.714844 170.996094 89.210938 171.546875 89.308594 C 171.375 89.820312 171.035156 90.40625 170.367188 90.363281 C 169.199219 90.292969 167.71875 88.648438 166.925781 86.972656 C 166.132812 85.292969 166.621094 84.328125 167.546875 84.863281 C 168.476562 85.398438 167.617188 86.472656 167.617188 86.472656 C 167.617188 86.472656 169.097656 86.4375 168.546875 84.792969 C 167.996094 83.148438 165.792969 83.398438 165.792969 83.398438 C 167.171875 82.6875 167.273438 80.828125 167.273438 80.828125 C 166 80.792969 165.070312 81.957031 165.070312 81.957031 L 166.925781 78.363281 L 166.449219 74.148438 C 166.449219 74.148438 162.871094 79.007812 163.972656 84.648438 C 165.347656 91.71875 170.09375 94.859375 170.09375 94.859375 Z M 198.058594 88.289062 C 198.058594 88.289062 199.453125 90.042969 199.304688 90.90625 C 199.15625 91.765625 198.234375 91.613281 198.058594 90.78125 C 197.882812 91.613281 196.960938 91.765625 196.816406 90.90625 C 196.667969 90.042969 198.058594 88.289062 198.058594 88.289062 Z M 187.5 88.113281 C 187.5 88.113281 188.890625 89.867188 188.742188 90.726562 C 188.59375 91.589844 187.675781 91.433594 187.5 90.605469 C 187.320312 91.433594 186.402344 91.589844 186.253906 90.726562 C 186.105469 89.867188 187.5 88.113281 187.5 88.113281 Z M 176.9375 88.289062 C 176.9375 88.289062 178.332031 90.042969 178.183594 90.90625 C 178.035156 91.765625 177.117188 91.613281 176.9375 90.78125 C 176.761719 91.613281 175.84375 91.765625 175.695312 90.90625 C 175.546875 90.042969 176.9375 88.289062 176.9375 88.289062 Z M 176.9375 88.289062 " fill-opacity="1" fill-rule="nonzero"/></g><path fill="#ffffff" d="M 205.109375 97.078125 C 205.5 97.078125 205.820312 96.757812 205.820312 96.367188 C 205.820312 95.976562 205.5 95.65625 205.109375 95.65625 L 169.886719 95.65625 C 169.496094 95.65625 169.175781 95.976562 169.175781 96.367188 C 169.175781 96.757812 169.496094 97.078125 169.886719 97.078125 Z M 205.109375 97.078125 " fill-opacity="1" fill-rule="nonzero"/><path fill="#ffffff" d="M 168.898438 103.53125 L 206.097656 103.53125 C 206.097656 103.53125 206.742188 100.152344 205.097656 97.875 L 169.898438 97.875 C 168.257812 100.152344 168.898438 103.53125 168.898438 103.53125 Z M 198.042969 100.414062 C 198.296875 100.414062 198.503906 100.621094 198.503906 100.875 C 198.503906 101.128906 198.296875 101.335938 198.042969 101.335938 C 197.789062 101.335938 197.582031 101.128906 197.582031 100.875 C 197.582031 100.621094 197.789062 100.414062 198.042969 100.414062 Z M 196.546875 100.25 C 196.890625 100.25 197.171875 100.53125 197.171875 100.875 C 197.171875 101.21875 196.890625 101.5 196.546875 101.5 C 196.199219 101.5 195.921875 101.21875 195.921875 100.875 C 195.921875 100.53125 196.199219 100.25 196.546875 100.25 Z M 194.753906 100.078125 C 195.191406 100.078125 195.546875 100.433594 195.546875 100.875 C 195.546875 101.3125 195.191406 101.667969 194.753906 101.667969 C 194.3125 101.667969 193.957031 101.3125 193.957031 100.875 C 193.957031 100.433594 194.3125 100.078125 194.753906 100.078125 Z M 190.699219 100.875 C 191.234375 100.511719 191.6875 99.792969 191.304688 99.476562 C 190.917969 99.164062 190.5625 99.617188 190.5625 99.617188 C 190.453125 98.984375 191.277344 98.542969 191.742188 99.09375 C 192.210938 99.644531 191.714844 100.5625 191.714844 100.5625 L 192.457031 100.246094 L 193.636719 100.875 L 192.457031 101.5 L 191.714844 101.1875 C 191.714844 101.1875 192.210938 102.105469 191.742188 102.65625 C 191.277344 103.203125 190.453125 102.765625 190.5625 102.132812 C 190.5625 102.132812 190.917969 102.585938 191.304688 102.269531 C 191.6875 101.953125 191.234375 101.238281 190.699219 100.875 Z M 189.300781 99.738281 C 189.566406 99.738281 189.78125 99.953125 189.78125 100.21875 C 189.78125 100.484375 189.566406 100.703125 189.300781 100.703125 C 189.035156 100.703125 188.820312 100.484375 188.820312 100.21875 C 188.820312 99.953125 189.035156 99.738281 189.300781 99.738281 Z M 185.695312 99.738281 C 185.964844 99.738281 186.179688 99.953125 186.179688 100.21875 C 186.179688 100.484375 185.964844 100.703125 185.695312 100.703125 C 185.429688 100.703125 185.214844 100.484375 185.214844 100.21875 C 185.214844 99.953125 185.429688 99.738281 185.695312 99.738281 Z M 185.183594 101.328125 C 185.898438 100.722656 187.089844 101.363281 187.089844 101.363281 L 186.683594 100.398438 L 187.496094 98.863281 L 188.3125 100.398438 L 187.90625 101.363281 C 187.90625 101.363281 189.097656 100.71875 189.8125 101.328125 C 190.527344 101.933594 189.953125 103.007812 189.132812 102.863281 C 189.132812 102.863281 189.722656 102.398438 189.3125 101.898438 C 188.902344 101.398438 187.96875 101.988281 187.496094 102.683594 C 187.027344 101.988281 186.09375 101.398438 185.679688 101.898438 C 185.269531 102.398438 185.859375 102.863281 185.859375 102.863281 C 185.039062 103.007812 184.46875 101.933594 185.183594 101.328125 Z M 182.539062 100.246094 L 183.28125 100.5625 C 183.28125 100.5625 182.789062 99.644531 183.253906 99.09375 C 183.722656 98.546875 184.546875 98.984375 184.4375 99.617188 C 184.4375 99.617188 184.078125 99.164062 183.695312 99.480469 C 183.308594 99.796875 183.761719 100.511719 184.296875 100.875 C 183.761719 101.238281 183.308594 101.953125 183.695312 102.269531 C 184.078125 102.585938 184.4375 102.132812 184.4375 102.132812 C 184.546875 102.765625 183.722656 103.203125 183.253906 102.65625 C 182.789062 102.105469 183.28125 101.1875 183.28125 101.1875 L 182.539062 101.503906 L 181.359375 100.875 Z M 180.246094 100.078125 C 180.683594 100.078125 181.039062 100.433594 181.039062 100.875 C 181.039062 101.3125 180.683594 101.667969 180.246094 101.667969 C 179.804688 101.667969 179.449219 101.3125 179.449219 100.875 C 179.449219 100.433594 179.804688 100.078125 180.246094 100.078125 Z M 178.449219 100.25 C 178.796875 100.25 179.074219 100.53125 179.074219 100.875 C 179.074219 101.21875 178.796875 101.5 178.449219 101.5 C 178.105469 101.5 177.824219 101.21875 177.824219 100.875 C 177.828125 100.53125 178.105469 100.25 178.449219 100.25 Z M 176.957031 100.414062 C 177.210938 100.414062 177.414062 100.621094 177.414062 100.875 C 177.414062 101.128906 177.210938 101.335938 176.957031 101.335938 C 176.703125 101.335938 176.496094 101.128906 176.496094 100.875 C 176.496094 100.621094 176.699219 100.414062 176.957031 100.414062 Z M 176.957031 100.414062 " fill-opacity="1" fill-rule="nonzero"/><path fill="#ffffff" d="M 168.320312 104.648438 C 168.320312 104.925781 168.542969 105.148438 168.820312 105.148438 L 206.179688 105.148438 C 206.453125 105.148438 206.675781 104.925781 206.675781 104.648438 C 206.675781 104.375 206.453125 104.148438 206.179688 104.148438 L 168.820312 104.148438 C 168.542969 104.148438 168.320312 104.375 168.320312 104.648438 Z M 168.320312 104.648438 " fill-opacity="1" fill-rule="nonzero"/><path fill="#ffffff" d="M 182.375 215.960938 C 179.679688 216.101562 177.378906 214.191406 176.367188 214.640625 C 175.355469 215.089844 176.027344 215.960938 176.027344 215.960938 C 175.410156 215.992188 173.667969 214.976562 172.828125 215.199219 C 171.984375 215.425781 172.378906 216.605469 172.378906 216.605469 C 172.378906 216.605469 170.132812 214.640625 169.007812 215.257812 C 167.882812 215.875 169.007812 216.871094 169.007812 216.871094 C 167.042969 216.910156 164.347656 213.292969 166.144531 210.875 C 167.941406 208.460938 170.582031 210.875 169.683594 211.773438 C 168.785156 212.671875 168.222656 213.796875 170.132812 214.078125 C 172.039062 214.359375 173.21875 210.761719 171.761719 208.851562 C 170.300781 206.945312 167.546875 207.675781 167.546875 207.675781 C 168.277344 207.503906 168.503906 206.046875 166.875 205.988281 C 165.246094 205.933594 163.785156 207.898438 163.785156 207.898438 C 164.121094 206.886719 162.941406 205.539062 161.761719 207.058594 C 160.582031 208.574219 162.097656 211.886719 162.097656 211.886719 C 159.742188 209.078125 157.664062 209.863281 156.761719 210.820312 C 155.863281 211.773438 154.125 210.820312 154.125 210.820312 C 155.191406 213.402344 156.988281 213.851562 158.730469 214.019531 C 160.472656 214.191406 161.96875 215.613281 161.96875 215.613281 C 159.496094 214.488281 157.324219 216.871094 157.324219 216.871094 C 160.621094 217.003906 160.019531 217.707031 165.9375 219.507812 C 171.855469 221.304688 182.375 215.960938 182.375 215.960938 Z M 182.375 215.960938 " fill-opacity="1" fill-rule="nonzero"/><path fill="#ffffff" d="M 177.734375 219.476562 C 175.710938 222.890625 173.25 222.050781 173.25 222.050781 C 175.691406 221.789062 177.40625 218.753906 177.40625 218.753906 C 174.964844 221.484375 168.566406 221.128906 168.566406 221.128906 C 170.347656 224.558594 173.84375 223.4375 173.84375 223.4375 C 172.234375 225.097656 173.117188 227 173.117188 227 C 174.765625 226.40625 175.558594 224.097656 175.558594 224.097656 C 175.746094 227.082031 180.042969 227.460938 180.042969 227.460938 C 177.273438 224.425781 177.734375 219.476562 177.734375 219.476562 Z M 177.734375 219.476562 " fill-opacity="1" fill-rule="nonzero"/><path fill="#ffffff" d="M 164.386719 205.988281 C 165.570312 202.125 158.917969 198.800781 157.46875 199.015625 C 156.023438 199.230469 156.613281 200.355469 156.613281 200.355469 C 156.613281 200.355469 154.949219 197.945312 153.769531 198.15625 C 152.589844 198.371094 153.179688 199.5 153.179688 199.5 C 153.179688 199.5 151.195312 196.925781 150.121094 197.703125 C 149.050781 198.480469 150.015625 199.390625 150.015625 199.390625 C 145.832031 198.746094 145.132812 193.8125 147.066406 192.367188 C 148.996094 190.917969 151.035156 192.152344 151.035156 192.152344 C 151.035156 192.152344 149.480469 191.722656 149.691406 193.761719 C 149.90625 195.800781 153.339844 195.585938 153.609375 193.386719 C 153.875 191.1875 152.535156 189.46875 149.746094 189.417969 C 146.957031 189.363281 142.34375 192.042969 144.117188 197.515625 C 145.886719 202.984375 153.234375 203.09375 158.863281 203.199219 C 164.496094 203.308594 164.386719 205.988281 164.386719 205.988281 Z M 164.386719 205.988281 " fill-opacity="1" fill-rule="nonzero"/><path fill="#ffffff" d="M 153.332031 208.457031 C 153.332031 208.457031 153.277344 207.167969 155.238281 205.988281 C 157.195312 204.808594 158.160156 206.898438 157.140625 207.757812 C 156.121094 208.617188 155.746094 207.757812 155.746094 207.757812 C 155.746094 207.757812 155.480469 209.097656 156.875 209.097656 C 158.265625 209.097656 158.855469 208.132812 159.769531 206.632812 C 160.679688 205.128906 162.398438 204.863281 163.523438 205.667969 C 163.679688 205.777344 162.613281 202.984375 156.550781 204.113281 C 150.492188 205.238281 146.949219 202.558594 146.949219 202.558594 C 146.949219 202.558594 147.914062 203.523438 148.078125 204.433594 C 148.238281 205.347656 150.113281 205.398438 150.113281 205.398438 C 150.113281 205.398438 148.773438 205.773438 148.613281 206.847656 C 148.453125 207.921875 147.914062 208.242188 147.914062 208.242188 C 147.914062 208.242188 150.597656 208.984375 152.152344 206.6875 C 152.152344 206.6875 150.597656 206.738281 150.007812 207.382812 C 150.007812 207.382812 151.242188 205.933594 152.902344 205.988281 C 152.902344 205.988281 151.882812 207.34375 152.207031 208.355469 C 152.527344 209.367188 152.101562 210.011719 152.101562 210.011719 C 152.101562 210.011719 154.78125 209.207031 155.238281 206.523438 C 155.238281 206.523438 153.90625 207.179688 153.332031 208.457031 Z M 153.332031 208.457031 " fill-opacity="1" fill-rule="nonzero"/><path fill="#ffffff" d="M 150.402344 186.863281 C 150.402344 186.863281 142.4375 180.265625 142.921875 176.082031 C 143.402344 171.898438 143.082031 167.152344 139.300781 167.554688 C 135.519531 167.957031 136.882812 171.015625 136.882812 171.015625 C 136.554688 169.246094 139.621094 168.84375 139.78125 171.09375 C 139.945312 173.347656 137.046875 175.117188 135.117188 172.945312 C 133.183594 170.773438 133.910156 166.832031 132.703125 166.429688 C 131.496094 166.027344 130.851562 167.234375 130.851562 167.234375 C 130.050781 164.820312 131.738281 160.878906 130.371094 160.234375 C 129.003906 159.589844 128.277344 161.199219 128.277344 161.199219 C 128.519531 158.625 131.578125 157.417969 131.09375 155.726562 C 130.609375 154.039062 128.84375 155.003906 128.84375 155.003906 C 131.09375 150.980469 138.335938 152.589844 138.015625 155.808594 C 137.691406 159.027344 134.3125 156.128906 133.832031 159.347656 C 133.347656 162.566406 142.195312 164.820312 142.195312 155.808594 C 142.195312 146.796875 122.890625 141.96875 123.371094 160.472656 C 123.855469 178.976562 150.402344 188.148438 150.402344 188.148438 C 141.796875 184.289062 140.425781 176.804688 140.425781 176.804688 C 142.679688 183.324219 150.402344 186.863281 150.402344 186.863281 Z M 150.402344 186.863281 " fill-opacity="1" fill-rule="nonzero"/><path fill="#ffffff" d="M 134.492188 186.894531 C 128.308594 190.015625 131.085938 197.703125 135.070312 197.703125 C 139.058594 197.703125 140.101562 194.636719 139.058594 193.484375 C 138.019531 192.328125 138.132812 193.308594 136.980469 194.636719 C 135.824219 195.96875 133.164062 195.101562 133.683594 192.671875 C 134.203125 190.246094 136.804688 190.304688 136.804688 190.304688 C 136.804688 190.304688 135.1875 190.933594 135.765625 191.773438 C 136.34375 192.617188 138.945312 190.535156 138.945312 190.535156 C 138.945312 190.535156 137.789062 191.75 138.886719 192.097656 C 139.984375 192.441406 142.121094 189.785156 142.121094 189.785156 C 142.121094 189.785156 141.542969 191.054688 142.640625 191.113281 C 143.738281 191.171875 144.664062 188.570312 148.363281 188.628906 C 148.363281 188.628906 140.675781 183.773438 134.492188 186.894531 Z M 134.492188 186.894531 " fill-opacity="1" fill-rule="nonzero"/><g clip-path="url(#aa7c8e8e59)"><path fill="#ffffff" d="M 131.230469 185.304688 C 132.835938 186.597656 137.316406 184.121094 139.617188 184.359375 C 139.617188 184.359375 125.652344 179.066406 121.679688 165.402344 C 121.679688 165.402344 121.398438 169.625 122.375 171.980469 C 122.375 171.980469 121.253906 171.285156 120.003906 171.929688 C 118.753906 172.578125 117.925781 172.472656 117.925781 172.472656 C 117.925781 172.472656 119.425781 174.660156 122.046875 174.851562 C 122.046875 174.851562 120.664062 175.554688 120.472656 176.894531 C 120.277344 178.230469 119.804688 178.785156 119.804688 178.785156 C 119.804688 178.785156 122.5625 178.789062 124.050781 177.195312 C 124.050781 177.195312 123.132812 176.25 121.46875 177.519531 C 121.46875 177.519531 122.71875 175.523438 124.695312 175.8125 C 124.695312 175.8125 123.410156 174.027344 121.304688 173.148438 C 121.304688 173.148438 126.003906 173.886719 126.234375 178.453125 C 126.464844 183.019531 122.773438 181.042969 123.945312 179.367188 C 123.945312 179.367188 122.1875 179.925781 123.300781 182.097656 C 124.414062 184.265625 128.023438 184.046875 128.65625 180.816406 C 128.65625 180.816406 128.289062 182.464844 129.230469 182.894531 C 130.171875 183.324219 131.292969 182.671875 131.292969 182.671875 C 131.292969 182.671875 129.625 184.007812 131.230469 185.304688 Z M 131.230469 185.304688 " fill-opacity="1" fill-rule="nonzero"/></g><path fill="#ffffff" d="M 130.460938 129.105469 C 129.441406 139.507812 142.742188 149.269531 142.742188 149.269531 C 140.488281 144.871094 141.882812 139.511719 140.488281 137.148438 C 139.09375 134.789062 137.914062 137.578125 137.914062 137.578125 C 137.914062 137.578125 137.699219 134.574219 136.304688 134.359375 C 134.910156 134.144531 135.019531 136.722656 135.019531 136.722656 C 132.65625 134.039062 132.230469 126.746094 135.875 125.324219 C 138.871094 124.15625 139.523438 126.53125 139.523438 126.53125 C 139.523438 126.53125 136.734375 125.351562 136.804688 128.246094 C 136.875 131.144531 142.417969 132.429688 143.167969 126.960938 C 143.921875 121.488281 131.476562 118.699219 130.460938 129.105469 Z M 130.460938 129.105469 " fill-opacity="1" fill-rule="nonzero"/><path fill="#ffffff" d="M 157.617188 111.136719 C 163.402344 101.597656 150.988281 96.023438 148.128906 101.175781 C 145.273438 106.332031 150.835938 108.777344 152.746094 106.347656 C 154.660156 103.917969 151.519531 103.140625 151.519531 103.140625 C 151.519531 103.140625 153.597656 101.53125 155.410156 104.441406 C 157.617188 107.988281 152.585938 113.949219 148.851562 114.730469 C 148.851562 114.730469 150.589844 112.597656 149.261719 111.890625 C 147.933594 111.179688 145.828125 113.609375 145.828125 113.609375 C 145.828125 113.609375 146.605469 110.472656 143.902344 111.597656 C 141.203125 112.722656 138.964844 118.195312 134.226562 120.511719 C 134.226562 120.515625 151.832031 120.679688 157.617188 111.136719 Z M 157.617188 111.136719 " fill-opacity="1" fill-rule="nonzero"/><path fill="#ffffff" d="M 123.886719 147.660156 C 127.105469 149.433594 129.761719 146.617188 129.035156 145.167969 C 128.3125 143.71875 127.507812 144.121094 126.703125 145.328125 C 125.898438 146.535156 124.125 145.726562 125.050781 143.675781 C 125.980469 141.628906 128.875 141.871094 130.402344 142.914062 C 130.402344 142.914062 129.519531 143.316406 129.839844 144.121094 C 130.164062 144.925781 132.816406 144.765625 132.816406 144.765625 C 132.816406 144.765625 131.53125 145.25 131.933594 146.054688 C 132.335938 146.859375 136.28125 145.972656 138.570312 147.261719 C 138.570312 147.261719 132.734375 138.8125 127.183594 139.136719 C 121.636719 139.457031 120.671875 145.890625 123.886719 147.660156 Z M 123.886719 147.660156 " fill-opacity="1" fill-rule="nonzero"/><path fill="#ffffff" d="M 142.714844 133.882812 C 142.714844 134.160156 142.660156 134.421875 142.554688 134.675781 C 142.449219 134.929688 142.300781 135.152344 142.105469 135.347656 C 141.914062 135.542969 141.6875 135.691406 141.433594 135.796875 C 141.179688 135.902344 140.917969 135.953125 140.644531 135.953125 C 140.367188 135.953125 140.105469 135.902344 139.851562 135.796875 C 139.597656 135.691406 139.371094 135.542969 139.179688 135.347656 C 138.984375 135.152344 138.835938 134.929688 138.730469 134.675781 C 138.625 134.421875 138.570312 134.160156 138.570312 133.882812 C 138.570312 133.609375 138.625 133.34375 138.730469 133.089844 C 138.835938 132.835938 138.984375 132.613281 139.179688 132.417969 C 139.371094 132.226562 139.597656 132.074219 139.851562 131.96875 C 140.105469 131.863281 140.367188 131.8125 140.644531 131.8125 C 140.917969 131.8125 141.179688 131.863281 141.433594 131.96875 C 141.6875 132.074219 141.914062 132.226562 142.105469 132.417969 C 142.300781 132.613281 142.449219 132.835938 142.554688 133.089844 C 142.660156 133.34375 142.714844 133.609375 142.714844 133.882812 Z M 142.714844 133.882812 " fill-opacity="1" fill-rule="nonzero"/><path fill="#ffffff" d="M 131.230469 124.359375 C 131.230469 124.359375 125.84375 124.710938 123.761719 127.121094 C 123.761719 127.121094 126.140625 123.910156 130.734375 123.4375 C 130.734375 123.4375 125.746094 120.648438 123.230469 124.113281 C 120.714844 127.578125 118.570312 127.839844 118.570312 127.839844 C 118.570312 127.839844 126.695312 132.207031 131.230469 124.359375 Z M 131.230469 124.359375 " fill-opacity="1" fill-rule="nonzero"/><path fill="#ffffff" d="M 132.648438 122.164062 C 132.648438 122.164062 129.007812 118.175781 125.828125 118.050781 C 125.828125 118.050781 129.820312 117.90625 133.054688 121.199219 C 133.054688 121.199219 132.125 115.5625 127.847656 115.761719 C 123.570312 115.957031 122.023438 114.445312 122.023438 114.445312 C 122.023438 114.445312 123.683594 123.519531 132.648438 122.164062 Z M 132.648438 122.164062 " fill-opacity="1" fill-rule="nonzero"/><path fill="#ffffff" d="M 135.304688 112.046875 C 133.519531 114.683594 134.578125 119.980469 134.578125 119.980469 C 140.980469 113.5625 134.652344 106.847656 134.652344 106.847656 C 134.652344 106.847656 134.953125 108.988281 132.261719 112.320312 C 129.570312 115.648438 133.5625 119.738281 133.5625 119.738281 C 132.824219 115.179688 135.304688 112.046875 135.304688 112.046875 Z M 135.304688 112.046875 " fill-opacity="1" fill-rule="nonzero"/><path fill="#ffffff" d="M 122.484375 139.101562 C 122.484375 139.101562 127.199219 136.25 132.414062 139.617188 C 132.414062 139.617188 127.78125 134.4375 129.21875 128.566406 C 129.21875 128.566406 125.660156 131.703125 128.039062 135.785156 C 128.039062 135.785156 124 135.222656 122.484375 139.101562 Z M 122.484375 139.101562 " fill-opacity="1" fill-rule="nonzero"/><path fill="#ffffff" d="M 136.089844 163.617188 C 135.214844 163.617188 134.507812 164.324219 134.507812 165.199219 C 134.507812 166.074219 135.214844 166.78125 136.089844 166.78125 C 136.964844 166.78125 137.671875 166.074219 137.671875 165.199219 C 137.671875 164.324219 136.964844 163.617188 136.089844 163.617188 Z M 136.089844 163.617188 " fill-opacity="1" fill-rule="nonzero"/><path fill="#ffffff" d="M 123.535156 148.902344 C 123.75 149.117188 123.917969 149.367188 124.035156 149.652344 C 124.152344 149.933594 124.210938 150.226562 124.210938 150.53125 C 124.210938 150.839844 124.152344 151.132812 124.035156 151.414062 C 123.917969 151.699219 123.75 151.949219 123.535156 152.164062 C 123.316406 152.378906 123.066406 152.546875 122.785156 152.664062 C 122.503906 152.78125 122.207031 152.839844 121.902344 152.839844 C 121.597656 152.839844 121.304688 152.78125 121.019531 152.664062 C 120.738281 152.546875 120.488281 152.378906 120.273438 152.164062 C 120.054688 151.949219 119.890625 151.699219 119.773438 151.414062 C 119.65625 151.132812 119.597656 150.839844 119.597656 150.535156 C 119.597656 150.226562 119.65625 149.933594 119.773438 149.652344 C 119.890625 149.367188 120.054688 149.117188 120.273438 148.902344 C 120.488281 148.6875 120.738281 148.519531 121.019531 148.402344 C 121.304688 148.285156 121.597656 148.226562 121.902344 148.226562 C 122.207031 148.226562 122.503906 148.285156 122.785156 148.402344 C 123.066406 148.519531 123.316406 148.6875 123.535156 148.902344 Z M 123.535156 148.902344 " fill-opacity="1" fill-rule="nonzero"/><path fill="#ffffff" d="M 141.128906 110.675781 C 142.816406 110.675781 144.183594 109.308594 144.183594 107.621094 C 144.183594 105.933594 142.816406 104.566406 141.128906 104.566406 C 139.445312 104.566406 138.078125 105.933594 138.078125 107.621094 C 138.078125 109.308594 139.445312 110.675781 141.128906 110.675781 Z M 141.128906 110.675781 " fill-opacity="1" fill-rule="nonzero"/><g clip-path="url(#e5b65d0bbf)"><path fill="#ffffff" d="M 192.808594 217.628906 C 189.484375 216.285156 187.5 218.859375 187.5 218.859375 C 187.5 218.859375 185.515625 216.285156 182.1875 217.628906 C 178.546875 219.09375 178.273438 223.902344 180.902344 224.867188 C 182.910156 225.605469 182.992188 223.792969 182.992188 223.792969 C 181.8125 224.492188 180.257812 221.757812 183.207031 221.003906 C 186.160156 220.253906 187.175781 223.632812 185.996094 224.976562 C 184.855469 226.269531 185.519531 227.816406 185.566406 227.917969 C 185.027344 226.53125 183.421875 226.210938 182.886719 227.441406 C 182.351562 228.675781 185.085938 230.015625 185.085938 230.015625 C 181.652344 229.75 181.816406 232.644531 181.816406 232.644531 C 182.460938 230.875 186.105469 231.519531 184.816406 234.09375 C 183.53125 236.667969 187.5 240.664062 187.5 240.664062 C 187.5 240.664062 191.46875 236.667969 190.183594 234.09375 C 188.894531 231.519531 192.542969 230.875 193.1875 232.644531 C 193.1875 232.644531 193.347656 229.75 189.914062 230.015625 C 189.914062 230.015625 192.648438 228.675781 192.113281 227.441406 C 191.578125 226.210938 189.972656 226.53125 189.433594 227.917969 C 189.480469 227.816406 190.144531 226.269531 189.003906 224.976562 C 187.824219 223.632812 188.84375 220.253906 191.792969 221.003906 C 194.742188 221.757812 193.1875 224.492188 192.007812 223.792969 C 192.007812 223.792969 192.089844 225.605469 194.101562 224.867188 C 196.722656 223.902344 196.449219 219.09375 192.808594 217.628906 Z M 192.808594 217.628906 " fill-opacity="1" fill-rule="nonzero"/></g><path fill="#ffffff" d="M 218.234375 210.820312 C 217.335938 209.863281 215.257812 209.078125 212.898438 211.886719 C 212.898438 211.886719 214.414062 208.574219 213.234375 207.058594 C 212.054688 205.539062 210.875 206.886719 211.210938 207.898438 C 211.210938 207.898438 209.753906 205.933594 208.125 205.988281 C 206.496094 206.046875 206.71875 207.503906 207.449219 207.675781 C 207.449219 207.675781 204.695312 206.945312 203.238281 208.851562 C 201.777344 210.761719 202.957031 214.359375 204.867188 214.078125 C 206.777344 213.796875 206.214844 212.671875 205.316406 211.773438 C 204.417969 210.875 207.054688 208.460938 208.851562 210.875 C 210.648438 213.289062 207.953125 216.910156 205.988281 216.871094 C 205.988281 216.871094 207.113281 215.875 205.988281 215.257812 C 204.867188 214.640625 202.617188 216.605469 202.617188 216.605469 C 202.617188 216.605469 203.011719 215.425781 202.167969 215.199219 C 201.328125 214.976562 199.585938 215.992188 198.96875 215.960938 C 198.96875 215.960938 199.644531 215.089844 198.632812 214.640625 C 197.621094 214.191406 195.316406 216.101562 192.621094 215.960938 C 192.621094 215.960938 203.140625 221.304688 209.058594 219.507812 C 214.972656 217.710938 214.375 217.003906 217.671875 216.871094 C 217.671875 216.871094 215.5 214.488281 213.027344 215.613281 C 213.027344 215.613281 214.527344 214.191406 216.265625 214.023438 C 218.007812 213.851562 219.804688 213.402344 220.871094 210.820312 C 220.871094 210.820312 219.132812 211.773438 218.234375 210.820312 Z M 218.234375 210.820312 " fill-opacity="1" fill-rule="nonzero"/><path fill="#ffffff" d="M 197.59375 218.753906 C 197.59375 218.753906 199.308594 221.789062 201.75 222.050781 C 201.75 222.050781 199.285156 222.890625 197.265625 219.476562 C 197.265625 219.476562 197.726562 224.425781 194.957031 227.460938 C 194.957031 227.460938 199.253906 227.082031 199.441406 224.097656 C 199.441406 224.097656 200.230469 226.40625 201.878906 227 C 201.878906 227 202.765625 225.097656 201.15625 223.4375 C 201.15625 223.4375 204.652344 224.558594 206.429688 221.128906 C 206.433594 221.128906 200.035156 221.484375 197.59375 218.753906 Z M 197.59375 218.753906 " fill-opacity="1" fill-rule="nonzero"/><path fill="#ffffff" d="M 225.25 189.414062 C 222.460938 189.46875 221.121094 191.1875 221.390625 193.386719 C 221.65625 195.585938 225.089844 195.796875 225.304688 193.761719 C 225.519531 191.722656 223.964844 192.152344 223.964844 192.152344 C 223.964844 192.152344 226 190.917969 227.933594 192.363281 C 229.863281 193.8125 229.164062 198.746094 224.980469 199.390625 C 224.980469 199.390625 225.949219 198.476562 224.875 197.699219 C 223.800781 196.921875 221.816406 199.496094 221.816406 199.496094 C 221.816406 199.496094 222.40625 198.371094 221.226562 198.15625 C 220.046875 197.941406 218.386719 200.355469 218.386719 200.355469 C 218.386719 200.355469 218.976562 199.230469 217.527344 199.015625 C 216.078125 198.800781 209.429688 202.125 210.609375 205.988281 C 210.609375 205.988281 210.5 203.304688 216.132812 203.199219 C 221.765625 203.089844 229.113281 202.984375 230.882812 197.511719 C 232.652344 192.042969 228.039062 189.363281 225.25 189.414062 Z M 225.25 189.414062 " fill-opacity="1" fill-rule="nonzero"/><path fill="#ffffff" d="M 226.921875 204.433594 C 227.082031 203.519531 228.046875 202.554688 228.046875 202.554688 C 228.046875 202.554688 224.507812 205.238281 218.445312 204.109375 C 212.386719 202.984375 211.316406 205.777344 211.472656 205.667969 C 212.597656 204.863281 214.316406 205.128906 215.226562 206.632812 C 216.140625 208.132812 216.730469 209.097656 218.125 209.097656 C 219.519531 209.097656 219.25 207.757812 219.25 207.757812 C 219.25 207.757812 218.875 208.617188 217.855469 207.757812 C 216.835938 206.898438 217.800781 204.808594 219.757812 205.988281 C 221.71875 207.167969 221.664062 208.453125 221.664062 208.453125 C 221.089844 207.179688 219.757812 206.523438 219.757812 206.523438 C 220.214844 209.203125 222.898438 210.007812 222.898438 210.007812 C 222.898438 210.007812 222.46875 209.367188 222.789062 208.355469 C 223.113281 207.34375 222.09375 205.988281 222.09375 205.988281 C 223.753906 205.933594 224.988281 207.382812 224.988281 207.382812 C 224.398438 206.738281 222.84375 206.683594 222.84375 206.683594 C 224.402344 208.984375 227.082031 208.238281 227.082031 208.238281 C 227.082031 208.238281 226.546875 207.917969 226.382812 206.84375 C 226.222656 205.773438 224.882812 205.398438 224.882812 205.398438 C 224.882812 205.398438 226.757812 205.34375 226.921875 204.433594 Z M 226.921875 204.433594 " fill-opacity="1" fill-rule="nonzero"/><path fill="#ffffff" d="M 224.59375 188.152344 C 224.59375 188.152344 251.144531 178.980469 251.625 160.476562 C 252.109375 141.972656 232.800781 146.796875 232.800781 155.808594 C 232.800781 164.820312 241.648438 162.566406 241.167969 159.347656 C 240.683594 156.132812 237.304688 159.027344 236.984375 155.808594 C 236.660156 152.589844 243.902344 150.980469 246.15625 155.003906 C 246.15625 155.003906 244.386719 154.039062 243.902344 155.730469 C 243.421875 157.417969 246.476562 158.625 246.71875 161.199219 C 246.71875 161.199219 245.996094 159.589844 244.628906 160.234375 C 243.257812 160.878906 244.949219 164.820312 244.144531 167.234375 C 244.144531 167.234375 243.5 166.027344 242.292969 166.429688 C 241.085938 166.832031 241.8125 170.773438 239.882812 172.945312 C 237.949219 175.117188 235.054688 173.347656 235.214844 171.097656 C 235.375 168.84375 238.441406 169.246094 238.113281 171.015625 C 238.113281 171.015625 239.476562 167.957031 235.695312 167.554688 C 231.914062 167.152344 231.59375 171.902344 232.078125 176.085938 C 232.558594 180.265625 224.59375 186.863281 224.59375 186.863281 C 224.59375 186.863281 232.316406 183.324219 234.570312 176.808594 C 234.570312 176.808594 233.203125 184.289062 224.59375 188.152344 Z M 224.59375 188.152344 " fill-opacity="1" fill-rule="nonzero"/><path fill="#ffffff" d="M 240.503906 186.894531 C 234.320312 183.773438 226.632812 188.628906 226.632812 188.628906 C 230.332031 188.570312 231.257812 191.171875 232.355469 191.113281 C 233.453125 191.054688 232.875 189.785156 232.875 189.785156 C 232.875 189.785156 235.015625 192.441406 236.113281 192.097656 C 237.210938 191.75 236.054688 190.535156 236.054688 190.535156 C 236.054688 190.535156 238.652344 192.617188 239.230469 191.773438 C 239.808594 190.933594 238.191406 190.304688 238.191406 190.304688 C 238.191406 190.304688 240.792969 190.246094 241.3125 192.671875 C 241.832031 195.101562 239.171875 195.96875 238.019531 194.636719 C 236.863281 193.308594 236.976562 192.328125 235.9375 193.484375 C 234.898438 194.636719 235.9375 197.703125 239.925781 197.703125 C 243.910156 197.703125 246.6875 190.015625 240.503906 186.894531 Z M 240.503906 186.894531 " fill-opacity="1" fill-rule="nonzero"/><g clip-path="url(#2f977740dc)"><path fill="#ffffff" d="M 257.070312 172.472656 C 257.070312 172.472656 256.242188 172.578125 254.992188 171.933594 C 253.742188 171.285156 252.621094 171.980469 252.621094 171.980469 C 253.597656 169.625 253.320312 165.40625 253.320312 165.40625 C 249.34375 179.070312 235.382812 184.359375 235.382812 184.359375 C 237.679688 184.121094 242.160156 186.601562 243.765625 185.304688 C 245.375 184.007812 243.707031 182.675781 243.707031 182.675781 C 243.707031 182.675781 244.828125 183.328125 245.769531 182.898438 C 246.710938 182.46875 246.34375 180.816406 246.34375 180.816406 C 246.972656 184.050781 250.582031 184.269531 251.695312 182.101562 C 252.8125 179.929688 251.050781 179.371094 251.050781 179.371094 C 252.222656 181.046875 248.535156 183.023438 248.761719 178.457031 C 248.992188 173.890625 253.691406 173.152344 253.691406 173.152344 C 251.589844 174.027344 250.304688 175.816406 250.304688 175.816406 C 252.277344 175.527344 253.53125 177.519531 253.53125 177.519531 C 251.863281 176.253906 250.949219 177.195312 250.949219 177.195312 C 252.4375 178.792969 255.195312 178.789062 255.195312 178.789062 C 255.195312 178.789062 254.71875 178.234375 254.527344 176.898438 C 254.332031 175.558594 252.953125 174.855469 252.953125 174.855469 C 255.574219 174.664062 257.070312 172.472656 257.070312 172.472656 Z M 257.070312 172.472656 " fill-opacity="1" fill-rule="nonzero"/></g><path fill="#ffffff" d="M 231.828125 126.960938 C 232.578125 132.429688 238.125 131.140625 238.195312 128.246094 C 238.261719 125.351562 235.472656 126.53125 235.472656 126.53125 C 235.472656 126.53125 236.125 124.15625 239.121094 125.324219 C 242.769531 126.742188 242.339844 134.039062 239.980469 136.71875 C 239.980469 136.71875 240.085938 134.144531 238.691406 134.359375 C 237.296875 134.574219 237.082031 137.578125 237.082031 137.578125 C 237.082031 137.578125 235.902344 134.789062 234.507812 137.148438 C 233.113281 139.507812 234.507812 144.871094 232.257812 149.269531 C 232.257812 149.269531 245.554688 139.507812 244.539062 129.101562 C 243.519531 118.699219 231.078125 121.488281 231.828125 126.960938 Z M 231.828125 126.960938 " fill-opacity="1" fill-rule="nonzero"/><path fill="#ffffff" d="M 240.769531 120.515625 C 236.035156 118.195312 233.792969 112.722656 231.09375 111.597656 C 228.394531 110.472656 229.167969 113.613281 229.167969 113.613281 C 229.167969 113.613281 227.0625 111.183594 225.734375 111.890625 C 224.40625 112.601562 226.144531 114.730469 226.144531 114.730469 C 222.414062 113.949219 217.382812 107.992188 219.589844 104.445312 C 221.402344 101.53125 223.476562 103.140625 223.476562 103.140625 C 223.476562 103.140625 220.339844 103.917969 222.25 106.347656 C 224.164062 108.777344 229.722656 106.332031 226.867188 101.175781 C 224.007812 96.023438 211.59375 101.597656 217.378906 111.136719 C 223.164062 120.679688 240.769531 120.515625 240.769531 120.515625 Z M 240.769531 120.515625 " fill-opacity="1" fill-rule="nonzero"/><path fill="#ffffff" d="M 248.292969 145.328125 C 247.488281 144.121094 246.683594 143.71875 245.960938 145.167969 C 245.238281 146.617188 247.890625 149.433594 251.109375 147.660156 C 254.328125 145.890625 253.363281 139.457031 247.8125 139.132812 C 242.257812 138.8125 236.425781 147.261719 236.425781 147.261719 C 238.714844 145.972656 242.660156 146.859375 243.0625 146.054688 C 243.464844 145.25 242.179688 144.765625 242.179688 144.765625 C 242.179688 144.765625 244.832031 144.925781 245.15625 144.121094 C 245.476562 143.316406 244.59375 142.914062 244.59375 142.914062 C 246.121094 141.867188 249.015625 141.628906 249.945312 143.675781 C 250.875 145.726562 249.097656 146.535156 248.292969 145.328125 Z M 248.292969 145.328125 " fill-opacity="1" fill-rule="nonzero"/><path fill="#ffffff" d="M 236.425781 133.882812 C 236.425781 134.160156 236.375 134.421875 236.269531 134.675781 C 236.164062 134.929688 236.011719 135.152344 235.820312 135.347656 C 235.625 135.542969 235.402344 135.691406 235.148438 135.796875 C 234.894531 135.902344 234.628906 135.953125 234.355469 135.953125 C 234.082031 135.953125 233.816406 135.902344 233.5625 135.796875 C 233.308594 135.691406 233.085938 135.542969 232.890625 135.347656 C 232.695312 135.152344 232.546875 134.929688 232.441406 134.675781 C 232.335938 134.421875 232.285156 134.160156 232.285156 133.882812 C 232.285156 133.609375 232.335938 133.34375 232.441406 133.089844 C 232.546875 132.835938 232.695312 132.613281 232.890625 132.417969 C 233.085938 132.226562 233.308594 132.074219 233.5625 131.96875 C 233.816406 131.863281 234.082031 131.8125 234.355469 131.8125 C 234.628906 131.8125 234.894531 131.863281 235.148438 131.96875 C 235.402344 132.074219 235.625 132.226562 235.820312 132.417969 C 236.011719 132.613281 236.164062 132.835938 236.269531 133.089844 C 236.375 133.34375 236.425781 133.609375 236.425781 133.882812 Z M 236.425781 133.882812 " fill-opacity="1" fill-rule="nonzero"/><path fill="#ffffff" d="M 244.265625 123.4375 C 248.855469 123.910156 251.238281 127.121094 251.238281 127.121094 C 249.15625 124.710938 243.765625 124.359375 243.765625 124.359375 C 248.300781 132.207031 256.429688 127.839844 256.429688 127.839844 C 256.429688 127.839844 254.28125 127.578125 251.769531 124.113281 C 249.25 120.648438 244.265625 123.4375 244.265625 123.4375 Z M 244.265625 123.4375 " fill-opacity="1" fill-rule="nonzero"/><path fill="#ffffff" d="M 249.167969 118.050781 C 245.988281 118.175781 242.351562 122.164062 242.351562 122.164062 C 251.3125 123.519531 252.976562 114.445312 252.976562 114.445312 C 252.976562 114.445312 251.429688 115.957031 247.152344 115.761719 C 242.875 115.5625 241.941406 121.199219 241.941406 121.199219 C 245.175781 117.90625 249.167969 118.050781 249.167969 118.050781 Z M 249.167969 118.050781 " fill-opacity="1" fill-rule="nonzero"/><path fill="#ffffff" d="M 239.695312 112.046875 C 239.695312 112.046875 242.175781 115.179688 241.4375 119.738281 C 241.4375 119.738281 245.429688 115.648438 242.734375 112.320312 C 240.042969 108.988281 240.347656 106.847656 240.347656 106.847656 C 240.347656 106.847656 234.019531 113.5625 240.417969 119.980469 C 240.417969 119.980469 241.476562 114.683594 239.695312 112.046875 Z M 239.695312 112.046875 " fill-opacity="1" fill-rule="nonzero"/><path fill="#ffffff" d="M 252.511719 139.101562 C 250.996094 135.222656 246.957031 135.785156 246.957031 135.785156 C 249.335938 131.703125 245.78125 128.566406 245.78125 128.566406 C 247.214844 134.4375 242.582031 139.617188 242.582031 139.617188 C 247.800781 136.25 252.511719 139.101562 252.511719 139.101562 Z M 252.511719 139.101562 " fill-opacity="1" fill-rule="nonzero"/><path fill="#ffffff" d="M 240.488281 165.199219 C 240.488281 164.324219 239.78125 163.617188 238.90625 163.617188 C 238.035156 163.617188 237.324219 164.324219 237.324219 165.199219 C 237.324219 166.074219 238.035156 166.78125 238.90625 166.78125 C 239.78125 166.78125 240.488281 166.074219 240.488281 165.199219 Z M 240.488281 165.199219 " fill-opacity="1" fill-rule="nonzero"/><path fill="#ffffff" d="M 254.722656 148.902344 C 254.9375 149.121094 255.105469 149.371094 255.222656 149.652344 C 255.339844 149.933594 255.398438 150.226562 255.398438 150.535156 C 255.398438 150.839844 255.339844 151.132812 255.222656 151.417969 C 255.105469 151.699219 254.9375 151.949219 254.722656 152.164062 C 254.507812 152.382812 254.257812 152.546875 253.972656 152.664062 C 253.691406 152.78125 253.398438 152.839844 253.09375 152.839844 C 252.785156 152.839844 252.492188 152.78125 252.210938 152.664062 C 251.925781 152.546875 251.675781 152.382812 251.460938 152.164062 C 251.246094 151.949219 251.078125 151.699219 250.960938 151.417969 C 250.84375 151.132812 250.785156 150.839844 250.785156 150.535156 C 250.785156 150.230469 250.84375 149.933594 250.960938 149.652344 C 251.078125 149.371094 251.246094 149.121094 251.460938 148.902344 C 251.675781 148.6875 251.925781 148.519531 252.210938 148.402344 C 252.492188 148.285156 252.785156 148.226562 253.09375 148.226562 C 253.398438 148.226562 253.691406 148.285156 253.972656 148.402344 C 254.257812 148.519531 254.507812 148.6875 254.722656 148.902344 Z M 254.722656 148.902344 " fill-opacity="1" fill-rule="nonzero"/><path fill="#ffffff" d="M 235.035156 104.796875 C 235.410156 104.949219 235.738281 105.171875 236.027344 105.457031 C 236.3125 105.742188 236.53125 106.074219 236.6875 106.449219 C 236.84375 106.824219 236.921875 107.210938 236.921875 107.617188 C 236.921875 108.023438 236.84375 108.410156 236.6875 108.785156 C 236.53125 109.160156 236.3125 109.488281 236.027344 109.777344 C 235.738281 110.0625 235.410156 110.285156 235.035156 110.4375 C 234.660156 110.59375 234.269531 110.671875 233.867188 110.671875 C 233.460938 110.671875 233.070312 110.59375 232.699219 110.4375 C 232.324219 110.285156 231.992188 110.0625 231.707031 109.777344 C 231.421875 109.488281 231.199219 109.160156 231.046875 108.785156 C 230.890625 108.410156 230.8125 108.023438 230.8125 107.617188 C 230.8125 107.210938 230.890625 106.824219 231.046875 106.449219 C 231.199219 106.074219 231.421875 105.742188 231.707031 105.457031 C 231.992188 105.171875 232.324219 104.949219 232.699219 104.796875 C 233.070312 104.640625 233.460938 104.5625 233.867188 104.5625 C 234.269531 104.5625 234.660156 104.640625 235.035156 104.796875 Z M 235.035156 104.796875 " fill-opacity="1" fill-rule="nonzero"/><g clip-path="url(#aad46dfff4)"><path fill="#ffffff" d="M 208.5 134.992188 L 186.476562 143.070312 L 158.003906 132.632812 L 186.476562 122.148438 L 209.914062 130.746094 L 215.996094 130.746094 L 186.84375 120.050781 C 186.632812 119.945312 186.371094 119.945312 186.109375 120.050781 L 154.59375 131.636719 C 154.175781 131.796875 153.914062 132.164062 153.914062 132.632812 C 153.914062 133.105469 154.175781 133.472656 154.59375 133.628906 L 167.546875 138.402344 L 167.546875 150.933594 C 167.546875 151.511719 167.546875 152.558594 175.570312 156.019531 C 177.40625 156.808594 183.539062 159.378906 186.320312 159.378906 C 189.148438 159.378906 195.390625 156.808594 197.226562 156.019531 C 205.351562 152.558594 205.351562 151.511719 205.351562 150.933594 L 205.351562 138.402344 L 214.582031 134.992188 C 214.582031 134.992188 208.5 134.992188 208.5 134.992188 Z M 203.253906 150.566406 C 201.523438 152.089844 189.675781 157.226562 186.320312 157.226562 C 183.066406 157.226562 171.375 152.089844 169.644531 150.566406 L 169.644531 139.136719 L 186.109375 145.167969 C 186.214844 145.21875 186.371094 145.21875 186.476562 145.21875 C 186.582031 145.21875 186.738281 145.21875 186.84375 145.167969 L 203.308594 139.136719 Z M 203.253906 150.566406 " fill-opacity="1" fill-rule="nonzero"/></g><g clip-path="url(#c707aa44da)"><path fill="#ffffff" d="M 220.925781 151.828125 C 220.769531 151.144531 220.613281 150.410156 220.507812 149.730469 L 220.246094 147.632812 L 219.878906 145.535156 C 219.722656 144.746094 219.617188 144.011719 219.457031 143.226562 C 220.296875 142.964844 220.925781 142.179688 220.925781 141.234375 C 220.925781 140.238281 220.246094 139.398438 219.300781 139.1875 C 219.355469 139.085938 219.457031 139.03125 219.511719 138.925781 L 219.824219 138.507812 C 219.984375 138.351562 219.824219 138.191406 219.878906 138.085938 L 219.878906 132.898438 C 219.878906 132.320312 219.40625 131.847656 218.828125 131.847656 L 202.050781 131.847656 C 199.269531 131.898438 196.4375 131.742188 193.660156 132.058594 C 191.929688 132.214844 190.199219 132.371094 188.417969 132.53125 C 188.152344 132.109375 187.367188 131.796875 186.421875 131.796875 C 185.269531 131.796875 184.324219 132.265625 184.324219 132.84375 C 184.324219 133.421875 185.269531 133.894531 186.421875 133.894531 C 187.367188 133.894531 188.101562 133.578125 188.417969 133.160156 C 190.148438 133.316406 191.878906 133.527344 193.660156 133.628906 C 196.4375 133.996094 199.269531 133.839844 202.050781 133.839844 L 217.78125 133.839844 L 217.78125 137.984375 C 217.832031 138.140625 217.675781 138.296875 217.832031 138.402344 L 218.148438 138.820312 C 218.199219 138.925781 218.304688 138.980469 218.359375 139.085938 C 217.414062 139.292969 216.730469 140.132812 216.730469 141.128906 C 216.730469 142.074219 217.363281 142.859375 218.199219 143.121094 C 218.042969 143.910156 217.886719 144.640625 217.78125 145.429688 L 217.414062 147.527344 L 217.152344 149.625 C 217.046875 150.304688 216.890625 151.039062 216.730469 151.722656 C 216.574219 152.402344 216.574219 153.136719 216.730469 153.820312 C 216.835938 154.5 217.046875 155.234375 217.363281 155.917969 C 217.675781 156.597656 218.042969 157.332031 218.621094 158.015625 L 219.039062 158.015625 C 219.617188 157.332031 220.035156 156.597656 220.296875 155.917969 C 220.613281 155.234375 220.769531 154.5 220.925781 153.820312 C 221.085938 153.242188 221.085938 152.558594 220.925781 151.828125 Z M 220.925781 151.828125 " fill-opacity="1" fill-rule="nonzero"/></g><path fill="#ffffff" d="M 213.636719 171.019531 C 213.167969 170.335938 212.222656 169.707031 211.4375 169.550781 C 189.832031 164.832031 161.777344 154.65625 161.515625 154.605469 C 161.464844 154.605469 161.359375 154.554688 161.304688 154.554688 C 161.203125 154.554688 158.160156 154.867188 157.058594 158.484375 C 156.640625 159.953125 156.480469 162.734375 158.683594 164.253906 C 158.210938 164.464844 157.582031 164.777344 156.902344 164.9375 C 156.691406 164.988281 156.535156 165.199219 156.535156 165.460938 C 156.535156 165.722656 156.742188 165.933594 156.953125 165.933594 C 157.058594 165.933594 166.078125 167.558594 176.144531 170.703125 L 167.179688 173.535156 L 172.054688 173.851562 L 171.847656 176.3125 L 177.71875 173.535156 L 176.144531 178.464844 L 179.449219 177.625 L 182.125 179.460938 L 182.542969 172.855469 C 192.714844 176.578125 201.996094 181.136719 206.714844 184.863281 C 206.820312 184.914062 206.925781 184.964844 207.03125 184.964844 C 207.136719 184.964844 207.242188 184.914062 207.347656 184.863281 C 207.347656 184.863281 209.652344 183.078125 211.4375 181.664062 C 211.488281 181.609375 211.539062 181.558594 211.539062 181.503906 C 212.273438 180.875 212.800781 180.039062 213.167969 179.199219 C 214.371094 176.785156 215.105469 173.117188 213.636719 171.019531 Z M 158.054688 158.746094 C 158.839844 156.125 160.78125 155.652344 161.304688 155.601562 C 162.355469 155.96875 169.957031 158.695312 179.921875 161.894531 C 178.558594 162.367188 177.457031 163.570312 176.828125 164.832031 C 176.25 165.933594 175.777344 167.453125 176.039062 168.816406 C 166.390625 165.566406 160.257812 163.9375 160.152344 163.886719 C 156.953125 162.628906 158.003906 158.90625 158.054688 158.746094 Z M 207.136719 183.8125 C 203.464844 180.980469 198.066406 178.203125 192.453125 175.683594 C 197.59375 177.625 203.152344 179.878906 208.917969 182.34375 L 208.972656 182.34375 C 208.183594 183.027344 207.503906 183.550781 207.136719 183.8125 Z M 212.328125 178.832031 C 211.90625 179.773438 210.753906 181.503906 209.445312 181.347656 C 208.761719 181.296875 208.445312 180.351562 208.289062 179.773438 C 207.765625 177.941406 208.445312 175.371094 209.707031 174.007812 C 210.125 173.585938 210.753906 173.117188 211.277344 173.117188 C 211.539062 173.117188 211.75 173.21875 211.960938 173.484375 C 212.746094 174.375 212.273438 176.839844 211.539062 177.941406 C 211.226562 178.410156 210.753906 178.726562 210.335938 178.832031 C 210.074219 178.882812 209.863281 178.832031 209.707031 178.675781 C 209.390625 178.410156 209.234375 177.941406 209.285156 177.414062 C 209.339844 176.734375 209.707031 176.15625 210.125 175.949219 L 210.175781 175.949219 C 210.230469 176 210.230469 176.15625 210.175781 176.367188 C 210.074219 176.628906 210.28125 176.945312 210.542969 176.996094 C 210.808594 177.101562 211.121094 176.890625 211.171875 176.628906 C 211.332031 176 211.226562 175.421875 210.808594 175.109375 C 210.648438 175.003906 210.230469 174.742188 209.601562 175.054688 C 208.867188 175.476562 208.289062 176.367188 208.183594 177.363281 C 208.078125 178.253906 208.394531 179.09375 208.972656 179.566406 C 209.390625 179.878906 209.914062 180.039062 210.441406 179.933594 C 211.171875 179.828125 211.90625 179.304688 212.378906 178.570312 C 212.378906 178.515625 212.433594 178.515625 212.433594 178.464844 C 212.433594 178.570312 212.378906 178.726562 212.328125 178.832031 Z M 213.375 174.585938 C 213.324219 173.902344 213.113281 173.273438 212.695312 172.855469 C 212.273438 172.382812 211.804688 172.171875 211.226562 172.121094 C 211.226562 172.121094 211.226562 172.121094 211.171875 172.121094 C 210.074219 172.121094 209.179688 172.957031 208.8125 173.324219 C 207.292969 174.949219 206.558594 177.941406 207.136719 180.089844 C 207.1875 180.300781 207.242188 180.457031 207.292969 180.613281 C 198.273438 176.785156 189.832031 173.585938 182.699219 171.070312 C 182.230469 169.707031 182.859375 168.132812 183.488281 166.929688 C 184.167969 165.667969 185.269531 164.410156 186.6875 163.992188 C 194.605469 166.402344 203.308594 168.816406 211.171875 170.546875 C 211.699219 170.652344 212.433594 171.125 212.746094 171.59375 C 213.269531 172.328125 213.480469 173.378906 213.375 174.585938 Z M 213.375 174.585938 " fill-opacity="1" fill-rule="nonzero"/><g clip-path="url(#2ce758658c)"><path fill="#ffffff" d="M 187.386719 185.050781 L 190.046875 190.460938 L 195.992188 191.328125 L 191.6875 195.542969 L 192.707031 201.488281 L 187.386719 198.683594 L 182.066406 201.488281 L 183.082031 195.542969 L 178.78125 191.328125 L 184.726562 190.460938 Z M 187.386719 185.050781 " fill-opacity="1" fill-rule="nonzero"/><path fill="#ffffff" d="M 187.347656 185 L 190.007812 190.410156 L 195.953125 191.277344 L 191.648438 195.492188 L 192.664062 201.4375 L 187.347656 198.628906 L 182.027344 201.4375 L 183.042969 195.492188 L 178.742188 191.277344 L 184.6875 190.410156 Z M 187.347656 185 " fill-opacity="1" fill-rule="nonzero"/><path fill="#ffffff" d="M 187.347656 185 L 190.007812 190.410156 L 195.953125 191.277344 L 191.648438 195.492188 L 192.664062 201.4375 L 187.347656 198.628906 L 182.027344 201.4375 L 183.042969 195.492188 L 178.742188 191.277344 L 184.6875 190.410156 Z M 187.347656 185 " fill-opacity="1" fill-rule="nonzero"/><path fill="#ffffff" d="M 187.347656 185 L 190.007812 190.410156 L 195.953125 191.277344 L 191.648438 195.492188 L 192.664062 201.4375 L 187.347656 198.628906 L 182.027344 201.4375 L 183.042969 195.492188 L 178.742188 191.277344 L 184.6875 190.410156 Z M 187.347656 185 " fill-opacity="1" fill-rule="nonzero"/></g><g fill="#ffffff" fill-opacity="1"><g transform="translate(100.509675, 264.868871)"><g><path d="M 21.386719 -7.839844 L 21.386719 -7.96875 L 11.34375 -7.96875 L 10.824219 -7.65625 C 15.183594 -7.527344 15.859375 -7.398438 15.859375 -6.460938 L 15.859375 -2.179688 C 15.15625 -1.453125 14.171875 -0.960938 12.664062 -0.960938 C 8.253906 -0.960938 5.035156 -5.476562 5.035156 -10.769531 C 5.035156 -15.625 7.421875 -17.933594 10.539062 -17.933594 C 14.585938 -17.933594 16.558594 -14.378906 15.210938 -10.796875 L 15.289062 -10.769531 L 19.050781 -15.804688 C 17.855469 -17.261719 15.496094 -18.53125 12.09375 -18.53125 C 6.75 -18.53125 1.167969 -15.261719 1.167969 -9.03125 C 1.167969 -3.609375 5.605469 0.363281 10.460938 0.363281 C 12.769531 0.363281 14.5625 -0.492188 15.78125 -1.714844 L 15.519531 0 L 21.386719 0 L 21.386719 -0.128906 C 20.324219 -0.257812 19.414062 -0.546875 19.414062 -1.480469 L 19.414062 -6.460938 C 19.414062 -7.398438 20.324219 -7.707031 21.386719 -7.839844 Z M 21.386719 -7.839844 "/></g></g></g><g fill="#ffffff" fill-opacity="1"><g transform="translate(122.154189, 264.868871)"><g><path d="M 16.457031 -5.527344 C 14.328125 -2.050781 12.691406 -0.414062 9.34375 -0.414062 L 5.917969 -0.414062 L 5.917969 -8.875 L 8.097656 -8.875 C 11.316406 -8.875 12.535156 -8.175781 13.160156 -5.8125 L 13.160156 -12.378906 C 12.535156 -9.992188 11.316406 -9.292969 8.097656 -9.292969 L 5.917969 -9.292969 L 5.917969 -17.753906 L 9.1875 -17.753906 C 12.535156 -17.753906 13.546875 -16.457031 15.519531 -13.546875 L 15.625 -13.601562 L 14.664062 -18.167969 L 0.390625 -18.167969 L 0.390625 -18.039062 C 1.453125 -17.910156 2.363281 -17.625 2.363281 -16.6875 L 2.363281 -2 C 2.363281 -1.0625 1.453125 -0.519531 0.390625 -0.128906 L 0.390625 0 L 14.144531 0 L 15.027344 0.570312 L 15.183594 0 L 16.558594 -5.476562 Z M 16.457031 -5.527344 "/></g></g></g><g fill="#ffffff" fill-opacity="1"><g transform="translate(139.101267, 264.868871)"><g/></g></g><g fill="#ffffff" fill-opacity="1"><g transform="translate(144.291794, 264.868871)"><g><path d="M 18.351562 -2.882812 L 18.167969 -3.011719 C 17.050781 -1.636719 15 -0.960938 13.105469 -0.960938 C 8.28125 -0.960938 5.035156 -5.476562 5.035156 -10.769531 C 5.035156 -15.625 7.476562 -17.988281 10.640625 -17.988281 C 14.613281 -17.988281 16.246094 -14.378906 14.898438 -10.769531 L 14.976562 -10.746094 L 18.738281 -15.804688 C 17.546875 -17.261719 15.441406 -18.53125 12.09375 -18.53125 C 6.75 -18.53125 1.167969 -15.261719 1.167969 -9.03125 C 1.167969 -3.609375 5.503906 0.363281 11.34375 0.363281 C 14.949219 0.363281 17.234375 -1.117188 18.351562 -2.882812 Z M 18.351562 -2.882812 "/></g></g></g><g fill="#ffffff" fill-opacity="1"><g transform="translate(163.808187, 264.868871)"><g><path d="M 11.1875 -18.53125 C 5.527344 -18.53125 1.167969 -14.925781 1.167969 -9.085938 C 1.167969 -3.246094 5.527344 0.363281 11.1875 0.363281 C 16.820312 0.363281 21.179688 -3.246094 21.179688 -9.085938 C 21.179688 -14.925781 16.820312 -18.53125 11.1875 -18.53125 Z M 12.277344 -0.105469 C 7.96875 -0.105469 4.929688 -5.632812 4.929688 -10.824219 C 4.929688 -15.132812 6.957031 -18.066406 10.070312 -18.066406 C 14.378906 -18.066406 17.414062 -12.535156 17.414062 -7.371094 C 17.414062 -3.0625 15.390625 -0.105469 12.277344 -0.105469 Z M 12.277344 -0.105469 "/></g></g></g><g fill="#ffffff" fill-opacity="1"><g transform="translate(186.153409, 264.868871)"><g><path d="M 15.882812 -5.347656 C 13.546875 -2.230469 12.300781 -0.414062 7.917969 -0.414062 L 5.917969 -0.414062 L 5.917969 -16.6875 C 5.917969 -17.625 6.824219 -17.910156 8.148438 -18.039062 L 8.148438 -18.167969 L 0.390625 -18.167969 L 0.390625 -18.039062 C 1.453125 -17.910156 2.363281 -17.625 2.363281 -16.6875 L 2.363281 -2.90625 C 2.363281 -1.53125 1.453125 -0.519531 0.390625 -0.128906 L 0.390625 0 L 13.601562 0 L 14.484375 0.570312 L 14.636719 0 L 15.988281 -5.292969 Z M 15.882812 -5.347656 "/></g></g></g><g fill="#ffffff" fill-opacity="1"><g transform="translate(202.529526, 264.868871)"><g><path d="M 15.882812 -5.347656 C 13.546875 -2.230469 12.300781 -0.414062 7.917969 -0.414062 L 5.917969 -0.414062 L 5.917969 -16.6875 C 5.917969 -17.625 6.824219 -17.910156 8.148438 -18.039062 L 8.148438 -18.167969 L 0.390625 -18.167969 L 0.390625 -18.039062 C 1.453125 -17.910156 2.363281 -17.625 2.363281 -16.6875 L 2.363281 -2.90625 C 2.363281 -1.53125 1.453125 -0.519531 0.390625 -0.128906 L 0.390625 0 L 13.601562 0 L 14.484375 0.570312 L 14.636719 0 L 15.988281 -5.292969 Z M 15.882812 -5.347656 "/></g></g></g><g fill="#ffffff" fill-opacity="1"><g transform="translate(218.905642, 264.868871)"><g><path d="M 16.457031 -5.527344 C 14.328125 -2.050781 12.691406 -0.414062 9.34375 -0.414062 L 5.917969 -0.414062 L 5.917969 -8.875 L 8.097656 -8.875 C 11.316406 -8.875 12.535156 -8.175781 13.160156 -5.8125 L 13.160156 -12.378906 C 12.535156 -9.992188 11.316406 -9.292969 8.097656 -9.292969 L 5.917969 -9.292969 L 5.917969 -17.753906 L 9.1875 -17.753906 C 12.535156 -17.753906 13.546875 -16.457031 15.519531 -13.546875 L 15.625 -13.601562 L 14.664062 -18.167969 L 0.390625 -18.167969 L 0.390625 -18.039062 C 1.453125 -17.910156 2.363281 -17.625 2.363281 -16.6875 L 2.363281 -2 C 2.363281 -1.0625 1.453125 -0.519531 0.390625 -0.128906 L 0.390625 0 L 14.144531 0 L 15.027344 0.570312 L 15.183594 0 L 16.558594 -5.476562 Z M 16.457031 -5.527344 "/></g></g></g><g fill="#ffffff" fill-opacity="1"><g transform="translate(235.85272, 264.868871)"><g><path d="M 21.386719 -7.839844 L 21.386719 -7.96875 L 11.34375 -7.96875 L 10.824219 -7.65625 C 15.183594 -7.527344 15.859375 -7.398438 15.859375 -6.460938 L 15.859375 -2.179688 C 15.15625 -1.453125 14.171875 -0.960938 12.664062 -0.960938 C 8.253906 -0.960938 5.035156 -5.476562 5.035156 -10.769531 C 5.035156 -15.625 7.421875 -17.933594 10.539062 -17.933594 C 14.585938 -17.933594 16.558594 -14.378906 15.210938 -10.796875 L 15.289062 -10.769531 L 19.050781 -15.804688 C 17.855469 -17.261719 15.496094 -18.53125 12.09375 -18.53125 C 6.75 -18.53125 1.167969 -15.261719 1.167969 -9.03125 C 1.167969 -3.609375 5.605469 0.363281 10.460938 0.363281 C 12.769531 0.363281 14.5625 -0.492188 15.78125 -1.714844 L 15.519531 0 L 21.386719 0 L 21.386719 -0.128906 C 20.324219 -0.257812 19.414062 -0.546875 19.414062 -1.480469 L 19.414062 -6.460938 C 19.414062 -7.398438 20.324219 -7.707031 21.386719 -7.839844 Z M 21.386719 -7.839844 "/></g></g></g><g fill="#ffffff" fill-opacity="1"><g transform="translate(257.497234, 264.868871)"><g><path d="M 16.457031 -5.527344 C 14.328125 -2.050781 12.691406 -0.414062 9.34375 -0.414062 L 5.917969 -0.414062 L 5.917969 -8.875 L 8.097656 -8.875 C 11.316406 -8.875 12.535156 -8.175781 13.160156 -5.8125 L 13.160156 -12.378906 C 12.535156 -9.992188 11.316406 -9.292969 8.097656 -9.292969 L 5.917969 -9.292969 L 5.917969 -17.753906 L 9.1875 -17.753906 C 12.535156 -17.753906 13.546875 -16.457031 15.519531 -13.546875 L 15.625 -13.601562 L 14.664062 -18.167969 L 0.390625 -18.167969 L 0.390625 -18.039062 C 1.453125 -17.910156 2.363281 -17.625 2.363281 -16.6875 L 2.363281 -2 C 2.363281 -1.0625 1.453125 -0.519531 0.390625 -0.128906 L 0.390625 0 L 14.144531 0 L 15.027344 0.570312 L 15.183594 0 L 16.558594 -5.476562 Z M 16.457031 -5.527344 "/></g></g></g><g fill="#ffffff" fill-opacity="1"><g transform="translate(112.023198, 284.372881)"><g><path d="M 11.0625 -9.792969 L 11.0625 -9.863281 L 6.988281 -9.863281 L 6.988281 -9.792969 C 7.566406 -9.722656 8.0625 -9.570312 8.0625 -9.0625 L 8.0625 -4.988281 L 3.214844 -4.988281 L 3.214844 -9.0625 C 3.214844 -9.570312 3.707031 -9.722656 4.285156 -9.792969 L 4.285156 -9.863281 L 0.210938 -9.863281 L 0.210938 -9.792969 C 0.789062 -9.722656 1.28125 -9.570312 1.28125 -9.0625 L 1.28125 -0.804688 C 1.28125 -0.296875 0.789062 -0.140625 0.210938 -0.0703125 L 0.210938 0 L 4.285156 0 L 4.285156 -0.0703125 C 3.707031 -0.140625 3.214844 -0.296875 3.214844 -0.804688 L 3.214844 -4.75 L 8.0625 -4.75 L 8.0625 -0.804688 C 8.0625 -0.296875 7.566406 -0.140625 6.988281 -0.0703125 L 6.988281 0 L 11.0625 0 L 11.0625 -0.0703125 C 10.484375 -0.140625 9.992188 -0.296875 9.992188 -0.804688 L 9.992188 -9.0625 C 9.992188 -9.570312 10.484375 -9.722656 11.0625 -9.792969 Z M 11.0625 -9.792969 "/></g></g></g><g fill="#ffffff" fill-opacity="1"><g transform="translate(123.291909, 284.372881)"><g><path d="M 0.210938 0 L 4.285156 0 L 4.285156 -0.0703125 C 3.707031 -0.140625 3.214844 -0.296875 3.214844 -0.804688 L 3.214844 -9.0625 C 3.214844 -9.570312 3.707031 -9.722656 4.285156 -9.792969 L 4.285156 -9.863281 L 0.210938 -9.863281 L 0.210938 -9.792969 C 0.789062 -9.722656 1.28125 -9.570312 1.28125 -9.0625 L 1.28125 -0.804688 C 1.28125 -0.296875 0.789062 -0.140625 0.210938 -0.0703125 Z M 0.210938 0 "/></g></g></g><g fill="#ffffff" fill-opacity="1"><g transform="translate(127.785305, 284.372881)"><g><path d="M 11.613281 -4.257812 L 11.613281 -4.328125 L 6.160156 -4.328125 L 5.875 -4.15625 C 8.242188 -4.085938 8.609375 -4.015625 8.609375 -3.507812 L 8.609375 -1.183594 C 8.230469 -0.789062 7.695312 -0.519531 6.878906 -0.519531 C 4.480469 -0.519531 2.734375 -2.972656 2.734375 -5.847656 C 2.734375 -8.484375 4.03125 -9.738281 5.722656 -9.738281 C 7.921875 -9.738281 8.992188 -7.808594 8.257812 -5.863281 L 8.300781 -5.847656 L 10.34375 -8.582031 C 9.695312 -9.371094 8.414062 -10.0625 6.566406 -10.0625 C 3.664062 -10.0625 0.632812 -8.285156 0.632812 -4.902344 C 0.632812 -1.957031 3.042969 0.199219 5.679688 0.199219 C 6.933594 0.199219 7.90625 -0.269531 8.566406 -0.929688 L 8.425781 0 L 11.613281 0 L 11.613281 -0.0703125 C 11.035156 -0.140625 10.542969 -0.296875 10.542969 -0.804688 L 10.542969 -3.507812 C 10.542969 -4.015625 11.035156 -4.183594 11.613281 -4.257812 Z M 11.613281 -4.257812 "/></g></g></g><g fill="#ffffff" fill-opacity="1"><g transform="translate(139.532939, 284.372881)"><g><path d="M 11.0625 -9.792969 L 11.0625 -9.863281 L 6.988281 -9.863281 L 6.988281 -9.792969 C 7.566406 -9.722656 8.0625 -9.570312 8.0625 -9.0625 L 8.0625 -4.988281 L 3.214844 -4.988281 L 3.214844 -9.0625 C 3.214844 -9.570312 3.707031 -9.722656 4.285156 -9.792969 L 4.285156 -9.863281 L 0.210938 -9.863281 L 0.210938 -9.792969 C 0.789062 -9.722656 1.28125 -9.570312 1.28125 -9.0625 L 1.28125 -0.804688 C 1.28125 -0.296875 0.789062 -0.140625 0.210938 -0.0703125 L 0.210938 0 L 4.285156 0 L 4.285156 -0.0703125 C 3.707031 -0.140625 3.214844 -0.296875 3.214844 -0.804688 L 3.214844 -4.75 L 8.0625 -4.75 L 8.0625 -0.804688 C 8.0625 -0.296875 7.566406 -0.140625 6.988281 -0.0703125 L 6.988281 0 L 11.0625 0 L 11.0625 -0.0703125 C 10.484375 -0.140625 9.992188 -0.296875 9.992188 -0.804688 L 9.992188 -9.0625 C 9.992188 -9.570312 10.484375 -9.722656 11.0625 -9.792969 Z M 11.0625 -9.792969 "/></g></g></g><g fill="#ffffff" fill-opacity="1"><g transform="translate(150.80165, 284.372881)"><g><path d="M 8.933594 -3 C 7.777344 -1.113281 6.890625 -0.226562 5.074219 -0.226562 L 3.214844 -0.226562 L 3.214844 -4.820312 L 4.398438 -4.820312 C 6.144531 -4.820312 6.808594 -4.4375 7.144531 -3.15625 L 7.144531 -6.722656 C 6.808594 -5.425781 6.144531 -5.046875 4.398438 -5.046875 L 3.214844 -5.046875 L 3.214844 -9.640625 L 4.988281 -9.640625 C 6.808594 -9.640625 7.355469 -8.933594 8.425781 -7.355469 L 8.484375 -7.382812 L 7.960938 -9.863281 L 0.210938 -9.863281 L 0.210938 -9.792969 C 0.789062 -9.722656 1.28125 -9.570312 1.28125 -9.0625 L 1.28125 -1.085938 C 1.28125 -0.578125 0.789062 -0.28125 0.210938 -0.0703125 L 0.210938 0 L 7.679688 0 L 8.160156 0.308594 L 8.242188 0 L 8.992188 -2.972656 Z M 8.933594 -3 "/></g></g></g><g fill="#ffffff" fill-opacity="1"><g transform="translate(159.999735, 284.372881)"><g><path d="M 8.457031 -1.859375 L 6.75 -4.199219 C 8.457031 -4.664062 9.5 -5.792969 9.5 -7.203125 C 9.5 -9.035156 8.046875 -9.863281 5.523438 -9.863281 L 0.210938 -9.863281 L 0.210938 -9.792969 C 0.789062 -9.722656 1.28125 -9.570312 1.28125 -9.0625 L 1.28125 -0.804688 C 1.28125 -0.296875 0.789062 -0.140625 0.210938 -0.0703125 L 0.210938 0 L 4.285156 0 L 4.285156 -0.0703125 C 3.707031 -0.140625 3.214844 -0.296875 3.214844 -0.804688 L 3.214844 -3.972656 L 4.863281 -3.972656 L 7.511719 -0.238281 L 7.511719 0 L 10.554688 0 L 10.554688 -0.0429688 C 9.824219 -0.410156 9.285156 -0.71875 8.457031 -1.859375 Z M 3.214844 -9.609375 L 4.761719 -9.609375 C 7.171875 -9.609375 7.597656 -8.117188 7.597656 -6.625 C 7.597656 -4.664062 6.878906 -4.199219 5.453125 -4.199219 C 4.722656 -4.199219 3.945312 -4.3125 3.214844 -4.523438 Z M 3.214844 -9.609375 "/></g></g></g><g fill="#ffffff" fill-opacity="1"><g transform="translate(170.409211, 284.372881)"><g/></g></g><g fill="#ffffff" fill-opacity="1"><g transform="translate(173.226392, 284.372881)"><g><path d="M 8.933594 -3 C 7.777344 -1.113281 6.890625 -0.226562 5.074219 -0.226562 L 3.214844 -0.226562 L 3.214844 -4.820312 L 4.398438 -4.820312 C 6.144531 -4.820312 6.808594 -4.4375 7.144531 -3.15625 L 7.144531 -6.722656 C 6.808594 -5.425781 6.144531 -5.046875 4.398438 -5.046875 L 3.214844 -5.046875 L 3.214844 -9.640625 L 4.988281 -9.640625 C 6.808594 -9.640625 7.355469 -8.933594 8.425781 -7.355469 L 8.484375 -7.382812 L 7.960938 -9.863281 L 0.210938 -9.863281 L 0.210938 -9.792969 C 0.789062 -9.722656 1.28125 -9.570312 1.28125 -9.0625 L 1.28125 -1.085938 C 1.28125 -0.578125 0.789062 -0.28125 0.210938 -0.0703125 L 0.210938 0 L 7.679688 0 L 8.160156 0.308594 L 8.242188 0 L 8.992188 -2.972656 Z M 8.933594 -3 "/></g></g></g><g fill="#ffffff" fill-opacity="1"><g transform="translate(182.424477, 284.372881)"><g><path d="M 4.722656 -9.863281 L 0.210938 -9.863281 L 0.210938 -9.792969 C 0.789062 -9.722656 1.28125 -9.570312 1.28125 -9.0625 L 1.28125 -1.085938 C 1.28125 -0.578125 0.789062 -0.28125 0.210938 -0.0703125 L 0.210938 0 L 4.4375 0 C 7.808594 0 10.300781 -1.847656 10.300781 -5.1875 C 10.300781 -8.144531 8.371094 -9.863281 4.722656 -9.863281 Z M 5.15625 -0.253906 C 4.410156 -0.253906 3.761719 -0.410156 3.214844 -0.648438 L 3.214844 -9.640625 L 4.15625 -9.640625 C 7.003906 -9.640625 8.257812 -7.511719 8.257812 -4.398438 C 8.257812 -1.210938 7.019531 -0.253906 5.15625 -0.253906 Z M 5.15625 -0.253906 "/></g></g></g><g fill="#ffffff" fill-opacity="1"><g transform="translate(193.284702, 284.372881)"><g><path d="M 5.371094 0.199219 C 7.539062 0.199219 9.160156 -1.183594 9.160156 -3.761719 L 9.160156 -7.90625 C 9.160156 -9.582031 9.652344 -9.738281 10.230469 -9.808594 L 10.230469 -9.878906 L 7.652344 -9.878906 L 7.652344 -9.808594 C 8.371094 -9.738281 8.863281 -9.300781 8.863281 -7.625 L 8.863281 -3.59375 C 8.863281 -1.238281 7.171875 -0.308594 5.863281 -0.308594 C 4.777344 -0.308594 3.214844 -0.945312 3.214844 -3.566406 L 3.214844 -9.0625 C 3.214844 -9.570312 3.707031 -9.722656 4.285156 -9.792969 L 4.285156 -9.863281 L 0.210938 -9.863281 L 0.210938 -9.792969 C 0.789062 -9.722656 1.28125 -9.570312 1.28125 -9.0625 L 1.28125 -3.734375 C 1.28125 -0.492188 3.832031 0.199219 5.371094 0.199219 Z M 5.371094 0.199219 "/></g></g></g><g fill="#ffffff" fill-opacity="1"><g transform="translate(203.722343, 284.372881)"><g><path d="M 9.964844 -1.5625 L 9.863281 -1.632812 C 9.257812 -0.886719 8.144531 -0.519531 7.117188 -0.519531 C 4.496094 -0.519531 2.734375 -2.972656 2.734375 -5.847656 C 2.734375 -8.484375 4.058594 -9.765625 5.777344 -9.765625 C 7.933594 -9.765625 8.820312 -7.808594 8.089844 -5.847656 L 8.132812 -5.835938 L 10.175781 -8.582031 C 9.527344 -9.371094 8.386719 -10.0625 6.566406 -10.0625 C 3.664062 -10.0625 0.632812 -8.285156 0.632812 -4.902344 C 0.632812 -1.957031 2.988281 0.199219 6.160156 0.199219 C 8.117188 0.199219 9.355469 -0.605469 9.964844 -1.5625 Z M 9.964844 -1.5625 "/></g></g></g><g fill="#ffffff" fill-opacity="1"><g transform="translate(214.314936, 284.372881)"><g><path d="M 10.019531 -1.777344 L 7.046875 -9.285156 C 6.75 -10.019531 6.722656 -10.1875 6.722656 -10.273438 L 5.058594 -9.386719 L 4.792969 -9.230469 L 4.820312 -8.820312 L 1.734375 -1.707031 C 1.210938 -0.492188 0.875 -0.226562 0.28125 -0.0546875 L 0.28125 0 L 2.875 0 L 2.875 -0.0546875 C 2.085938 -0.226562 1.523438 -0.480469 2.042969 -1.691406 L 2.351562 -2.394531 L 7.738281 -2.394531 L 8.019531 -1.691406 C 8.511719 -0.449219 7.949219 -0.140625 6.960938 -0.0546875 L 6.960938 0 L 11.414062 0 L 11.414062 -0.0546875 C 10.78125 -0.140625 10.527344 -0.480469 10.019531 -1.777344 Z M 2.453125 -2.648438 L 5.144531 -8.863281 L 7.636719 -2.648438 Z M 2.453125 -2.648438 "/></g></g></g><g fill="#ffffff" fill-opacity="1"><g transform="translate(226.006219, 284.372881)"><g><path d="M 9.835938 -9.863281 L 0.605469 -9.863281 L 0.140625 -6.960938 L 0.199219 -6.960938 C 1 -8.863281 1.847656 -9.640625 3.945312 -9.652344 L 3.945312 -0.945312 C 3.945312 -0.296875 3.453125 -0.140625 2.59375 -0.0703125 L 2.59375 0 L 7.230469 0 L 7.230469 -0.0703125 C 6.371094 -0.140625 5.875 -0.296875 5.875 -0.945312 L 5.875 -9.652344 L 6.410156 -9.652344 C 7.992188 -9.652344 9.0625 -8.878906 8.878906 -6.960938 L 8.933594 -6.960938 Z M 9.835938 -9.863281 "/></g></g></g><g fill="#ffffff" fill-opacity="1"><g transform="translate(235.979024, 284.372881)"><g><path d="M 0.210938 0 L 4.285156 0 L 4.285156 -0.0703125 C 3.707031 -0.140625 3.214844 -0.296875 3.214844 -0.804688 L 3.214844 -9.0625 C 3.214844 -9.570312 3.707031 -9.722656 4.285156 -9.792969 L 4.285156 -9.863281 L 0.210938 -9.863281 L 0.210938 -9.792969 C 0.789062 -9.722656 1.28125 -9.570312 1.28125 -9.0625 L 1.28125 -0.804688 C 1.28125 -0.296875 0.789062 -0.140625 0.210938 -0.0703125 Z M 0.210938 0 "/></g></g></g><g fill="#ffffff" fill-opacity="1"><g transform="translate(240.47242, 284.372881)"><g><path d="M 6.074219 -10.0625 C 3 -10.0625 0.632812 -8.101562 0.632812 -4.933594 C 0.632812 -1.761719 3 0.199219 6.074219 0.199219 C 9.132812 0.199219 11.5 -1.761719 11.5 -4.933594 C 11.5 -8.101562 9.132812 -10.0625 6.074219 -10.0625 Z M 6.664062 -0.0546875 C 4.328125 -0.0546875 2.675781 -3.058594 2.675781 -5.875 C 2.675781 -8.214844 3.777344 -9.808594 5.46875 -9.808594 C 7.808594 -9.808594 9.457031 -6.808594 9.457031 -4.003906 C 9.457031 -1.664062 8.355469 -0.0546875 6.664062 -0.0546875 Z M 6.664062 -0.0546875 "/></g></g></g><g fill="#ffffff" fill-opacity="1"><g transform="translate(252.600364, 284.372881)"><g><path d="M 7.738281 -9.863281 L 7.738281 -9.792969 C 8.316406 -9.722656 8.808594 -9.285156 8.808594 -7.371094 L 8.808594 -2.890625 L 3.394531 -9.273438 C 3.199219 -9.570312 3.058594 -9.722656 2.972656 -9.863281 L 0.140625 -9.863281 C 0.59375 -9.640625 0.945312 -9.316406 1.421875 -8.75 L 1.421875 -2.210938 C 1.421875 -0.296875 0.929688 -0.140625 0.351562 -0.0703125 L 0.351562 0 L 2.777344 0 L 2.777344 -0.0703125 C 2.199219 -0.140625 1.707031 -0.578125 1.707031 -2.496094 L 1.707031 -8.414062 L 9.117188 0.394531 L 9.144531 0.367188 C 9.117188 -0.140625 9.074219 -0.875 9.074219 -2.339844 L 9.074219 -7.652344 C 9.074219 -9.570312 9.570312 -9.722656 10.148438 -9.792969 L 10.148438 -9.863281 Z M 7.738281 -9.863281 "/></g></g></g></svg>