<svg xmlns="http://www.w3.org/2000/svg" xmlns:xlink="http://www.w3.org/1999/xlink" width="500" zoomAndPan="magnify" viewBox="0 0 375 374.999991" height="500" preserveAspectRatio="xMidYMid meet" version="1.0"><defs><g/><clipPath id="c09c88c768"><path d="M 68.636719 162 L 106 162 L 106 198 L 68.636719 198 Z M 68.636719 162 " clip-rule="nonzero"/></clipPath><clipPath id="a5883b71f7"><path d="M 173 251 L 202 251 L 202 291.425781 L 173 291.425781 Z M 173 251 " clip-rule="nonzero"/></clipPath><clipPath id="07c5167404"><path d="M 269 162 L 306.960938 162 L 306.960938 198 L 269 198 Z M 269 162 " clip-rule="nonzero"/></clipPath><clipPath id="508d3172e4"><path d="M 130.117188 85.203125 L 237 85.203125 L 237 153 L 130.117188 153 Z M 130.117188 85.203125 " clip-rule="nonzero"/></clipPath><clipPath id="12d4b95b2d"><path d="M 134 144 L 234 144 L 234 196.675781 L 134 196.675781 Z M 134 144 " clip-rule="nonzero"/></clipPath><clipPath id="20af88c099"><path d="M 172.535156 196.378906 L 202.007812 196.378906 L 202.007812 224.566406 L 172.535156 224.566406 Z M 172.535156 196.378906 " clip-rule="nonzero"/></clipPath><clipPath id="8ec815f2c0"><path d="M 172.535156 196.378906 L 202 196.378906 L 202 224.566406 L 172.535156 224.566406 Z M 172.535156 196.378906 " clip-rule="nonzero"/></clipPath></defs><path fill="#ffffff" d="M 233.496094 63.320312 L 141.5 63.320312 C 141.5 63.320312 138.164062 84.652344 113.5 87.988281 L 113.5 157.320312 C 113.5 216.359375 187.496094 250.359375 187.496094 250.359375 C 187.496094 250.359375 261.496094 216.359375 261.496094 157.320312 L 261.496094 87.984375 C 236.828125 84.652344 233.496094 63.320312 233.496094 63.320312 Z M 254.898438 157.316406 C 254.898438 205.277344 200.484375 236.277344 187.496094 242.992188 C 181.785156 240.042969 168.070312 232.414062 154.558594 220.761719 C 144.410156 212.015625 136.359375 202.746094 130.625 193.207031 C 123.640625 181.589844 120.097656 169.515625 120.097656 157.316406 L 120.097656 93.402344 C 131.691406 90.367188 138.453125 83.625 142.203125 78.117188 C 144.222656 75.148438 145.570312 72.273438 146.453125 69.917969 L 228.546875 69.917969 C 229.429688 72.273438 230.773438 75.148438 232.792969 78.117188 C 236.542969 83.621094 243.308594 90.367188 254.898438 93.402344 Z M 254.898438 157.316406 " fill-opacity="1" fill-rule="nonzero"/><path fill="#ffffff" d="M 157.761719 42.394531 L 217.234375 42.394531 C 217.234375 42.394531 225.34375 37.027344 227.695312 24.945312 C 229.570312 15.304688 223.464844 7.007812 223.464844 7.007812 L 222.644531 14.207031 L 225.8125 20.347656 C 225.8125 20.347656 224.226562 18.355469 222.050781 18.417969 C 222.050781 18.417969 222.226562 21.589844 224.578125 22.808594 C 224.578125 22.808594 220.816406 22.382812 219.878906 25.191406 C 218.9375 27.996094 221.464844 28.058594 221.464844 28.058594 C 221.464844 28.058594 219.996094 26.226562 221.582031 25.3125 C 223.167969 24.394531 224 26.042969 222.644531 28.910156 C 221.289062 31.777344 218.761719 34.585938 216.765625 34.707031 C 215.625 34.777344 215.042969 33.777344 214.75 32.90625 C 215.691406 32.742188 216.410156 31.890625 216.410156 30.863281 C 216.410156 29.714844 215.515625 28.789062 214.414062 28.789062 C 213.3125 28.789062 212.414062 29.714844 212.414062 30.863281 C 212.414062 31.894531 213.136719 32.742188 214.085938 32.90625 C 213.707031 33.703125 212.972656 34.605469 211.59375 34.707031 C 209.066406 34.890625 207.597656 29.398438 207.949219 27.8125 C 208.300781 26.226562 210.535156 26.105469 210.652344 27.507812 C 210.652344 27.507812 211.476562 25.796875 210.007812 25.1875 C 209.15625 24.835938 208.484375 25.054688 208.066406 25.300781 C 208.75 24.695312 209.96875 23.359375 210.300781 21.28125 C 210.300781 21.28125 208.066406 21.40625 206.890625 23.664062 L 208.183594 19.148438 L 205.597656 14.023438 L 203.011719 19.148438 L 204.304688 23.664062 C 203.128906 21.40625 200.894531 21.285156 200.894531 21.285156 C 201.230469 23.359375 202.445312 24.699219 203.128906 25.304688 C 202.710938 25.058594 202.039062 24.835938 201.191406 25.191406 C 199.722656 25.800781 200.542969 27.507812 200.542969 27.507812 C 200.660156 26.105469 202.894531 26.226562 203.246094 27.8125 C 203.597656 29.402344 202.128906 34.890625 199.601562 34.710938 C 198.207031 34.609375 197.476562 33.691406 197.101562 32.890625 C 197.996094 32.683594 198.664062 31.855469 198.664062 30.867188 C 198.664062 29.71875 197.769531 28.789062 196.664062 28.789062 C 195.5625 28.789062 194.667969 29.71875 194.667969 30.867188 C 194.667969 31.871094 195.355469 32.707031 196.269531 32.898438 C 195.847656 33.691406 195.078125 34.582031 193.726562 34.648438 C 191.257812 34.769531 188.847656 25.863281 189.964844 22.933594 C 191.082031 20.007812 194.503906 22.140625 193.203125 24.460938 C 193.203125 24.460938 194.84375 24.277344 194.960938 21.894531 C 195.0625 19.828125 192.503906 18.546875 190.714844 19.445312 C 191.332031 18.90625 192.183594 17.980469 192.667969 16.648438 C 192.667969 16.648438 190.550781 16.160156 188.90625 18.171875 L 190.902344 12.742188 L 187.496094 7.007812 L 184.089844 12.742188 L 186.085938 18.171875 C 184.441406 16.160156 182.324219 16.648438 182.324219 16.648438 C 182.8125 17.980469 183.660156 18.90625 184.28125 19.445312 C 182.488281 18.542969 179.929688 19.828125 180.03125 21.894531 C 180.152344 24.277344 181.789062 24.460938 181.789062 24.460938 C 180.492188 22.140625 183.914062 20.003906 185.027344 22.933594 C 186.144531 25.863281 183.734375 34.769531 181.265625 34.648438 C 179.914062 34.582031 179.144531 33.691406 178.726562 32.898438 C 179.636719 32.707031 180.328125 31.871094 180.328125 30.867188 C 180.328125 29.71875 179.433594 28.789062 178.328125 28.789062 C 177.226562 28.789062 176.332031 29.71875 176.332031 30.867188 C 176.332031 31.855469 177 32.683594 177.894531 32.890625 C 177.515625 33.691406 176.785156 34.609375 175.390625 34.710938 C 172.863281 34.890625 171.394531 29.402344 171.75 27.8125 C 172.101562 26.226562 174.335938 26.105469 174.449219 27.507812 C 174.449219 27.507812 175.273438 25.800781 173.804688 25.191406 C 172.953125 24.835938 172.28125 25.058594 171.867188 25.304688 C 172.546875 24.699219 173.765625 23.359375 174.097656 21.285156 C 174.097656 21.285156 171.863281 21.40625 170.691406 23.664062 L 171.984375 19.148438 L 169.398438 14.023438 L 166.8125 19.148438 L 168.105469 23.664062 C 166.929688 21.40625 164.695312 21.285156 164.695312 21.285156 C 165.027344 23.359375 166.246094 24.699219 166.929688 25.304688 C 166.511719 25.058594 165.839844 24.835938 164.988281 25.191406 C 163.519531 25.800781 164.34375 27.507812 164.34375 27.507812 C 164.460938 26.105469 166.695312 26.226562 167.046875 27.8125 C 167.398438 29.402344 165.929688 34.890625 163.402344 34.710938 C 162.023438 34.609375 161.289062 33.707031 160.910156 32.910156 C 161.859375 32.746094 162.582031 31.894531 162.582031 30.867188 C 162.582031 29.71875 161.6875 28.789062 160.582031 28.789062 C 159.480469 28.789062 158.585938 29.71875 158.585938 30.867188 C 158.585938 31.894531 159.304688 32.742188 160.246094 32.910156 C 159.953125 33.78125 159.371094 34.78125 158.234375 34.710938 C 156.234375 34.589844 153.707031 31.78125 152.355469 28.914062 C 151 26.046875 151.828125 24.398438 153.414062 25.316406 C 155 26.230469 153.53125 28.0625 153.53125 28.0625 C 153.53125 28.0625 156.058594 28 155.121094 25.195312 C 154.179688 22.386719 150.417969 22.8125 150.417969 22.8125 C 152.769531 21.59375 152.945312 18.417969 152.945312 18.417969 C 150.769531 18.359375 149.183594 20.351562 149.183594 20.351562 L 152.355469 14.210938 L 151.535156 7.011719 C 151.535156 7.011719 145.425781 15.308594 147.304688 24.949219 C 149.652344 37.027344 157.761719 42.394531 157.761719 42.394531 Z M 205.539062 31.167969 C 205.539062 31.167969 207.917969 34.164062 207.664062 35.636719 C 207.410156 37.105469 205.839844 36.84375 205.539062 35.425781 C 205.234375 36.84375 203.664062 37.105469 203.414062 35.636719 C 203.160156 34.164062 205.539062 31.167969 205.539062 31.167969 Z M 187.496094 30.863281 C 187.496094 30.863281 189.875 33.859375 189.625 35.332031 C 189.371094 36.804688 187.800781 36.542969 187.496094 35.121094 C 187.195312 36.542969 185.625 36.804688 185.371094 35.332031 C 185.117188 33.859375 187.496094 30.863281 187.496094 30.863281 Z M 169.457031 31.167969 C 169.457031 31.167969 171.835938 34.164062 171.582031 35.636719 C 171.328125 37.105469 169.757812 36.84375 169.457031 35.425781 C 169.152344 36.84375 167.582031 37.105469 167.332031 35.636719 C 167.078125 34.164062 169.457031 31.167969 169.457031 31.167969 Z M 169.457031 31.167969 " fill-opacity="1" fill-rule="nonzero"/><path fill="#ffffff" d="M 217.585938 46.179688 C 218.253906 46.179688 218.800781 45.636719 218.800781 44.96875 C 218.800781 44.300781 218.253906 43.753906 217.585938 43.753906 L 157.410156 43.753906 C 156.742188 43.753906 156.195312 44.296875 156.195312 44.96875 C 156.195312 45.632812 156.742188 46.179688 157.410156 46.179688 Z M 217.585938 46.179688 " fill-opacity="1" fill-rule="nonzero"/><path fill="#ffffff" d="M 155.722656 57.203125 L 219.273438 57.203125 C 219.273438 57.203125 220.371094 51.429688 217.566406 47.539062 L 157.429688 47.539062 C 154.625 51.429688 155.722656 57.203125 155.722656 57.203125 Z M 205.511719 51.882812 C 205.945312 51.882812 206.296875 52.234375 206.296875 52.667969 C 206.296875 53.101562 205.945312 53.453125 205.511719 53.453125 C 205.078125 53.453125 204.722656 53.101562 204.722656 52.667969 C 204.726562 52.234375 205.078125 51.882812 205.511719 51.882812 Z M 202.957031 51.601562 C 203.546875 51.601562 204.023438 52.078125 204.023438 52.667969 C 204.023438 53.257812 203.546875 53.738281 202.957031 53.738281 C 202.363281 53.738281 201.886719 53.257812 201.886719 52.667969 C 201.886719 52.078125 202.363281 51.601562 202.957031 51.601562 Z M 199.890625 51.308594 C 200.640625 51.308594 201.246094 51.917969 201.246094 52.667969 C 201.246094 53.417969 200.640625 54.023438 199.890625 54.023438 C 199.140625 54.023438 198.53125 53.417969 198.53125 52.667969 C 198.53125 51.917969 199.140625 51.308594 199.890625 51.308594 Z M 192.964844 52.667969 C 193.878906 52.050781 194.65625 50.820312 194 50.28125 C 193.339844 49.742188 192.730469 50.515625 192.730469 50.515625 C 192.542969 49.4375 193.949219 48.6875 194.75 49.625 C 195.546875 50.5625 194.699219 52.132812 194.699219 52.132812 L 195.96875 51.59375 L 197.984375 52.667969 L 195.96875 53.738281 L 194.699219 53.203125 C 194.699219 53.203125 195.546875 54.769531 194.75 55.707031 C 193.949219 56.648438 192.542969 55.894531 192.730469 54.816406 C 192.730469 54.816406 193.339844 55.589844 194 55.050781 C 194.65625 54.511719 193.878906 53.285156 192.964844 52.667969 Z M 190.578125 50.722656 C 191.03125 50.722656 191.402344 51.09375 191.402344 51.546875 C 191.402344 52.003906 191.03125 52.371094 190.578125 52.371094 C 190.121094 52.371094 189.753906 52.003906 189.753906 51.546875 C 189.753906 51.09375 190.121094 50.722656 190.578125 50.722656 Z M 184.417969 50.722656 C 184.875 50.722656 185.242188 51.09375 185.242188 51.546875 C 185.242188 52.003906 184.875 52.371094 184.417969 52.371094 C 183.964844 52.371094 183.59375 52.003906 183.59375 51.546875 C 183.59375 51.09375 183.964844 50.722656 184.417969 50.722656 Z M 183.542969 53.441406 C 184.761719 52.40625 186.800781 53.503906 186.800781 53.503906 L 186.105469 51.855469 L 187.496094 49.230469 L 188.890625 51.855469 L 188.191406 53.503906 C 188.191406 53.503906 190.230469 52.402344 191.449219 53.441406 C 192.671875 54.476562 191.695312 56.308594 190.292969 56.066406 C 190.292969 56.066406 191.296875 55.273438 190.597656 54.417969 C 189.894531 53.5625 188.300781 54.570312 187.496094 55.761719 C 186.691406 54.570312 185.097656 53.5625 184.394531 54.417969 C 183.691406 55.273438 184.699219 56.066406 184.699219 56.066406 C 183.296875 56.308594 182.324219 54.476562 183.542969 53.441406 Z M 179.027344 51.597656 L 180.292969 52.132812 C 180.292969 52.132812 179.449219 50.5625 180.246094 49.625 C 181.046875 48.6875 182.453125 49.441406 182.265625 50.519531 C 182.265625 50.519531 181.652344 49.742188 180.996094 50.285156 C 180.339844 50.824219 181.113281 52.050781 182.03125 52.667969 C 181.117188 53.285156 180.339844 54.511719 180.996094 55.054688 C 181.652344 55.59375 182.265625 54.816406 182.265625 54.816406 C 182.453125 55.898438 181.046875 56.648438 180.246094 55.710938 C 179.449219 54.769531 180.292969 53.203125 180.292969 53.203125 L 179.027344 53.738281 L 177.011719 52.667969 Z M 175.105469 51.308594 C 175.855469 51.308594 176.464844 51.917969 176.464844 52.667969 C 176.464844 53.417969 175.855469 54.023438 175.105469 54.023438 C 174.355469 54.023438 173.75 53.417969 173.75 52.667969 C 173.746094 51.917969 174.355469 51.308594 175.105469 51.308594 Z M 172.039062 51.601562 C 172.628906 51.601562 173.109375 52.078125 173.109375 52.667969 C 173.109375 53.257812 172.628906 53.738281 172.039062 53.738281 C 171.449219 53.738281 170.972656 53.257812 170.972656 52.667969 C 170.972656 52.078125 171.453125 51.601562 172.039062 51.601562 Z M 169.484375 51.882812 C 169.917969 51.882812 170.269531 52.234375 170.269531 52.667969 C 170.269531 53.101562 169.917969 53.453125 169.484375 53.453125 C 169.050781 53.453125 168.699219 53.101562 168.699219 52.667969 C 168.699219 52.234375 169.050781 51.882812 169.484375 51.882812 Z M 169.484375 51.882812 " fill-opacity="1" fill-rule="nonzero"/><path fill="#ffffff" d="M 154.730469 59.117188 C 154.730469 59.585938 155.117188 59.972656 155.585938 59.972656 L 219.410156 59.972656 C 219.878906 59.972656 220.261719 59.585938 220.261719 59.117188 C 220.261719 58.648438 219.878906 58.261719 219.410156 58.261719 L 155.585938 58.261719 C 155.117188 58.261719 154.730469 58.644531 154.730469 59.117188 Z M 154.730469 59.117188 " fill-opacity="1" fill-rule="nonzero"/><path fill="#ffffff" d="M 178.746094 249.28125 C 174.140625 249.527344 170.207031 246.257812 168.476562 247.023438 C 166.75 247.792969 167.902344 249.28125 167.902344 249.28125 C 166.847656 249.335938 163.871094 247.601562 162.433594 247.984375 C 160.992188 248.367188 161.664062 250.382812 161.664062 250.382812 C 161.664062 250.382812 157.828125 247.023438 155.90625 248.078125 C 153.988281 249.136719 155.90625 250.835938 155.90625 250.835938 C 152.550781 250.902344 147.945312 244.722656 151.015625 240.59375 C 154.085938 236.46875 158.59375 240.59375 157.058594 242.128906 C 155.523438 243.664062 154.566406 245.585938 157.828125 246.0625 C 161.089844 246.542969 163.105469 240.402344 160.609375 237.140625 C 158.113281 233.878906 153.414062 235.125 153.414062 235.125 C 154.660156 234.835938 155.046875 232.34375 152.261719 232.246094 C 149.480469 232.148438 146.984375 235.507812 146.984375 235.507812 C 147.558594 233.78125 145.546875 231.480469 143.527344 234.070312 C 141.515625 236.660156 144.105469 242.324219 144.105469 242.324219 C 140.074219 237.523438 136.523438 238.867188 134.988281 240.5 C 133.453125 242.132812 130.480469 240.5 130.480469 240.5 C 132.300781 244.914062 135.371094 245.679688 138.347656 245.96875 C 141.324219 246.257812 143.878906 248.6875 143.878906 248.6875 C 139.65625 246.769531 135.949219 250.835938 135.949219 250.835938 C 141.578125 251.0625 140.554688 252.269531 150.660156 255.339844 C 160.769531 258.410156 178.746094 249.28125 178.746094 249.28125 Z M 178.746094 249.28125 " fill-opacity="1" fill-rule="nonzero"/><path fill="#ffffff" d="M 170.816406 255.285156 C 167.363281 261.121094 163.152344 259.6875 163.152344 259.6875 C 167.324219 259.238281 170.253906 254.054688 170.253906 254.054688 C 166.085938 258.71875 155.152344 258.109375 155.152344 258.109375 C 158.195312 263.96875 164.167969 262.054688 164.167969 262.054688 C 161.417969 264.890625 162.929688 268.140625 162.929688 268.140625 C 165.746094 267.125 167.097656 263.179688 167.097656 263.179688 C 167.417969 268.28125 174.757812 268.929688 174.757812 268.929688 C 170.027344 263.746094 170.816406 255.285156 170.816406 255.285156 Z M 170.816406 255.285156 " fill-opacity="1" fill-rule="nonzero"/><path fill="#ffffff" d="M 148.015625 232.246094 C 150.03125 225.648438 138.671875 219.96875 136.195312 220.332031 C 133.722656 220.699219 134.730469 222.625 134.730469 222.625 C 134.730469 222.625 131.890625 218.5 129.875 218.867188 C 127.859375 219.234375 128.867188 221.15625 128.867188 221.15625 C 128.867188 221.15625 125.476562 216.761719 123.644531 218.089844 C 121.808594 219.414062 123.460938 220.976562 123.460938 220.976562 C 116.3125 219.875 115.121094 211.445312 118.421875 208.972656 C 121.71875 206.5 125.203125 208.605469 125.203125 208.605469 C 125.203125 208.605469 122.542969 207.875 122.910156 211.355469 C 123.277344 214.835938 129.140625 214.46875 129.597656 210.714844 C 130.058594 206.957031 127.765625 204.027344 123.003906 203.933594 C 118.238281 203.839844 110.359375 208.425781 113.382812 217.769531 C 116.40625 227.117188 128.957031 227.296875 138.578125 227.484375 C 148.199219 227.664062 148.015625 232.246094 148.015625 232.246094 Z M 148.015625 232.246094 " fill-opacity="1" fill-rule="nonzero"/><path fill="#ffffff" d="M 129.128906 236.460938 C 129.128906 236.460938 129.035156 234.261719 132.382812 232.246094 C 135.726562 230.230469 137.375 233.804688 135.632812 235.269531 C 133.894531 236.734375 133.253906 235.269531 133.253906 235.269531 C 133.253906 235.269531 132.792969 237.558594 135.175781 237.558594 C 137.558594 237.558594 138.566406 235.910156 140.125 233.34375 C 141.683594 230.777344 144.613281 230.320312 146.539062 231.695312 C 146.808594 231.886719 144.980469 227.117188 134.625 229.039062 C 124.273438 230.964844 118.222656 226.382812 118.222656 226.382812 C 118.222656 226.382812 119.875 228.03125 120.148438 229.589844 C 120.421875 231.148438 123.628906 231.238281 123.628906 231.238281 C 123.628906 231.238281 121.339844 231.878906 121.0625 233.710938 C 120.789062 235.546875 119.875 236.09375 119.875 236.09375 C 119.875 236.09375 124.453125 237.363281 127.113281 233.4375 C 127.113281 233.4375 124.457031 233.53125 123.449219 234.628906 C 123.449219 234.628906 125.554688 232.15625 128.394531 232.246094 C 128.394531 232.246094 126.65625 234.5625 127.203125 236.289062 C 127.753906 238.019531 127.023438 239.117188 127.023438 239.117188 C 127.023438 239.117188 131.601562 237.746094 132.382812 233.164062 C 132.382812 233.160156 130.109375 234.28125 129.128906 236.460938 Z M 129.128906 236.460938 " fill-opacity="1" fill-rule="nonzero"/><path fill="#ffffff" d="M 124.121094 199.570312 C 124.121094 199.570312 110.515625 188.300781 111.339844 181.15625 C 112.167969 174.007812 111.617188 165.898438 105.15625 166.585938 C 98.695312 167.273438 101.023438 172.496094 101.023438 172.496094 C 100.46875 169.472656 105.703125 168.785156 105.980469 172.632812 C 106.253906 176.480469 101.308594 179.503906 98.007812 175.792969 C 94.707031 172.082031 95.945312 165.347656 93.882812 164.660156 C 91.824219 163.972656 90.722656 166.035156 90.722656 166.035156 C 89.351562 161.910156 92.234375 155.175781 89.898438 154.078125 C 87.5625 152.976562 86.324219 155.726562 86.324219 155.726562 C 86.734375 151.328125 91.960938 149.265625 91.136719 146.378906 C 90.308594 143.492188 87.289062 145.140625 87.289062 145.140625 C 91.136719 138.269531 103.503906 141.019531 102.957031 146.515625 C 102.40625 152.015625 96.636719 147.066406 95.808594 152.5625 C 94.984375 158.0625 110.105469 161.910156 110.105469 146.515625 C 110.105469 131.121094 77.117188 122.875 77.941406 154.488281 C 78.765625 186.101562 124.121094 201.769531 124.121094 201.769531 C 109.417969 195.171875 107.078125 182.390625 107.078125 182.390625 C 110.929688 193.523438 124.121094 199.570312 124.121094 199.570312 Z M 124.121094 199.570312 " fill-opacity="1" fill-rule="nonzero"/><path fill="#ffffff" d="M 96.945312 199.625 C 86.378906 204.957031 91.117188 218.089844 97.929688 218.089844 C 104.742188 218.089844 106.519531 212.855469 104.742188 210.878906 C 102.964844 208.90625 103.164062 210.582031 101.1875 212.855469 C 99.214844 215.125 94.671875 213.644531 95.5625 209.5 C 96.449219 205.351562 100.890625 205.449219 100.890625 205.449219 C 100.890625 205.449219 98.128906 206.527344 99.113281 207.964844 C 100.101562 209.398438 104.546875 205.847656 104.546875 205.847656 C 104.546875 205.847656 102.570312 207.917969 104.445312 208.511719 C 106.324219 209.101562 109.972656 204.5625 109.972656 204.5625 C 109.972656 204.5625 108.988281 206.734375 110.863281 206.832031 C 112.738281 206.933594 114.320312 202.488281 120.636719 202.589844 C 120.636719 202.585938 107.507812 194.296875 96.945312 199.625 Z M 96.945312 199.625 " fill-opacity="1" fill-rule="nonzero"/><g clip-path="url(#c09c88c768)"><path fill="#ffffff" d="M 91.367188 196.90625 C 94.109375 199.121094 101.765625 194.886719 105.695312 195.292969 C 105.695312 195.292969 81.839844 186.253906 75.050781 162.910156 C 75.050781 162.910156 74.570312 170.121094 76.242188 174.144531 C 76.242188 174.144531 74.324219 172.957031 72.191406 174.0625 C 70.054688 175.164062 68.636719 174.984375 68.636719 174.984375 C 68.636719 174.984375 71.199219 178.726562 75.675781 179.050781 C 75.675781 179.050781 73.316406 180.253906 72.988281 182.539062 C 72.660156 184.824219 71.847656 185.773438 71.847656 185.773438 C 71.847656 185.773438 76.558594 185.777344 79.101562 183.050781 C 79.101562 183.050781 77.535156 181.441406 74.691406 183.605469 C 74.691406 183.605469 76.828125 180.203125 80.203125 180.691406 C 80.203125 180.691406 78.007812 177.640625 74.414062 176.140625 C 74.414062 176.140625 82.441406 177.402344 82.832031 185.203125 C 83.226562 193.003906 76.921875 189.632812 78.921875 186.769531 C 78.921875 186.769531 75.917969 187.71875 77.820312 191.429688 C 79.726562 195.136719 85.890625 194.761719 86.96875 189.238281 C 86.96875 189.238281 86.339844 192.058594 87.949219 192.792969 C 89.558594 193.527344 91.472656 192.414062 91.472656 192.414062 C 91.472656 192.414062 88.625 194.691406 91.367188 196.90625 Z M 91.367188 196.90625 " fill-opacity="1" fill-rule="nonzero"/></g><path fill="#ffffff" d="M 90.054688 100.894531 C 88.316406 118.671875 111.03125 135.347656 111.03125 135.347656 C 107.183594 127.835938 109.566406 118.671875 107.183594 114.640625 C 104.804688 110.609375 102.785156 115.375 102.785156 115.375 C 102.785156 115.375 102.417969 110.242188 100.039062 109.875 C 97.65625 109.507812 97.839844 113.90625 97.839844 113.90625 C 93.808594 109.328125 93.074219 96.863281 99.304688 94.4375 C 104.421875 92.441406 105.535156 96.5 105.535156 96.5 C 105.535156 96.5 100.769531 94.484375 100.890625 99.429688 C 101.011719 104.378906 110.484375 106.578125 111.765625 97.230469 C 113.046875 87.882812 91.789062 83.121094 90.054688 100.894531 Z M 90.054688 100.894531 " fill-opacity="1" fill-rule="nonzero"/><path fill="#ffffff" d="M 136.449219 70.199219 C 146.332031 53.902344 125.121094 44.375 120.242188 53.183594 C 115.359375 61.988281 124.859375 66.167969 128.125 62.015625 C 131.394531 57.867188 126.03125 56.539062 126.03125 56.539062 C 126.03125 56.539062 129.578125 53.789062 132.675781 58.765625 C 136.445312 64.824219 127.851562 75 121.472656 76.339844 C 121.472656 76.339844 124.445312 72.699219 122.175781 71.488281 C 119.90625 70.277344 116.308594 74.425781 116.308594 74.425781 C 116.308594 74.425781 117.632812 69.066406 113.019531 70.988281 C 108.40625 72.90625 104.582031 82.261719 96.488281 86.21875 C 96.488281 86.21875 126.5625 86.5 136.449219 70.199219 Z M 136.449219 70.199219 " fill-opacity="1" fill-rule="nonzero"/><path fill="#ffffff" d="M 78.824219 132.597656 C 84.324219 135.625 88.859375 130.8125 87.621094 128.339844 C 86.382812 125.863281 85.007812 126.550781 83.632812 128.613281 C 82.261719 130.675781 79.226562 129.289062 80.8125 125.789062 C 82.398438 122.292969 87.34375 122.703125 89.957031 124.492188 C 89.957031 124.492188 88.445312 125.175781 88.996094 126.554688 C 89.542969 127.925781 94.078125 127.652344 94.078125 127.652344 C 94.078125 127.652344 91.878906 128.476562 92.566406 129.851562 C 93.253906 131.226562 99.996094 129.714844 103.910156 131.914062 C 103.910156 131.914062 93.941406 117.480469 84.457031 118.03125 C 74.976562 118.578125 73.328125 129.574219 78.824219 132.597656 Z M 78.824219 132.597656 " fill-opacity="1" fill-rule="nonzero"/><path fill="#ffffff" d="M 110.988281 109.058594 C 110.988281 109.53125 110.898438 109.980469 110.71875 110.414062 C 110.539062 110.847656 110.28125 111.230469 109.949219 111.5625 C 109.617188 111.894531 109.234375 112.148438 108.800781 112.328125 C 108.367188 112.507812 107.917969 112.597656 107.449219 112.597656 C 106.980469 112.597656 106.527344 112.507812 106.09375 112.328125 C 105.660156 112.148438 105.277344 111.894531 104.945312 111.5625 C 104.613281 111.230469 104.359375 110.847656 104.179688 110.414062 C 104 109.980469 103.910156 109.53125 103.910156 109.058594 C 103.910156 108.589844 104 108.140625 104.179688 107.707031 C 104.359375 107.273438 104.613281 106.890625 104.945312 106.558594 C 105.277344 106.226562 105.660156 105.972656 106.09375 105.792969 C 106.527344 105.613281 106.980469 105.523438 107.449219 105.523438 C 107.917969 105.523438 108.367188 105.613281 108.800781 105.792969 C 109.234375 105.972656 109.617188 106.226562 109.949219 106.558594 C 110.28125 106.890625 110.539062 107.273438 110.71875 107.707031 C 110.898438 108.140625 110.988281 108.589844 110.988281 109.058594 Z M 110.988281 109.058594 " fill-opacity="1" fill-rule="nonzero"/><path fill="#ffffff" d="M 91.367188 92.785156 C 91.367188 92.785156 82.164062 93.390625 78.605469 97.503906 C 78.605469 97.503906 82.675781 92.023438 90.519531 91.214844 C 90.519531 91.214844 82 86.449219 77.703125 92.367188 C 73.40625 98.289062 69.738281 98.738281 69.738281 98.738281 C 69.738281 98.738281 83.621094 106.199219 91.367188 92.785156 Z M 91.367188 92.785156 " fill-opacity="1" fill-rule="nonzero"/><path fill="#ffffff" d="M 93.789062 89.035156 C 93.789062 89.035156 87.570312 82.222656 82.136719 82.011719 C 82.136719 82.011719 88.960938 81.765625 94.488281 87.390625 C 94.488281 87.390625 92.894531 77.761719 85.585938 78.097656 C 78.277344 78.433594 75.636719 75.851562 75.636719 75.851562 C 75.636719 75.851562 78.476562 91.355469 93.789062 89.035156 Z M 93.789062 89.035156 " fill-opacity="1" fill-rule="nonzero"/><path fill="#ffffff" d="M 98.324219 71.757812 C 95.28125 76.261719 97.089844 85.308594 97.089844 85.308594 C 108.027344 74.339844 97.210938 62.871094 97.210938 62.871094 C 97.210938 62.871094 97.730469 66.53125 93.132812 72.21875 C 88.53125 77.90625 95.351562 84.894531 95.351562 84.894531 C 94.089844 77.109375 98.324219 71.757812 98.324219 71.757812 Z M 98.324219 71.757812 " fill-opacity="1" fill-rule="nonzero"/><path fill="#ffffff" d="M 76.429688 117.976562 C 76.429688 117.976562 84.480469 113.105469 93.394531 118.855469 C 93.394531 118.855469 85.476562 110.007812 87.929688 99.976562 C 87.929688 99.976562 81.851562 105.332031 85.917969 112.308594 C 85.917969 112.308594 79.015625 111.347656 76.429688 117.976562 Z M 76.429688 117.976562 " fill-opacity="1" fill-rule="nonzero"/><path fill="#ffffff" d="M 99.671875 159.859375 C 98.175781 159.859375 96.96875 161.066406 96.96875 162.5625 C 96.96875 164.054688 98.175781 165.265625 99.671875 165.265625 C 101.164062 165.265625 102.375 164.054688 102.375 162.5625 C 102.375 161.066406 101.164062 159.859375 99.671875 159.859375 Z M 99.671875 159.859375 " fill-opacity="1" fill-rule="nonzero"/><path fill="#ffffff" d="M 78.21875 134.71875 C 78.589844 135.089844 78.875 135.515625 79.074219 135.996094 C 79.273438 136.480469 79.375 136.984375 79.375 137.503906 C 79.375 138.027344 79.273438 138.53125 79.074219 139.011719 C 78.875 139.496094 78.589844 139.921875 78.21875 140.289062 C 77.851562 140.660156 77.421875 140.945312 76.941406 141.144531 C 76.457031 141.34375 75.957031 141.445312 75.433594 141.445312 C 74.910156 141.445312 74.410156 141.34375 73.925781 141.144531 C 73.441406 140.945312 73.015625 140.660156 72.648438 140.289062 C 72.277344 139.921875 71.992188 139.496094 71.792969 139.011719 C 71.59375 138.53125 71.492188 138.027344 71.492188 137.503906 C 71.492188 136.984375 71.59375 136.480469 71.792969 135.996094 C 71.992188 135.515625 72.277344 135.089844 72.648438 134.71875 C 73.015625 134.347656 73.441406 134.066406 73.925781 133.863281 C 74.40625 133.664062 74.910156 133.566406 75.433594 133.566406 C 75.957031 133.566406 76.457031 133.664062 76.941406 133.863281 C 77.421875 134.066406 77.851562 134.347656 78.21875 134.71875 Z M 78.21875 134.71875 " fill-opacity="1" fill-rule="nonzero"/><path fill="#ffffff" d="M 108.28125 69.410156 C 111.164062 69.410156 113.5 67.074219 113.5 64.191406 C 113.5 61.308594 111.164062 58.972656 108.28125 58.972656 C 105.402344 58.972656 103.066406 61.308594 103.066406 64.191406 C 103.066406 67.074219 105.402344 69.410156 108.28125 69.410156 Z M 108.28125 69.410156 " fill-opacity="1" fill-rule="nonzero"/><g clip-path="url(#a5883b71f7)"><path fill="#ffffff" d="M 196.570312 252.128906 C 190.890625 249.839844 187.496094 254.234375 187.496094 254.234375 C 187.496094 254.234375 184.105469 249.839844 178.425781 252.128906 C 172.207031 254.636719 171.738281 262.851562 176.226562 264.5 C 179.660156 265.761719 179.800781 262.667969 179.800781 262.667969 C 177.785156 263.855469 175.128906 259.183594 180.167969 257.902344 C 185.207031 256.617188 186.949219 262.390625 184.933594 264.683594 C 182.984375 266.894531 184.117188 269.539062 184.195312 269.710938 C 183.277344 267.339844 180.535156 266.792969 179.621094 268.898438 C 178.703125 271.003906 183.375 273.296875 183.375 273.296875 C 177.511719 272.835938 177.789062 277.785156 177.789062 277.785156 C 178.886719 274.761719 185.117188 275.859375 182.917969 280.257812 C 180.71875 284.65625 187.5 291.484375 187.5 291.484375 C 187.5 291.484375 194.285156 284.660156 192.082031 280.257812 C 189.882812 275.859375 196.113281 274.761719 197.214844 277.785156 C 197.214844 277.785156 197.488281 272.835938 191.625 273.296875 C 191.625 273.296875 196.296875 271.003906 195.382812 268.898438 C 194.46875 266.792969 191.726562 267.339844 190.804688 269.710938 C 190.882812 269.539062 192.015625 266.898438 190.070312 264.683594 C 188.050781 262.390625 189.792969 256.621094 194.832031 257.902344 C 199.875 259.183594 197.214844 263.855469 195.199219 262.667969 C 195.199219 262.667969 195.339844 265.761719 198.773438 264.5 C 203.257812 262.847656 202.789062 254.636719 196.570312 252.128906 Z M 196.570312 252.128906 " fill-opacity="1" fill-rule="nonzero"/></g><path fill="#ffffff" d="M 240.003906 240.5 C 238.46875 238.867188 234.921875 237.523438 230.890625 242.324219 C 230.890625 242.324219 233.480469 236.660156 231.464844 234.070312 C 229.449219 231.480469 227.433594 233.78125 228.011719 235.507812 C 228.011719 235.507812 225.515625 232.152344 222.734375 232.246094 C 219.949219 232.34375 220.332031 234.835938 221.582031 235.125 C 221.582031 235.125 216.878906 233.878906 214.386719 237.140625 C 211.890625 240.402344 213.90625 246.542969 217.167969 246.0625 C 220.429688 245.585938 219.46875 243.664062 217.933594 242.128906 C 216.398438 240.59375 220.910156 236.46875 223.980469 240.59375 C 227.050781 244.71875 222.445312 250.902344 219.085938 250.835938 C 219.085938 250.835938 221.007812 249.136719 219.085938 248.078125 C 217.167969 247.023438 213.328125 250.382812 213.328125 250.382812 C 213.328125 250.382812 214 248.367188 212.5625 247.984375 C 211.125 247.597656 208.148438 249.332031 207.09375 249.28125 C 207.09375 249.28125 208.246094 247.792969 206.515625 247.023438 C 204.789062 246.257812 200.855469 249.527344 196.25 249.28125 C 196.25 249.28125 214.222656 258.410156 224.332031 255.339844 C 234.4375 252.269531 233.414062 251.0625 239.042969 250.835938 C 239.042969 250.835938 235.335938 246.769531 231.113281 248.6875 C 231.113281 248.6875 233.671875 246.257812 236.644531 245.96875 C 239.621094 245.683594 242.691406 244.914062 244.515625 240.5 C 244.515625 240.5 241.539062 242.132812 240.003906 240.5 Z M 240.003906 240.5 " fill-opacity="1" fill-rule="nonzero"/><path fill="#ffffff" d="M 204.742188 254.054688 C 204.742188 254.054688 207.675781 259.238281 211.84375 259.6875 C 211.84375 259.6875 207.632812 261.121094 204.179688 255.285156 C 204.179688 255.285156 204.96875 263.746094 200.238281 268.929688 C 200.238281 268.929688 207.578125 268.28125 207.898438 263.183594 C 207.898438 263.183594 209.25 267.125 212.066406 268.140625 C 212.066406 268.140625 213.578125 264.890625 210.828125 262.054688 C 210.828125 262.054688 216.800781 263.96875 219.84375 258.109375 C 219.84375 258.109375 208.914062 258.71875 204.742188 254.054688 Z M 204.742188 254.054688 " fill-opacity="1" fill-rule="nonzero"/><path fill="#ffffff" d="M 251.992188 203.933594 C 247.226562 204.023438 244.9375 206.957031 245.394531 210.714844 C 245.855469 214.46875 251.71875 214.835938 252.085938 211.355469 C 252.453125 207.871094 249.792969 208.605469 249.792969 208.605469 C 249.792969 208.605469 253.277344 206.496094 256.574219 208.972656 C 259.875 211.445312 258.683594 219.875 251.535156 220.972656 C 251.535156 220.972656 253.183594 219.414062 251.351562 218.085938 C 249.519531 216.757812 246.128906 221.15625 246.128906 221.15625 C 246.128906 221.15625 247.136719 219.234375 245.121094 218.867188 C 243.105469 218.5 240.265625 222.621094 240.265625 222.621094 C 240.265625 222.621094 241.273438 220.699219 238.800781 220.332031 C 236.324219 219.964844 224.964844 225.644531 226.980469 232.242188 C 226.980469 232.242188 226.796875 227.664062 236.417969 227.476562 C 246.039062 227.296875 258.589844 227.109375 261.617188 217.765625 C 264.636719 208.421875 256.757812 203.839844 251.992188 203.933594 Z M 251.992188 203.933594 " fill-opacity="1" fill-rule="nonzero"/><path fill="#ffffff" d="M 254.847656 229.589844 C 255.121094 228.03125 256.769531 226.382812 256.769531 226.382812 C 256.769531 226.382812 250.722656 230.960938 240.367188 229.039062 C 230.015625 227.113281 228.1875 231.886719 228.457031 231.695312 C 230.378906 230.320312 233.3125 230.777344 234.871094 233.34375 C 236.429688 235.910156 237.4375 237.558594 239.816406 237.558594 C 242.199219 237.558594 241.742188 235.269531 241.742188 235.269531 C 241.742188 235.269531 241.101562 236.734375 239.359375 235.269531 C 237.617188 233.800781 239.269531 230.226562 242.613281 232.242188 C 245.957031 234.257812 245.867188 236.457031 245.867188 236.457031 C 244.886719 234.28125 242.613281 233.160156 242.613281 233.160156 C 243.390625 237.742188 247.972656 239.117188 247.972656 239.117188 C 247.972656 239.117188 247.238281 238.015625 247.789062 236.289062 C 248.339844 234.558594 246.597656 232.242188 246.597656 232.242188 C 249.4375 232.152344 251.546875 234.625 251.546875 234.625 C 250.539062 233.523438 247.882812 233.433594 247.882812 233.433594 C 250.542969 237.363281 255.121094 236.089844 255.121094 236.089844 C 255.121094 236.089844 254.207031 235.542969 253.929688 233.710938 C 253.65625 231.875 251.363281 231.234375 251.363281 231.234375 C 251.363281 231.234375 254.570312 231.144531 254.847656 229.589844 Z M 254.847656 229.589844 " fill-opacity="1" fill-rule="nonzero"/><path fill="#ffffff" d="M 250.871094 201.769531 C 250.871094 201.769531 296.230469 186.101562 297.054688 154.488281 C 297.878906 122.878906 264.890625 131.125 264.890625 146.519531 C 264.890625 161.910156 280.011719 158.0625 279.1875 152.566406 C 278.359375 147.070312 272.589844 152.015625 272.039062 146.519531 C 271.488281 141.019531 283.859375 138.269531 287.707031 145.144531 C 287.707031 145.144531 284.683594 143.496094 283.859375 146.378906 C 283.035156 149.265625 288.257812 151.328125 288.671875 155.726562 C 288.671875 155.726562 287.433594 152.976562 285.097656 154.078125 C 282.761719 155.179688 285.648438 161.910156 284.273438 166.035156 C 284.273438 166.035156 283.171875 163.972656 281.109375 164.664062 C 279.050781 165.347656 280.285156 172.085938 276.988281 175.796875 C 273.6875 179.507812 268.742188 176.480469 269.015625 172.632812 C 269.292969 168.785156 274.527344 169.472656 273.972656 172.496094 C 273.972656 172.496094 276.300781 167.273438 269.839844 166.585938 C 263.378906 165.902344 262.828125 174.007812 263.65625 181.15625 C 264.480469 188.304688 250.875 199.574219 250.875 199.574219 C 250.875 199.574219 264.066406 193.527344 267.914062 182.394531 C 267.914062 182.390625 265.578125 195.175781 250.871094 201.769531 Z M 250.871094 201.769531 " fill-opacity="1" fill-rule="nonzero"/><path fill="#ffffff" d="M 278.050781 199.625 C 267.488281 194.296875 254.359375 202.589844 254.359375 202.589844 C 260.675781 202.488281 262.257812 206.933594 264.132812 206.835938 C 266.007812 206.734375 265.019531 204.5625 265.019531 204.5625 C 265.019531 204.5625 268.671875 209.101562 270.546875 208.511719 C 272.425781 207.917969 270.449219 205.847656 270.449219 205.847656 C 270.449219 205.847656 274.890625 209.398438 275.878906 207.964844 C 276.867188 206.527344 274.101562 205.449219 274.101562 205.449219 C 274.101562 205.449219 278.546875 205.351562 279.433594 209.5 C 280.320312 213.644531 275.78125 215.125 273.804688 212.855469 C 271.832031 210.582031 272.027344 208.90625 270.25 210.878906 C 268.476562 212.855469 270.25 218.089844 277.0625 218.089844 C 283.875 218.089844 288.613281 204.957031 278.050781 199.625 Z M 278.050781 199.625 " fill-opacity="1" fill-rule="nonzero"/><g clip-path="url(#07c5167404)"><path fill="#ffffff" d="M 306.359375 174.988281 C 306.359375 174.988281 304.941406 175.164062 302.804688 174.0625 C 300.667969 172.960938 298.753906 174.148438 298.753906 174.148438 C 300.421875 170.121094 299.945312 162.910156 299.945312 162.910156 C 293.152344 186.253906 269.300781 195.292969 269.300781 195.292969 C 273.226562 194.886719 280.886719 199.121094 283.628906 196.90625 C 286.371094 194.691406 283.523438 192.417969 283.523438 192.417969 C 283.523438 192.417969 285.4375 193.53125 287.046875 192.796875 C 288.65625 192.0625 288.027344 189.242188 288.027344 189.242188 C 289.101562 194.769531 295.269531 195.140625 297.175781 191.433594 C 299.078125 187.726562 296.074219 186.773438 296.074219 186.773438 C 298.074219 189.636719 291.769531 193.007812 292.160156 185.207031 C 292.554688 177.40625 300.582031 176.144531 300.582031 176.144531 C 296.988281 177.644531 294.792969 180.699219 294.792969 180.699219 C 298.167969 180.207031 300.304688 183.613281 300.304688 183.613281 C 297.460938 181.449219 295.894531 183.058594 295.894531 183.058594 C 298.4375 185.785156 303.148438 185.777344 303.148438 185.777344 C 303.148438 185.777344 302.335938 184.828125 302.007812 182.542969 C 301.679688 180.257812 299.320312 179.058594 299.320312 179.058594 C 303.796875 178.726562 306.359375 174.988281 306.359375 174.988281 Z M 306.359375 174.988281 " fill-opacity="1" fill-rule="nonzero"/></g><path fill="#ffffff" d="M 263.230469 97.230469 C 264.511719 106.578125 273.984375 104.378906 274.105469 99.429688 C 274.226562 94.480469 269.460938 96.496094 269.460938 96.496094 C 269.460938 96.496094 270.574219 92.441406 275.691406 94.433594 C 281.921875 96.863281 281.1875 109.324219 277.15625 113.90625 C 277.15625 113.90625 277.339844 109.507812 274.957031 109.875 C 272.574219 110.238281 272.207031 115.371094 272.207031 115.371094 C 272.207031 115.371094 270.191406 110.605469 267.8125 114.640625 C 265.429688 118.671875 267.8125 127.835938 263.964844 135.347656 C 263.964844 135.347656 286.679688 118.671875 284.941406 100.894531 C 283.207031 83.121094 261.949219 87.882812 263.230469 97.230469 Z M 263.230469 97.230469 " fill-opacity="1" fill-rule="nonzero"/><path fill="#ffffff" d="M 278.507812 86.21875 C 270.414062 82.261719 266.589844 72.910156 261.976562 70.988281 C 257.363281 69.066406 258.6875 74.425781 258.6875 74.425781 C 258.6875 74.425781 255.09375 70.277344 252.820312 71.488281 C 250.550781 72.699219 253.519531 76.339844 253.519531 76.339844 C 247.144531 75.003906 238.550781 64.824219 242.320312 58.765625 C 245.417969 53.789062 248.964844 56.542969 248.964844 56.542969 C 248.964844 56.542969 243.605469 57.867188 246.871094 62.019531 C 250.136719 66.171875 259.636719 61.988281 254.753906 53.183594 C 249.875 44.378906 228.664062 53.902344 238.546875 70.203125 C 248.433594 86.5 278.507812 86.21875 278.507812 86.21875 Z M 278.507812 86.21875 " fill-opacity="1" fill-rule="nonzero"/><path fill="#ffffff" d="M 291.363281 128.613281 C 289.988281 126.550781 288.613281 125.863281 287.375 128.339844 C 286.136719 130.8125 290.675781 135.625 296.171875 132.597656 C 301.667969 129.574219 300.019531 118.582031 290.535156 118.03125 C 281.050781 117.480469 271.085938 131.914062 271.085938 131.914062 C 275 129.714844 281.738281 131.226562 282.425781 129.851562 C 283.113281 128.476562 280.914062 127.652344 280.914062 127.652344 C 280.914062 127.652344 285.449219 127.925781 286 126.550781 C 286.546875 125.175781 285.035156 124.488281 285.035156 124.488281 C 287.648438 122.703125 292.59375 122.289062 294.179688 125.789062 C 295.769531 129.289062 292.734375 130.675781 291.363281 128.613281 Z M 291.363281 128.613281 " fill-opacity="1" fill-rule="nonzero"/><path fill="#ffffff" d="M 271.085938 109.058594 C 271.085938 109.53125 270.996094 109.980469 270.816406 110.414062 C 270.636719 110.847656 270.382812 111.230469 270.050781 111.5625 C 269.71875 111.894531 269.335938 112.148438 268.902344 112.328125 C 268.46875 112.507812 268.015625 112.597656 267.546875 112.597656 C 267.078125 112.597656 266.625 112.507812 266.191406 112.328125 C 265.761719 112.148438 265.378906 111.894531 265.046875 111.5625 C 264.714844 111.230469 264.457031 110.847656 264.277344 110.414062 C 264.097656 109.980469 264.007812 109.53125 264.007812 109.058594 C 264.007812 108.589844 264.097656 108.140625 264.277344 107.707031 C 264.457031 107.273438 264.714844 106.890625 265.046875 106.558594 C 265.378906 106.226562 265.761719 105.972656 266.191406 105.792969 C 266.625 105.613281 267.078125 105.523438 267.546875 105.523438 C 268.015625 105.523438 268.46875 105.613281 268.902344 105.792969 C 269.335938 105.972656 269.71875 106.226562 270.050781 106.558594 C 270.382812 106.890625 270.636719 107.273438 270.816406 107.707031 C 270.996094 108.140625 271.085938 108.589844 271.085938 109.058594 Z M 271.085938 109.058594 " fill-opacity="1" fill-rule="nonzero"/><path fill="#ffffff" d="M 284.476562 91.214844 C 292.324219 92.023438 296.390625 97.503906 296.390625 97.503906 C 292.832031 93.390625 283.628906 92.785156 283.628906 92.785156 C 291.375 106.199219 305.261719 98.738281 305.261719 98.738281 C 305.261719 98.738281 301.59375 98.289062 297.296875 92.367188 C 292.996094 86.449219 284.476562 91.214844 284.476562 91.214844 Z M 284.476562 91.214844 " fill-opacity="1" fill-rule="nonzero"/><path fill="#ffffff" d="M 292.859375 82.011719 C 287.425781 82.222656 281.207031 89.035156 281.207031 89.035156 C 296.519531 91.355469 299.359375 75.851562 299.359375 75.851562 C 299.359375 75.851562 296.71875 78.433594 289.410156 78.097656 C 282.101562 77.761719 280.507812 87.390625 280.507812 87.390625 C 286.035156 81.765625 292.859375 82.011719 292.859375 82.011719 Z M 292.859375 82.011719 " fill-opacity="1" fill-rule="nonzero"/><path fill="#ffffff" d="M 276.671875 71.757812 C 276.671875 71.757812 280.90625 77.109375 279.648438 84.894531 C 279.648438 84.894531 286.464844 77.910156 281.867188 72.21875 C 277.265625 66.53125 277.785156 62.871094 277.785156 62.871094 C 277.785156 62.871094 266.972656 74.34375 277.910156 85.308594 C 277.90625 85.308594 279.714844 76.261719 276.671875 71.757812 Z M 276.671875 71.757812 " fill-opacity="1" fill-rule="nonzero"/><path fill="#ffffff" d="M 298.566406 117.976562 C 295.980469 111.347656 289.078125 112.308594 289.078125 112.308594 C 293.144531 105.332031 287.066406 99.976562 287.066406 99.976562 C 289.519531 110.007812 281.601562 118.855469 281.601562 118.855469 C 290.515625 113.105469 298.566406 117.976562 298.566406 117.976562 Z M 298.566406 117.976562 " fill-opacity="1" fill-rule="nonzero"/><path fill="#ffffff" d="M 278.027344 162.5625 C 278.027344 161.066406 276.816406 159.859375 275.324219 159.859375 C 273.832031 159.859375 272.621094 161.066406 272.621094 162.5625 C 272.621094 164.054688 273.832031 165.265625 275.324219 165.265625 C 276.816406 165.265625 278.027344 164.054688 278.027344 162.5625 Z M 278.027344 162.5625 " fill-opacity="1" fill-rule="nonzero"/><path fill="#ffffff" d="M 302.34375 134.722656 C 302.714844 135.089844 303 135.515625 303.199219 136 C 303.398438 136.480469 303.5 136.984375 303.5 137.507812 C 303.5 138.03125 303.398438 138.53125 303.199219 139.015625 C 303 139.496094 302.714844 139.921875 302.34375 140.292969 C 301.976562 140.664062 301.546875 140.945312 301.066406 141.148438 C 300.582031 141.347656 300.082031 141.445312 299.558594 141.445312 C 299.035156 141.445312 298.535156 141.347656 298.050781 141.148438 C 297.566406 140.945312 297.140625 140.664062 296.773438 140.292969 C 296.402344 139.921875 296.117188 139.496094 295.917969 139.015625 C 295.71875 138.53125 295.617188 138.03125 295.617188 137.507812 C 295.617188 136.984375 295.71875 136.480469 295.917969 136 C 296.117188 135.515625 296.402344 135.089844 296.773438 134.722656 C 297.140625 134.351562 297.566406 134.066406 298.050781 133.867188 C 298.53125 133.667969 299.035156 133.566406 299.558594 133.566406 C 300.082031 133.566406 300.582031 133.667969 301.066406 133.867188 C 301.546875 134.066406 301.976562 134.351562 302.34375 134.722656 Z M 302.34375 134.722656 " fill-opacity="1" fill-rule="nonzero"/><path fill="#ffffff" d="M 268.710938 59.367188 C 269.027344 59.496094 269.328125 59.65625 269.613281 59.847656 C 269.898438 60.039062 270.160156 60.253906 270.402344 60.496094 C 270.644531 60.738281 270.859375 61.003906 271.050781 61.289062 C 271.242188 61.574219 271.402344 61.871094 271.535156 62.1875 C 271.664062 62.507812 271.761719 62.832031 271.832031 63.167969 C 271.898438 63.503906 271.929688 63.84375 271.929688 64.1875 C 271.929688 64.527344 271.898438 64.867188 271.832031 65.203125 C 271.761719 65.539062 271.664062 65.867188 271.535156 66.183594 C 271.402344 66.5 271.242188 66.800781 271.050781 67.085938 C 270.859375 67.371094 270.644531 67.632812 270.402344 67.875 C 270.160156 68.117188 269.898438 68.332031 269.613281 68.523438 C 269.328125 68.714844 269.027344 68.875 268.710938 69.007812 C 268.394531 69.136719 268.066406 69.234375 267.730469 69.304688 C 267.394531 69.371094 267.054688 69.402344 266.714844 69.402344 C 266.371094 69.402344 266.03125 69.371094 265.695312 69.304688 C 265.359375 69.234375 265.03125 69.136719 264.714844 69.007812 C 264.398438 68.875 264.097656 68.714844 263.816406 68.523438 C 263.53125 68.332031 263.265625 68.117188 263.023438 67.875 C 262.78125 67.632812 262.566406 67.371094 262.375 67.085938 C 262.183594 66.800781 262.023438 66.5 261.894531 66.183594 C 261.761719 65.867188 261.664062 65.539062 261.597656 65.203125 C 261.527344 64.867188 261.496094 64.527344 261.496094 64.1875 C 261.496094 63.84375 261.527344 63.503906 261.597656 63.167969 C 261.664062 62.832031 261.761719 62.507812 261.894531 62.1875 C 262.023438 61.871094 262.183594 61.574219 262.375 61.289062 C 262.566406 61.003906 262.78125 60.738281 263.023438 60.496094 C 263.265625 60.253906 263.53125 60.039062 263.816406 59.847656 C 264.097656 59.65625 264.398438 59.496094 264.714844 59.367188 C 265.03125 59.234375 265.359375 59.136719 265.695312 59.070312 C 266.03125 59.003906 266.371094 58.96875 266.714844 58.96875 C 267.054688 58.96875 267.394531 59.003906 267.730469 59.070312 C 268.066406 59.136719 268.394531 59.234375 268.710938 59.367188 Z M 268.710938 59.367188 " fill-opacity="1" fill-rule="nonzero"/><g clip-path="url(#508d3172e4)"><path fill="#ffffff" d="M 223.375 110.957031 L 185.75 124.753906 L 137.105469 106.925781 L 185.75 89.007812 L 225.792969 103.703125 L 236.1875 103.703125 L 186.378906 85.425781 C 186.019531 85.246094 185.570312 85.246094 185.125 85.425781 L 131.285156 105.222656 C 130.566406 105.492188 130.117188 106.121094 130.117188 106.925781 C 130.117188 107.734375 130.566406 108.359375 131.285156 108.628906 L 153.410156 116.78125 L 153.410156 138.191406 C 153.410156 139.175781 153.410156 140.96875 167.117188 146.882812 C 170.253906 148.226562 180.734375 152.613281 185.480469 152.613281 C 190.320312 152.613281 200.980469 148.226562 204.117188 146.882812 C 218 140.96875 218 139.175781 218 138.191406 L 218 116.78125 L 233.769531 110.957031 C 233.769531 110.957031 223.375 110.957031 223.375 110.957031 Z M 214.417969 137.5625 C 211.460938 140.160156 191.214844 148.941406 185.480469 148.941406 C 179.925781 148.941406 159.949219 140.160156 156.992188 137.5625 L 156.992188 118.035156 L 185.125 128.335938 C 185.300781 128.425781 185.570312 128.425781 185.75 128.425781 C 185.929688 128.425781 186.199219 128.425781 186.378906 128.335938 L 214.507812 118.035156 Z M 214.417969 137.5625 " fill-opacity="1" fill-rule="nonzero"/></g><path fill="#ffffff" d="M 244.605469 139.714844 C 244.339844 138.550781 244.070312 137.296875 243.890625 136.128906 L 243.441406 132.546875 L 242.816406 128.964844 C 242.546875 127.621094 242.367188 126.367188 242.097656 125.023438 C 243.53125 124.574219 244.605469 123.230469 244.605469 121.617188 C 244.605469 119.917969 243.441406 118.484375 241.832031 118.125 C 241.917969 117.945312 242.097656 117.855469 242.1875 117.675781 L 242.726562 116.960938 C 242.996094 116.691406 242.726562 116.421875 242.816406 116.242188 L 242.816406 107.375 C 242.816406 106.390625 242.007812 105.582031 241.023438 105.582031 L 212.355469 105.582031 C 207.609375 105.671875 202.773438 105.402344 198.023438 105.941406 C 195.066406 106.210938 192.109375 106.476562 189.066406 106.746094 C 188.617188 106.03125 187.273438 105.492188 185.660156 105.492188 C 183.691406 105.492188 182.078125 106.300781 182.078125 107.285156 C 182.078125 108.269531 183.691406 109.078125 185.660156 109.078125 C 187.273438 109.078125 188.527344 108.539062 189.066406 107.820312 C 192.019531 108.089844 194.976562 108.449219 198.023438 108.628906 C 202.773438 109.253906 207.609375 108.988281 212.355469 108.988281 L 239.230469 108.988281 L 239.230469 116.0625 C 239.320312 116.332031 239.054688 116.601562 239.320312 116.78125 L 239.859375 117.496094 C 239.949219 117.675781 240.128906 117.765625 240.21875 117.945312 C 238.605469 118.304688 237.441406 119.738281 237.441406 121.4375 C 237.441406 123.050781 238.515625 124.394531 239.949219 124.84375 C 239.679688 126.1875 239.410156 127.441406 239.230469 128.785156 L 238.605469 132.367188 L 238.15625 135.953125 C 237.976562 137.117188 237.710938 138.371094 237.441406 139.535156 C 237.171875 140.699219 237.171875 141.953125 237.441406 143.117188 C 237.621094 144.28125 237.976562 145.539062 238.515625 146.703125 C 239.054688 147.867188 239.679688 149.121094 240.664062 150.285156 L 241.382812 150.285156 C 242.367188 149.121094 243.085938 147.867188 243.53125 146.703125 C 244.070312 145.539062 244.339844 144.28125 244.605469 143.117188 C 244.875 142.132812 244.875 140.96875 244.605469 139.714844 Z M 244.605469 139.714844 " fill-opacity="1" fill-rule="nonzero"/><g clip-path="url(#12d4b95b2d)"><path fill="#ffffff" d="M 232.15625 172.503906 C 231.347656 171.335938 229.738281 170.261719 228.394531 169.992188 C 191.484375 161.929688 143.554688 144.550781 143.109375 144.460938 C 143.019531 144.460938 142.839844 144.371094 142.75 144.371094 C 142.570312 144.371094 137.375 144.910156 135.492188 151.089844 C 134.777344 153.601562 134.507812 158.347656 138.269531 160.945312 C 137.464844 161.304688 136.390625 161.839844 135.226562 162.109375 C 134.867188 162.199219 134.597656 162.558594 134.597656 163.007812 C 134.597656 163.453125 134.957031 163.8125 135.316406 163.8125 C 135.492188 163.8125 150.902344 166.589844 168.101562 171.964844 L 152.785156 176.800781 L 161.113281 177.339844 L 160.757812 181.550781 L 170.789062 176.800781 L 168.101562 185.222656 L 173.746094 183.789062 L 178.316406 186.925781 L 179.03125 175.636719 C 196.410156 181.996094 212.265625 189.792969 220.328125 196.152344 C 220.507812 196.242188 220.6875 196.332031 220.867188 196.332031 C 221.046875 196.332031 221.226562 196.242188 221.40625 196.152344 C 221.40625 196.152344 225.347656 193.105469 228.394531 190.6875 C 228.480469 190.597656 228.570312 190.507812 228.570312 190.417969 C 229.824219 189.34375 230.722656 187.910156 231.347656 186.476562 C 233.410156 182.355469 234.664062 176.085938 232.15625 172.503906 Z M 137.195312 151.539062 C 138.539062 147.058594 141.855469 146.253906 142.75 146.164062 C 144.542969 146.792969 157.53125 151.449219 174.550781 156.914062 C 172.222656 157.71875 170.34375 159.78125 169.265625 161.929688 C 168.28125 163.8125 167.476562 166.410156 167.921875 168.738281 C 151.441406 163.183594 140.957031 160.40625 140.777344 160.320312 C 135.316406 158.167969 137.105469 151.808594 137.195312 151.539062 Z M 221.046875 194.359375 C 214.777344 189.523438 205.546875 184.773438 195.964844 180.476562 C 204.742188 183.789062 214.238281 187.640625 224.09375 191.851562 L 224.183594 191.851562 C 222.839844 193.015625 221.671875 193.914062 221.046875 194.359375 Z M 229.914062 185.851562 C 229.199219 187.460938 227.226562 190.417969 224.988281 190.148438 C 223.824219 190.058594 223.285156 188.449219 223.015625 187.460938 C 222.121094 184.328125 223.285156 179.9375 225.4375 177.609375 C 226.152344 176.890625 227.226562 176.085938 228.125 176.085938 C 228.570312 176.085938 228.929688 176.265625 229.289062 176.710938 C 230.632812 178.234375 229.824219 182.445312 228.570312 184.328125 C 228.035156 185.132812 227.226562 185.671875 226.511719 185.851562 C 226.0625 185.941406 225.703125 185.851562 225.4375 185.582031 C 224.898438 185.132812 224.628906 184.328125 224.71875 183.429688 C 224.808594 182.265625 225.4375 181.28125 226.152344 180.921875 L 226.242188 180.921875 C 226.332031 181.011719 226.332031 181.28125 226.242188 181.640625 C 226.0625 182.085938 226.421875 182.625 226.871094 182.714844 C 227.316406 182.894531 227.855469 182.535156 227.945312 182.085938 C 228.214844 181.011719 228.035156 180.027344 227.316406 179.488281 C 227.050781 179.308594 226.332031 178.863281 225.257812 179.398438 C 224.003906 180.117188 223.015625 181.640625 222.839844 183.339844 C 222.660156 184.863281 223.195312 186.296875 224.183594 187.105469 C 224.898438 187.640625 225.792969 187.910156 226.691406 187.730469 C 227.945312 187.550781 229.199219 186.65625 230.003906 185.402344 C 230.003906 185.3125 230.09375 185.3125 230.09375 185.222656 C 230.09375 185.402344 230.003906 185.671875 229.914062 185.851562 Z M 231.707031 178.59375 C 231.617188 177.429688 231.257812 176.355469 230.542969 175.636719 C 229.824219 174.832031 229.019531 174.472656 228.035156 174.382812 C 228.035156 174.382812 228.035156 174.382812 227.945312 174.382812 C 226.0625 174.382812 224.539062 175.816406 223.914062 176.445312 C 221.316406 179.222656 220.0625 184.328125 221.046875 188 C 221.136719 188.359375 221.226562 188.628906 221.316406 188.894531 C 205.90625 182.355469 191.484375 176.890625 179.300781 172.589844 C 178.496094 170.261719 179.570312 167.574219 180.644531 165.515625 C 181.808594 163.363281 183.691406 161.214844 186.109375 160.496094 C 199.636719 164.617188 214.507812 168.738281 227.945312 171.695312 C 228.839844 171.875 230.09375 172.679688 230.632812 173.488281 C 231.527344 174.742188 231.886719 176.535156 231.707031 178.59375 Z M 231.707031 178.59375 " fill-opacity="1" fill-rule="nonzero"/></g><g clip-path="url(#20af88c099)"><path fill="#ffffff" d="M 187.308594 196.476562 L 191.851562 205.71875 L 202.007812 207.199219 L 194.65625 214.402344 L 196.394531 224.558594 L 187.308594 219.761719 L 178.21875 224.558594 L 179.953125 214.402344 L 172.605469 207.199219 L 182.761719 205.71875 Z M 187.308594 196.476562 " fill-opacity="1" fill-rule="nonzero"/></g><g clip-path="url(#8ec815f2c0)"><path fill="#ffffff" d="M 187.238281 196.386719 L 191.785156 205.628906 L 201.941406 207.113281 L 194.589844 214.3125 L 196.324219 224.46875 L 187.238281 219.675781 L 178.152344 224.46875 L 179.886719 214.3125 L 172.535156 207.113281 L 182.691406 205.628906 Z M 187.238281 196.386719 " fill-opacity="1" fill-rule="nonzero"/><path fill="#ffffff" d="M 187.238281 196.386719 L 191.785156 205.628906 L 201.941406 207.113281 L 194.589844 214.3125 L 196.324219 224.46875 L 187.238281 219.675781 L 178.152344 224.46875 L 179.886719 214.3125 L 172.535156 207.113281 L 182.691406 205.628906 Z M 187.238281 196.386719 " fill-opacity="1" fill-rule="nonzero"/><path fill="#ffffff" d="M 187.238281 196.386719 L 191.785156 205.628906 L 201.941406 207.113281 L 194.589844 214.3125 L 196.324219 224.46875 L 187.238281 219.675781 L 178.152344 224.46875 L 179.886719 214.3125 L 172.535156 207.113281 L 182.691406 205.628906 Z M 187.238281 196.386719 " fill-opacity="1" fill-rule="nonzero"/></g><g fill="#ffffff" fill-opacity="1"><g transform="translate(34.647347, 327.038332)"><g><path d="M 37.578125 -13.773438 L 37.578125 -14 L 19.929688 -14 L 19.019531 -13.453125 C 26.679688 -13.226562 27.863281 -12.996094 27.863281 -11.355469 L 27.863281 -3.832031 C 26.632812 -2.554688 24.902344 -1.6875 22.253906 -1.6875 C 14.503906 -1.6875 8.847656 -9.621094 8.847656 -18.925781 C 8.847656 -27.453125 13.042969 -31.511719 18.515625 -31.511719 C 25.628906 -31.511719 29.097656 -25.265625 26.726562 -18.972656 L 26.863281 -18.925781 L 33.476562 -27.773438 C 31.375 -30.328125 27.226562 -32.5625 21.253906 -32.5625 C 11.859375 -32.5625 2.050781 -26.816406 2.050781 -15.871094 C 2.050781 -6.339844 9.851562 0.636719 18.378906 0.636719 C 22.4375 0.636719 25.585938 -0.867188 27.726562 -3.011719 L 27.273438 0 L 37.578125 0 L 37.578125 -0.226562 C 35.710938 -0.457031 34.113281 -0.957031 34.113281 -2.597656 L 34.113281 -11.355469 C 34.113281 -12.996094 35.710938 -13.546875 37.578125 -13.773438 Z M 37.578125 -13.773438 "/></g></g></g><g fill="#ffffff" fill-opacity="1"><g transform="translate(72.679408, 327.038332)"><g><path d="M 28.914062 -9.714844 C 25.175781 -3.601562 22.300781 -0.730469 16.417969 -0.730469 L 10.398438 -0.730469 L 10.398438 -15.597656 L 14.230469 -15.597656 C 19.882812 -15.597656 22.027344 -14.367188 23.121094 -10.214844 L 23.121094 -21.753906 C 22.027344 -17.558594 19.882812 -16.328125 14.230469 -16.328125 L 10.398438 -16.328125 L 10.398438 -31.195312 L 16.144531 -31.195312 C 22.027344 -31.195312 23.804688 -28.914062 27.273438 -23.804688 L 27.453125 -23.898438 L 25.765625 -31.925781 L 0.683594 -31.925781 L 0.683594 -31.695312 C 2.554688 -31.46875 4.148438 -30.964844 4.148438 -29.324219 L 4.148438 -3.511719 C 4.148438 -1.871094 2.554688 -0.914062 0.683594 -0.226562 L 0.683594 0 L 24.855469 0 L 26.40625 1.003906 L 26.679688 0 L 29.097656 -9.621094 Z M 28.914062 -9.714844 "/></g></g></g><g fill="#ffffff" fill-opacity="1"><g transform="translate(102.457499, 327.038332)"><g/></g></g><g fill="#ffffff" fill-opacity="1"><g transform="translate(111.57789, 327.038332)"><g><path d="M 32.242188 -5.0625 L 31.925781 -5.289062 C 29.964844 -2.875 26.359375 -1.6875 23.03125 -1.6875 C 14.546875 -1.6875 8.847656 -9.621094 8.847656 -18.925781 C 8.847656 -27.453125 13.132812 -31.605469 18.699219 -31.605469 C 25.675781 -31.605469 28.550781 -25.265625 26.175781 -18.925781 L 26.316406 -18.878906 L 32.925781 -27.773438 C 30.828125 -30.328125 27.136719 -32.5625 21.253906 -32.5625 C 11.859375 -32.5625 2.050781 -26.816406 2.050781 -15.871094 C 2.050781 -6.339844 9.667969 0.636719 19.929688 0.636719 C 26.269531 0.636719 30.28125 -1.960938 32.242188 -5.0625 Z M 32.242188 -5.0625 "/></g></g></g><g fill="#ffffff" fill-opacity="1"><g transform="translate(145.870583, 327.038332)"><g><path d="M 19.65625 -32.5625 C 9.714844 -32.5625 2.050781 -26.222656 2.050781 -15.960938 C 2.050781 -5.699219 9.714844 0.636719 19.65625 0.636719 C 29.550781 0.636719 37.214844 -5.699219 37.214844 -15.960938 C 37.214844 -26.222656 29.550781 -32.5625 19.65625 -32.5625 Z M 21.570312 -0.183594 C 14 -0.183594 8.664062 -9.894531 8.664062 -19.019531 C 8.664062 -26.589844 12.222656 -31.742188 17.695312 -31.742188 C 25.265625 -31.742188 30.601562 -22.027344 30.601562 -12.953125 C 30.601562 -5.382812 27.042969 -0.183594 21.570312 -0.183594 Z M 21.570312 -0.183594 "/></g></g></g><g fill="#ffffff" fill-opacity="1"><g transform="translate(185.133875, 327.038332)"><g><path d="M 27.910156 -9.394531 C 23.804688 -3.921875 21.617188 -0.730469 13.910156 -0.730469 L 10.398438 -0.730469 L 10.398438 -29.324219 C 10.398438 -30.964844 11.996094 -31.46875 14.320312 -31.695312 L 14.320312 -31.925781 L 0.683594 -31.925781 L 0.683594 -31.695312 C 2.554688 -31.46875 4.148438 -30.964844 4.148438 -29.324219 L 4.148438 -5.109375 C 4.148438 -2.691406 2.554688 -0.914062 0.683594 -0.226562 L 0.683594 0 L 23.898438 0 L 25.449219 1.003906 L 25.722656 0 L 28.09375 -9.304688 Z M 27.910156 -9.394531 "/></g></g></g><g fill="#ffffff" fill-opacity="1"><g transform="translate(213.908717, 327.038332)"><g><path d="M 27.910156 -9.394531 C 23.804688 -3.921875 21.617188 -0.730469 13.910156 -0.730469 L 10.398438 -0.730469 L 10.398438 -29.324219 C 10.398438 -30.964844 11.996094 -31.46875 14.320312 -31.695312 L 14.320312 -31.925781 L 0.683594 -31.925781 L 0.683594 -31.695312 C 2.554688 -31.46875 4.148438 -30.964844 4.148438 -29.324219 L 4.148438 -5.109375 C 4.148438 -2.691406 2.554688 -0.914062 0.683594 -0.226562 L 0.683594 0 L 23.898438 0 L 25.449219 1.003906 L 25.722656 0 L 28.09375 -9.304688 Z M 27.910156 -9.394531 "/></g></g></g><g fill="#ffffff" fill-opacity="1"><g transform="translate(242.683559, 327.038332)"><g><path d="M 28.914062 -9.714844 C 25.175781 -3.601562 22.300781 -0.730469 16.417969 -0.730469 L 10.398438 -0.730469 L 10.398438 -15.597656 L 14.230469 -15.597656 C 19.882812 -15.597656 22.027344 -14.367188 23.121094 -10.214844 L 23.121094 -21.753906 C 22.027344 -17.558594 19.882812 -16.328125 14.230469 -16.328125 L 10.398438 -16.328125 L 10.398438 -31.195312 L 16.144531 -31.195312 C 22.027344 -31.195312 23.804688 -28.914062 27.273438 -23.804688 L 27.453125 -23.898438 L 25.765625 -31.925781 L 0.683594 -31.925781 L 0.683594 -31.695312 C 2.554688 -31.46875 4.148438 -30.964844 4.148438 -29.324219 L 4.148438 -3.511719 C 4.148438 -1.871094 2.554688 -0.914062 0.683594 -0.226562 L 0.683594 0 L 24.855469 0 L 26.40625 1.003906 L 26.679688 0 L 29.097656 -9.621094 Z M 28.914062 -9.714844 "/></g></g></g><g fill="#ffffff" fill-opacity="1"><g transform="translate(272.46165, 327.038332)"><g><path d="M 37.578125 -13.773438 L 37.578125 -14 L 19.929688 -14 L 19.019531 -13.453125 C 26.679688 -13.226562 27.863281 -12.996094 27.863281 -11.355469 L 27.863281 -3.832031 C 26.632812 -2.554688 24.902344 -1.6875 22.253906 -1.6875 C 14.503906 -1.6875 8.847656 -9.621094 8.847656 -18.925781 C 8.847656 -27.453125 13.042969 -31.511719 18.515625 -31.511719 C 25.628906 -31.511719 29.097656 -25.265625 26.726562 -18.972656 L 26.863281 -18.925781 L 33.476562 -27.773438 C 31.375 -30.328125 27.226562 -32.5625 21.253906 -32.5625 C 11.859375 -32.5625 2.050781 -26.816406 2.050781 -15.871094 C 2.050781 -6.339844 9.851562 0.636719 18.378906 0.636719 C 22.4375 0.636719 25.585938 -0.867188 27.726562 -3.011719 L 27.273438 0 L 37.578125 0 L 37.578125 -0.226562 C 35.710938 -0.457031 34.113281 -0.957031 34.113281 -2.597656 L 34.113281 -11.355469 C 34.113281 -12.996094 35.710938 -13.546875 37.578125 -13.773438 Z M 37.578125 -13.773438 "/></g></g></g><g fill="#ffffff" fill-opacity="1"><g transform="translate(310.493711, 327.038332)"><g><path d="M 28.914062 -9.714844 C 25.175781 -3.601562 22.300781 -0.730469 16.417969 -0.730469 L 10.398438 -0.730469 L 10.398438 -15.597656 L 14.230469 -15.597656 C 19.882812 -15.597656 22.027344 -14.367188 23.121094 -10.214844 L 23.121094 -21.753906 C 22.027344 -17.558594 19.882812 -16.328125 14.230469 -16.328125 L 10.398438 -16.328125 L 10.398438 -31.195312 L 16.144531 -31.195312 C 22.027344 -31.195312 23.804688 -28.914062 27.273438 -23.804688 L 27.453125 -23.898438 L 25.765625 -31.925781 L 0.683594 -31.925781 L 0.683594 -31.695312 C 2.554688 -31.46875 4.148438 -30.964844 4.148438 -29.324219 L 4.148438 -3.511719 C 4.148438 -1.871094 2.554688 -0.914062 0.683594 -0.226562 L 0.683594 0 L 24.855469 0 L 26.40625 1.003906 L 26.679688 0 L 29.097656 -9.621094 Z M 28.914062 -9.714844 "/></g></g></g><g fill="#fb8b24" fill-opacity="1"><g transform="translate(59.011932, 360.164274)"><g><path d="M 17.828125 0 L 12.765625 0 L 12.765625 -4.875 L 6.40625 -4.875 L 6.40625 0 L 1.34375 0 L 1.34375 -12.0625 L 6.40625 -12.0625 L 6.40625 -7.1875 L 12.765625 -7.1875 L 12.765625 -12.0625 L 17.828125 -12.0625 Z M 17.828125 0 "/></g></g></g><g fill="#fb8b24" fill-opacity="1"><g transform="translate(78.169116, 360.164274)"><g><path d="M 6.40625 0 L 1.34375 0 L 1.34375 -12.0625 L 6.40625 -12.0625 Z M 6.40625 0 "/></g></g></g><g fill="#fb8b24" fill-opacity="1"><g transform="translate(85.916013, 360.164274)"><g><path d="M 9.125 0.265625 C 6.144531 0.265625 3.953125 -0.347656 2.546875 -1.578125 C 1.296875 -2.671875 0.671875 -4.148438 0.671875 -6.015625 C 0.671875 -7.898438 1.296875 -9.382812 2.546875 -10.46875 C 3.953125 -11.695312 6.144531 -12.3125 9.125 -12.3125 C 10.820312 -12.3125 12.234375 -12.117188 13.359375 -11.734375 C 14.484375 -11.359375 15.363281 -10.835938 16 -10.171875 C 16.644531 -9.515625 17.085938 -8.757812 17.328125 -7.90625 L 11.90625 -7.90625 C 11.34375 -8.6875 10.414062 -9.078125 9.125 -9.078125 C 7.90625 -9.078125 7.003906 -8.722656 6.421875 -8.015625 C 5.960938 -7.453125 5.734375 -6.785156 5.734375 -6.015625 C 5.734375 -5.253906 5.960938 -4.59375 6.421875 -4.03125 C 7.003906 -3.320312 7.90625 -2.96875 9.125 -2.96875 C 10.113281 -2.96875 10.851562 -3.050781 11.34375 -3.21875 C 11.84375 -3.394531 12.207031 -3.625 12.4375 -3.90625 L 10.453125 -3.90625 L 10.453125 -6.015625 L 17.328125 -6.015625 L 17.328125 0.015625 L 15.21875 0.015625 L 14.796875 -1.15625 C 13.453125 -0.207031 11.5625 0.265625 9.125 0.265625 Z M 9.125 0.265625 "/></g></g></g><g fill="#fb8b24" fill-opacity="1"><g transform="translate(104.241377, 360.164274)"><g><path d="M 17.828125 0 L 12.765625 0 L 12.765625 -4.875 L 6.40625 -4.875 L 6.40625 0 L 1.34375 0 L 1.34375 -12.0625 L 6.40625 -12.0625 L 6.40625 -7.1875 L 12.765625 -7.1875 L 12.765625 -12.0625 L 17.828125 -12.0625 Z M 17.828125 0 "/></g></g></g><g fill="#fb8b24" fill-opacity="1"><g transform="translate(123.398562, 360.164274)"><g><path d="M 15.875 0 L 1.34375 0 L 1.34375 -12.0625 L 15.203125 -12.0625 L 15.203125 -9.078125 L 6.40625 -9.078125 L 6.40625 -7.1875 L 13.84375 -7.1875 L 13.84375 -4.875 L 6.40625 -4.875 L 6.40625 -2.984375 L 15.875 -2.984375 Z M 15.875 0 "/></g></g></g><g fill="#fb8b24" fill-opacity="1"><g transform="translate(139.934237, 360.164274)"><g><path d="M 17.8125 0 L 13.03125 0 C 12.8125 -0.300781 12.65625 -0.6875 12.5625 -1.15625 C 12.488281 -1.519531 12.375 -1.875 12.21875 -2.21875 C 12.0625 -2.570312 11.789062 -2.863281 11.40625 -3.09375 C 11.019531 -3.332031 10.445312 -3.460938 9.6875 -3.484375 L 6.40625 -3.484375 L 6.40625 0 L 1.34375 0 L 1.34375 -12.0625 L 9.578125 -12.0625 C 11.546875 -12.0625 13.132812 -11.914062 14.34375 -11.625 C 15.550781 -11.332031 16.429688 -10.867188 16.984375 -10.234375 C 17.535156 -9.609375 17.8125 -8.785156 17.8125 -7.765625 C 17.8125 -6.921875 17.617188 -6.207031 17.234375 -5.625 C 16.847656 -5.050781 16.242188 -4.597656 15.421875 -4.265625 C 16.222656 -3.929688 16.742188 -3.53125 16.984375 -3.0625 C 17.222656 -2.601562 17.367188 -2.097656 17.421875 -1.546875 C 17.472656 -1.054688 17.601562 -0.539062 17.8125 0 Z M 6.40625 -6.453125 L 9.296875 -6.46875 C 10.109375 -6.46875 10.742188 -6.503906 11.203125 -6.578125 C 11.671875 -6.648438 12.015625 -6.75 12.234375 -6.875 C 12.453125 -7 12.59375 -7.140625 12.65625 -7.296875 C 12.71875 -7.453125 12.75 -7.609375 12.75 -7.765625 C 12.75 -7.929688 12.71875 -8.09375 12.65625 -8.25 C 12.59375 -8.40625 12.453125 -8.546875 12.234375 -8.671875 C 12.015625 -8.796875 11.671875 -8.894531 11.203125 -8.96875 C 10.742188 -9.039062 10.109375 -9.078125 9.296875 -9.078125 L 6.40625 -9.078125 Z M 6.40625 -6.453125 "/></g></g></g><g fill="#fb8b24" fill-opacity="1"><g transform="translate(158.410842, 360.164274)"><g/></g></g><g fill="#fb8b24" fill-opacity="1"><g transform="translate(162.679197, 360.164274)"><g><path d="M 15.875 0 L 1.34375 0 L 1.34375 -12.0625 L 15.203125 -12.0625 L 15.203125 -9.078125 L 6.40625 -9.078125 L 6.40625 -7.1875 L 13.84375 -7.1875 L 13.84375 -4.875 L 6.40625 -4.875 L 6.40625 -2.984375 L 15.875 -2.984375 Z M 15.875 0 "/></g></g></g><g fill="#fb8b24" fill-opacity="1"><g transform="translate(179.214873, 360.164274)"><g><path d="M 9.421875 0 L 1.34375 0 L 1.34375 -12.0625 L 9.421875 -12.0625 C 12.722656 -12.0625 15.09375 -11.597656 16.53125 -10.671875 C 17.695312 -9.929688 18.363281 -8.921875 18.53125 -7.640625 C 18.601562 -7.078125 18.640625 -6.539062 18.640625 -6.03125 C 18.640625 -5.519531 18.601562 -4.984375 18.53125 -4.421875 C 18.457031 -3.867188 18.269531 -3.328125 17.96875 -2.796875 C 17.664062 -2.273438 17.1875 -1.800781 16.53125 -1.375 C 15.875 -0.957031 14.972656 -0.625 13.828125 -0.375 C 12.679688 -0.125 11.210938 0 9.421875 0 Z M 8.9375 -2.984375 C 11.507812 -2.984375 12.960938 -3.632812 13.296875 -4.9375 C 13.390625 -5.300781 13.4375 -5.664062 13.4375 -6.03125 C 13.4375 -6.394531 13.390625 -6.757812 13.296875 -7.125 C 13.203125 -7.488281 13.003906 -7.816406 12.703125 -8.109375 C 12.410156 -8.398438 11.960938 -8.632812 11.359375 -8.8125 C 10.753906 -8.988281 9.945312 -9.078125 8.9375 -9.078125 L 6.40625 -9.078125 L 6.40625 -2.984375 Z M 8.9375 -2.984375 "/></g></g></g><g fill="#fb8b24" fill-opacity="1"><g transform="translate(198.5149, 360.164274)"><g><path d="M 8.484375 0.265625 C 5.535156 0.265625 3.460938 -0.347656 2.265625 -1.578125 C 1.253906 -2.597656 0.75 -4.078125 0.75 -6.015625 L 0.75 -12.0625 L 5.8125 -12.0625 L 5.8125 -6.015625 C 5.8125 -5.179688 5.957031 -4.519531 6.25 -4.03125 C 6.65625 -3.320312 7.398438 -2.96875 8.484375 -2.96875 C 9.578125 -2.96875 10.328125 -3.320312 10.734375 -4.03125 C 11.015625 -4.53125 11.15625 -5.191406 11.15625 -6.015625 L 11.15625 -12.0625 L 16.21875 -12.0625 L 16.21875 -5.953125 C 16.21875 -4.054688 15.71875 -2.597656 14.71875 -1.578125 C 13.507812 -0.347656 11.429688 0.265625 8.484375 0.265625 Z M 8.484375 0.265625 "/></g></g></g><g fill="#fb8b24" fill-opacity="1"><g transform="translate(215.479096, 360.164274)"><g><path d="M 9.125 0.265625 C 6.144531 0.265625 3.953125 -0.347656 2.546875 -1.578125 C 1.296875 -2.660156 0.671875 -4.140625 0.671875 -6.015625 C 0.671875 -7.898438 1.296875 -9.382812 2.546875 -10.46875 C 3.953125 -11.6875 6.144531 -12.296875 9.125 -12.296875 C 10.875 -12.296875 12.316406 -12.09375 13.453125 -11.6875 C 14.597656 -11.289062 15.488281 -10.742188 16.125 -10.046875 C 16.757812 -9.359375 17.179688 -8.566406 17.390625 -7.671875 L 12.0625 -7.671875 C 11.53125 -8.609375 10.550781 -9.078125 9.125 -9.078125 C 7.90625 -9.078125 7.003906 -8.722656 6.421875 -8.015625 C 5.960938 -7.453125 5.734375 -6.785156 5.734375 -6.015625 C 5.734375 -5.253906 5.960938 -4.59375 6.421875 -4.03125 C 7.003906 -3.320312 7.90625 -2.96875 9.125 -2.96875 C 10.550781 -2.96875 11.53125 -3.4375 12.0625 -4.375 L 17.390625 -4.375 C 17.179688 -3.476562 16.757812 -2.679688 16.125 -1.984375 C 15.488281 -1.285156 14.597656 -0.734375 13.453125 -0.328125 C 12.316406 0.0664062 10.875 0.265625 9.125 0.265625 Z M 9.125 0.265625 "/></g></g></g><g fill="#fb8b24" fill-opacity="1"><g transform="translate(233.52719, 360.164274)"><g><path d="M 20.265625 0 L 15.140625 0 L 14 -1.96875 L 6.390625 -1.96875 L 5.25 0 L 0.125 0 L 7.84375 -12.0625 L 12.546875 -12.0625 Z M 12.296875 -4.953125 L 10.203125 -8.625 L 8.09375 -4.953125 Z M 12.296875 -4.953125 "/></g></g></g><g fill="#fb8b24" fill-opacity="1"><g transform="translate(253.9027, 360.164274)"><g><path d="M 10.296875 0 L 5.234375 0 L 5.234375 -9.078125 L 0.5 -9.078125 L 0.5 -12.0625 L 15.015625 -12.0625 L 15.015625 -9.078125 L 10.296875 -9.078125 Z M 10.296875 0 "/></g></g></g><g fill="#fb8b24" fill-opacity="1"><g transform="translate(269.413307, 360.164274)"><g><path d="M 6.40625 0 L 1.34375 0 L 1.34375 -12.0625 L 6.40625 -12.0625 Z M 6.40625 0 "/></g></g></g><g fill="#fb8b24" fill-opacity="1"><g transform="translate(277.160194, 360.164274)"><g><path d="M 9.125 0.265625 C 6.144531 0.265625 3.953125 -0.347656 2.546875 -1.578125 C 1.296875 -2.671875 0.671875 -4.15625 0.671875 -6.03125 C 0.671875 -7.90625 1.296875 -9.382812 2.546875 -10.46875 C 3.953125 -11.695312 6.144531 -12.3125 9.125 -12.3125 C 12.101562 -12.3125 14.296875 -11.695312 15.703125 -10.46875 C 16.953125 -9.382812 17.578125 -7.90625 17.578125 -6.03125 C 17.578125 -4.15625 16.953125 -2.671875 15.703125 -1.578125 C 14.296875 -0.347656 12.101562 0.265625 9.125 0.265625 Z M 9.125 -2.96875 C 10.34375 -2.96875 11.238281 -3.320312 11.8125 -4.03125 C 12.269531 -4.59375 12.5 -5.257812 12.5 -6.03125 C 12.5 -6.800781 12.269531 -7.460938 11.8125 -8.015625 C 11.238281 -8.722656 10.34375 -9.078125 9.125 -9.078125 C 7.90625 -9.078125 7.003906 -8.722656 6.421875 -8.015625 C 5.960938 -7.460938 5.734375 -6.800781 5.734375 -6.03125 C 5.734375 -5.257812 5.960938 -4.59375 6.421875 -4.03125 C 7.003906 -3.320312 7.90625 -2.96875 9.125 -2.96875 Z M 9.125 -2.96875 "/></g></g></g><g fill="#fb8b24" fill-opacity="1"><g transform="translate(295.393119, 360.164274)"><g><path d="M 19.25 0 L 13.21875 0 L 6.40625 -8.15625 L 6.40625 0 L 1.34375 0 L 1.34375 -12.0625 L 7.359375 -12.0625 L 14.1875 -3.9375 L 14.1875 -12.0625 L 19.25 -12.0625 Z M 19.25 0 "/></g></g></g></svg>