<svg xmlns="http://www.w3.org/2000/svg" xmlns:xlink="http://www.w3.org/1999/xlink" width="500" zoomAndPan="magnify" viewBox="0 0 375 374.999991" height="500" preserveAspectRatio="xMidYMid meet" version="1.0"><defs><g/><clipPath id="3cc15c2e7a"><path d="M 68.636719 162 L 106 162 L 106 198 L 68.636719 198 Z M 68.636719 162 " clip-rule="nonzero"/></clipPath><clipPath id="24c374c17a"><path d="M 173 251 L 203 251 L 203 291.425781 L 173 291.425781 Z M 173 251 " clip-rule="nonzero"/></clipPath><clipPath id="8efe5c57cf"><path d="M 269 162 L 306.960938 162 L 306.960938 198 L 269 198 Z M 269 162 " clip-rule="nonzero"/></clipPath><clipPath id="89c6b46faa"><path d="M 130.117188 85.203125 L 237 85.203125 L 237 153 L 130.117188 153 Z M 130.117188 85.203125 " clip-rule="nonzero"/></clipPath><clipPath id="f5bad8f853"><path d="M 182 105 L 245.4375 105 L 245.4375 151 L 182 151 Z M 182 105 " clip-rule="nonzero"/></clipPath><clipPath id="4fda98f999"><path d="M 134 144 L 235 144 L 235 196.675781 L 134 196.675781 Z M 134 144 " clip-rule="nonzero"/></clipPath><clipPath id="617ffc8b1a"><path d="M 172.535156 196.378906 L 202.007812 196.378906 L 202.007812 224.566406 L 172.535156 224.566406 Z M 172.535156 196.378906 " clip-rule="nonzero"/></clipPath></defs><path fill="#000000" d="M 233.914062 63.300781 L 141.683594 63.300781 C 141.683594 63.300781 138.339844 84.625 113.613281 87.957031 L 113.613281 157.265625 C 113.613281 216.285156 187.796875 250.273438 187.796875 250.273438 C 187.796875 250.273438 261.984375 216.285156 261.984375 157.265625 L 261.984375 87.957031 C 237.253906 84.625 233.914062 63.300781 233.914062 63.300781 Z M 255.371094 157.265625 C 255.371094 205.207031 200.816406 236.199219 187.796875 242.90625 C 182.070312 239.960938 168.320312 232.335938 154.773438 220.6875 C 144.601562 211.945312 136.527344 202.675781 130.78125 193.140625 C 123.777344 181.527344 120.226562 169.457031 120.226562 157.261719 L 120.226562 93.371094 C 131.851562 90.339844 138.628906 83.597656 142.386719 78.089844 C 144.414062 75.125 145.765625 72.25 146.648438 69.894531 L 228.949219 69.894531 C 229.835938 72.25 231.183594 75.125 233.210938 78.089844 C 236.96875 83.59375 243.75 90.339844 255.371094 93.371094 Z M 255.371094 157.265625 " fill-opacity="1" fill-rule="nonzero"/><path fill="#000000" d="M 157.988281 42.382812 L 217.609375 42.382812 C 217.609375 42.382812 225.738281 37.015625 228.097656 24.941406 C 229.976562 15.300781 223.855469 7.007812 223.855469 7.007812 L 223.03125 14.203125 L 226.210938 20.34375 C 226.210938 20.34375 224.621094 18.351562 222.441406 18.414062 C 222.441406 18.414062 222.617188 21.582031 224.972656 22.804688 C 224.972656 22.804688 221.203125 22.378906 220.257812 25.183594 C 219.316406 27.988281 221.851562 28.050781 221.851562 28.050781 C 221.851562 28.050781 220.378906 26.222656 221.96875 25.304688 C 223.558594 24.390625 224.390625 26.035156 223.03125 28.902344 C 221.675781 31.769531 219.140625 34.578125 217.136719 34.699219 C 215.996094 34.765625 215.410156 33.769531 215.117188 32.898438 C 216.0625 32.730469 216.785156 31.882812 216.785156 30.855469 C 216.785156 29.707031 215.886719 28.78125 214.78125 28.78125 C 213.675781 28.78125 212.777344 29.707031 212.777344 30.855469 C 212.777344 31.882812 213.503906 32.734375 214.453125 32.898438 C 214.070312 33.695312 213.339844 34.597656 211.953125 34.695312 C 209.421875 34.878906 207.949219 29.390625 208.300781 27.804688 C 208.65625 26.21875 210.894531 26.097656 211.011719 27.5 C 211.011719 27.5 211.835938 25.792969 210.363281 25.179688 C 209.511719 24.828125 208.835938 25.046875 208.417969 25.296875 C 209.105469 24.691406 210.324219 23.351562 210.65625 21.277344 C 210.65625 21.277344 208.417969 21.398438 207.242188 23.65625 L 208.535156 19.140625 L 205.945312 14.023438 L 203.351562 19.144531 L 204.648438 23.660156 C 203.46875 21.402344 201.230469 21.28125 201.230469 21.28125 C 201.5625 23.355469 202.785156 24.691406 203.46875 25.296875 C 203.050781 25.050781 202.378906 24.832031 201.523438 25.183594 C 200.050781 25.792969 200.875 27.5 200.875 27.5 C 200.996094 26.097656 203.234375 26.222656 203.585938 27.808594 C 203.941406 29.394531 202.46875 34.882812 199.933594 34.699219 C 198.535156 34.597656 197.804688 33.683594 197.425781 32.878906 C 198.320312 32.671875 198.992188 31.847656 198.992188 30.859375 C 198.992188 29.710938 198.09375 28.78125 196.988281 28.78125 C 195.882812 28.78125 194.984375 29.710938 194.984375 30.859375 C 194.984375 31.863281 195.675781 32.699219 196.589844 32.890625 C 196.167969 33.683594 195.398438 34.574219 194.042969 34.640625 C 191.566406 34.761719 189.152344 25.855469 190.269531 22.929688 C 191.390625 20 194.820312 22.136719 193.519531 24.453125 C 193.519531 24.453125 195.160156 24.269531 195.28125 21.890625 C 195.382812 19.824219 192.816406 18.542969 191.023438 19.4375 C 191.640625 18.902344 192.496094 17.976562 192.980469 16.644531 C 192.980469 16.644531 190.859375 16.15625 189.210938 18.167969 L 191.210938 12.742188 L 187.796875 7.007812 L 184.382812 12.742188 L 186.382812 18.167969 C 184.734375 16.15625 182.613281 16.644531 182.613281 16.644531 C 183.097656 17.976562 183.953125 18.902344 184.570312 19.4375 C 182.777344 18.539062 180.210938 19.824219 180.3125 21.890625 C 180.433594 24.269531 182.074219 24.453125 182.074219 24.453125 C 180.773438 22.136719 184.203125 20 185.324219 22.929688 C 186.441406 25.855469 184.027344 34.761719 181.550781 34.640625 C 180.195312 34.574219 179.425781 33.683594 179.003906 32.890625 C 179.917969 32.699219 180.609375 31.863281 180.609375 30.859375 C 180.609375 29.710938 179.710938 28.78125 178.605469 28.78125 C 177.5 28.78125 176.605469 29.710938 176.605469 30.859375 C 176.605469 31.847656 177.273438 32.671875 178.167969 32.878906 C 177.789062 33.683594 177.058594 34.597656 175.660156 34.699219 C 173.128906 34.882812 171.65625 29.394531 172.007812 27.808594 C 172.363281 26.222656 174.601562 26.101562 174.71875 27.5 C 174.71875 27.5 175.542969 25.792969 174.070312 25.183594 C 173.21875 24.832031 172.542969 25.050781 172.128906 25.296875 C 172.8125 24.695312 174.03125 23.355469 174.363281 21.28125 C 174.363281 21.28125 172.125 21.402344 170.949219 23.660156 L 172.242188 19.144531 L 169.652344 14.023438 L 167.058594 19.144531 L 168.355469 23.660156 C 167.179688 21.402344 164.9375 21.28125 164.9375 21.28125 C 165.273438 23.355469 166.492188 24.691406 167.175781 25.296875 C 166.757812 25.050781 166.085938 24.832031 165.234375 25.183594 C 163.761719 25.792969 164.585938 27.5 164.585938 27.5 C 164.703125 26.097656 166.941406 26.222656 167.296875 27.808594 C 167.648438 29.394531 166.175781 34.882812 163.640625 34.699219 C 162.257812 34.601562 161.523438 33.699219 161.144531 32.898438 C 162.09375 32.738281 162.816406 31.886719 162.816406 30.859375 C 162.816406 29.710938 161.921875 28.78125 160.816406 28.78125 C 159.710938 28.78125 158.8125 29.710938 158.8125 30.859375 C 158.8125 31.882812 159.535156 32.734375 160.480469 32.898438 C 160.183594 33.773438 159.597656 34.769531 158.460938 34.699219 C 156.457031 34.578125 153.921875 31.773438 152.566406 28.90625 C 151.207031 26.039062 152.039062 24.390625 153.628906 25.308594 C 155.21875 26.222656 153.746094 28.054688 153.746094 28.054688 C 153.746094 28.054688 156.28125 27.992188 155.339844 25.1875 C 154.394531 22.382812 150.625 22.808594 150.625 22.808594 C 152.980469 21.589844 153.160156 18.414062 153.160156 18.414062 C 150.976562 18.355469 149.386719 20.347656 149.386719 20.347656 L 152.566406 14.207031 L 151.742188 7.011719 C 151.742188 7.011719 145.621094 15.304688 147.503906 24.941406 C 149.855469 37.015625 157.988281 42.382812 157.988281 42.382812 Z M 205.882812 31.160156 C 205.882812 31.160156 208.269531 34.152344 208.015625 35.625 C 207.761719 37.097656 206.1875 36.832031 205.882812 35.414062 C 205.582031 36.832031 204.007812 37.097656 203.753906 35.625 C 203.5 34.152344 205.882812 31.160156 205.882812 31.160156 Z M 187.796875 30.855469 C 187.796875 30.855469 190.183594 33.851562 189.929688 35.324219 C 189.675781 36.792969 188.101562 36.53125 187.796875 35.113281 C 187.492188 36.53125 185.921875 36.792969 185.667969 35.324219 C 185.414062 33.851562 187.796875 30.855469 187.796875 30.855469 Z M 169.710938 31.160156 C 169.710938 31.160156 172.097656 34.152344 171.84375 35.625 C 171.589844 37.097656 170.015625 36.832031 169.710938 35.414062 C 169.40625 36.832031 167.832031 37.097656 167.582031 35.625 C 167.328125 34.152344 169.710938 31.160156 169.710938 31.160156 Z M 169.710938 31.160156 " fill-opacity="1" fill-rule="nonzero"/><path fill="#000000" d="M 217.960938 46.167969 C 218.632812 46.167969 219.179688 45.621094 219.179688 44.953125 C 219.179688 44.285156 218.632812 43.738281 217.960938 43.738281 L 157.632812 43.738281 C 156.964844 43.738281 156.417969 44.285156 156.417969 44.953125 C 156.417969 45.621094 156.964844 46.167969 157.632812 46.167969 Z M 217.960938 46.167969 " fill-opacity="1" fill-rule="nonzero"/><path fill="#000000" d="M 155.941406 57.1875 L 219.65625 57.1875 C 219.65625 57.1875 220.757812 51.414062 217.941406 47.527344 L 157.652344 47.527344 C 154.839844 51.414062 155.941406 57.1875 155.941406 57.1875 Z M 205.855469 51.867188 C 206.289062 51.867188 206.644531 52.21875 206.644531 52.652344 C 206.644531 53.085938 206.292969 53.4375 205.855469 53.4375 C 205.421875 53.4375 205.066406 53.085938 205.066406 52.652344 C 205.070312 52.21875 205.421875 51.867188 205.855469 51.867188 Z M 203.292969 51.585938 C 203.886719 51.585938 204.367188 52.0625 204.367188 52.652344 C 204.367188 53.242188 203.886719 53.71875 203.292969 53.71875 C 202.703125 53.71875 202.222656 53.242188 202.222656 52.652344 C 202.222656 52.0625 202.703125 51.585938 203.292969 51.585938 Z M 200.222656 51.292969 C 200.972656 51.292969 201.582031 51.902344 201.582031 52.652344 C 201.582031 53.402344 200.972656 54.007812 200.222656 54.007812 C 199.46875 54.007812 198.859375 53.402344 198.859375 52.652344 C 198.859375 51.902344 199.46875 51.292969 200.222656 51.292969 Z M 193.28125 52.652344 C 194.195312 52.03125 194.972656 50.808594 194.316406 50.265625 C 193.65625 49.726562 193.042969 50.5 193.042969 50.5 C 192.855469 49.421875 194.265625 48.671875 195.066406 49.609375 C 195.867188 50.550781 195.019531 52.113281 195.019531 52.113281 L 196.289062 51.578125 L 198.3125 52.652344 L 196.289062 53.722656 L 195.019531 53.1875 C 195.019531 53.1875 195.867188 54.753906 195.066406 55.691406 C 194.265625 56.628906 192.855469 55.878906 193.042969 54.800781 C 193.042969 54.800781 193.65625 55.574219 194.316406 55.035156 C 194.972656 54.496094 194.195312 53.269531 193.28125 52.652344 Z M 190.886719 50.707031 C 191.339844 50.707031 191.710938 51.078125 191.710938 51.53125 C 191.710938 51.988281 191.339844 52.355469 190.886719 52.355469 C 190.429688 52.355469 190.058594 51.988281 190.058594 51.53125 C 190.058594 51.078125 190.429688 50.707031 190.886719 50.707031 Z M 184.710938 50.707031 C 185.167969 50.707031 185.539062 51.078125 185.539062 51.53125 C 185.539062 51.988281 185.167969 52.355469 184.710938 52.355469 C 184.253906 52.355469 183.886719 51.988281 183.886719 51.53125 C 183.886719 51.078125 184.253906 50.707031 184.710938 50.707031 Z M 183.832031 53.425781 C 185.054688 52.390625 187.097656 53.484375 187.097656 53.484375 L 186.402344 51.839844 L 187.796875 49.214844 L 189.191406 51.839844 L 188.492188 53.484375 C 188.492188 53.484375 190.539062 52.386719 191.761719 53.425781 C 192.984375 54.460938 192.003906 56.292969 190.597656 56.046875 C 190.597656 56.046875 191.609375 55.253906 190.90625 54.402344 C 190.203125 53.546875 188.601562 54.554688 187.796875 55.742188 C 186.988281 54.554688 185.390625 53.546875 184.6875 54.402344 C 183.984375 55.253906 184.992188 56.046875 184.992188 56.046875 C 183.589844 56.292969 182.609375 54.460938 183.832031 53.425781 Z M 179.304688 51.582031 L 180.578125 52.117188 C 180.578125 52.117188 179.730469 50.550781 180.527344 49.613281 C 181.328125 48.671875 182.738281 49.425781 182.550781 50.503906 C 182.550781 50.503906 181.941406 49.726562 181.28125 50.269531 C 180.625 50.808594 181.398438 52.035156 182.316406 52.652344 C 181.398438 53.269531 180.625 54.496094 181.28125 55.035156 C 181.941406 55.574219 182.550781 54.800781 182.550781 54.800781 C 182.738281 55.878906 181.328125 56.632812 180.527344 55.691406 C 179.730469 54.753906 180.578125 53.1875 180.578125 53.1875 L 179.304688 53.722656 L 177.285156 52.652344 Z M 175.375 51.292969 C 176.128906 51.292969 176.738281 51.902344 176.738281 52.652344 C 176.738281 53.402344 176.128906 54.007812 175.375 54.007812 C 174.625 54.007812 174.015625 53.402344 174.015625 52.652344 C 174.011719 51.902344 174.625 51.292969 175.375 51.292969 Z M 172.300781 51.585938 C 172.894531 51.585938 173.371094 52.0625 173.371094 52.652344 C 173.371094 53.242188 172.890625 53.71875 172.300781 53.71875 C 171.710938 53.71875 171.230469 53.242188 171.230469 52.652344 C 171.230469 52.0625 171.710938 51.585938 172.300781 51.585938 Z M 169.742188 51.867188 C 170.175781 51.867188 170.527344 52.21875 170.527344 52.652344 C 170.527344 53.085938 170.175781 53.4375 169.742188 53.4375 C 169.304688 53.4375 168.953125 53.085938 168.953125 52.652344 C 168.953125 52.21875 169.304688 51.867188 169.742188 51.867188 Z M 169.742188 51.867188 " fill-opacity="1" fill-rule="nonzero"/><path fill="#000000" d="M 154.949219 59.097656 C 154.949219 59.566406 155.335938 59.953125 155.804688 59.953125 L 219.789062 59.953125 C 220.261719 59.953125 220.644531 59.566406 220.644531 59.097656 C 220.644531 58.628906 220.261719 58.246094 219.789062 58.246094 L 155.804688 58.246094 C 155.335938 58.242188 154.949219 58.628906 154.949219 59.097656 Z M 154.949219 59.097656 " fill-opacity="1" fill-rule="nonzero"/><path fill="#000000" d="M 179.023438 249.195312 C 174.40625 249.441406 170.460938 246.171875 168.730469 246.941406 C 167 247.707031 168.152344 249.195312 168.152344 249.195312 C 167.09375 249.25 164.113281 247.515625 162.667969 247.898438 C 161.226562 248.28125 161.898438 250.296875 161.898438 250.296875 C 161.898438 250.296875 158.050781 246.941406 156.128906 247.996094 C 154.203125 249.050781 156.128906 250.75 156.128906 250.75 C 152.761719 250.816406 148.144531 244.636719 151.222656 240.511719 C 154.300781 236.386719 158.820312 240.511719 157.28125 242.046875 C 155.742188 243.582031 154.78125 245.5 158.050781 245.980469 C 161.324219 246.460938 163.34375 240.320312 160.839844 237.058594 C 158.339844 233.796875 153.628906 235.042969 153.628906 235.042969 C 154.878906 234.757812 155.261719 232.265625 152.472656 232.167969 C 149.683594 232.070312 147.179688 235.429688 147.179688 235.429688 C 147.757812 233.703125 145.738281 231.398438 143.71875 233.992188 C 141.699219 236.582031 144.296875 242.238281 144.296875 242.238281 C 140.257812 237.441406 136.695312 238.785156 135.15625 240.417969 C 133.617188 242.046875 130.636719 240.417969 130.636719 240.417969 C 132.464844 244.828125 135.542969 245.597656 138.523438 245.882812 C 141.507812 246.171875 144.070312 248.601562 144.070312 248.601562 C 139.835938 246.683594 136.117188 250.75 136.117188 250.75 C 141.761719 250.976562 140.734375 252.183594 150.867188 255.25 C 161.003906 258.324219 179.023438 249.195312 179.023438 249.195312 Z M 179.023438 249.195312 " fill-opacity="1" fill-rule="nonzero"/><path fill="#000000" d="M 171.074219 255.199219 C 167.609375 261.03125 163.394531 259.597656 163.394531 259.597656 C 167.570312 259.148438 170.511719 253.964844 170.511719 253.964844 C 166.332031 258.628906 155.371094 258.019531 155.371094 258.019531 C 158.421875 263.878906 164.410156 261.964844 164.410156 261.964844 C 161.652344 264.796875 163.167969 268.046875 163.167969 268.046875 C 165.988281 267.035156 167.34375 263.089844 167.34375 263.089844 C 167.667969 268.191406 175.027344 268.835938 175.027344 268.835938 C 170.285156 263.65625 171.074219 255.199219 171.074219 255.199219 Z M 171.074219 255.199219 " fill-opacity="1" fill-rule="nonzero"/><path fill="#000000" d="M 148.214844 232.164062 C 150.238281 225.570312 138.847656 219.890625 136.367188 220.257812 C 133.886719 220.625 134.898438 222.546875 134.898438 222.546875 C 134.898438 222.546875 132.050781 218.425781 130.027344 218.792969 C 128.007812 219.160156 129.019531 221.082031 129.019531 221.082031 C 129.019531 221.082031 125.621094 216.6875 123.78125 218.015625 C 121.945312 219.339844 123.597656 220.898438 123.597656 220.898438 C 116.433594 219.800781 115.238281 211.375 118.546875 208.902344 C 121.851562 206.429688 125.34375 208.535156 125.34375 208.535156 C 125.34375 208.535156 122.679688 207.804688 123.046875 211.285156 C 123.414062 214.765625 129.292969 214.398438 129.753906 210.644531 C 130.210938 206.886719 127.914062 203.957031 123.140625 203.863281 C 118.363281 203.773438 110.460938 208.351562 113.496094 217.695312 C 116.527344 227.039062 129.109375 227.222656 138.757812 227.40625 C 148.402344 227.585938 148.214844 232.164062 148.214844 232.164062 Z M 148.214844 232.164062 " fill-opacity="1" fill-rule="nonzero"/><path fill="#000000" d="M 129.28125 236.378906 C 129.28125 236.378906 129.1875 234.179688 132.542969 232.164062 C 135.894531 230.152344 137.550781 233.722656 135.804688 235.1875 C 134.058594 236.65625 133.417969 235.1875 133.417969 235.1875 C 133.417969 235.1875 132.957031 237.480469 135.34375 237.480469 C 137.734375 237.480469 138.742188 235.832031 140.304688 233.265625 C 141.867188 230.699219 144.808594 230.242188 146.734375 231.617188 C 147.003906 231.808594 145.171875 227.039062 134.792969 228.960938 C 124.414062 230.882812 118.351562 226.304688 118.351562 226.304688 C 118.351562 226.304688 120.003906 227.953125 120.277344 229.511719 C 120.554688 231.070312 123.769531 231.160156 123.769531 231.160156 C 123.769531 231.160156 121.472656 231.800781 121.195312 233.632812 C 120.921875 235.464844 120.003906 236.015625 120.003906 236.015625 C 120.003906 236.015625 124.59375 237.285156 127.261719 233.359375 C 127.261719 233.359375 124.597656 233.449219 123.585938 234.546875 C 123.585938 234.546875 125.699219 232.074219 128.546875 232.167969 C 128.546875 232.167969 126.800781 234.480469 127.351562 236.210938 C 127.902344 237.9375 127.167969 239.035156 127.167969 239.035156 C 127.167969 239.035156 131.761719 237.664062 132.542969 233.082031 C 132.542969 233.082031 130.261719 234.203125 129.28125 236.378906 Z M 129.28125 236.378906 " fill-opacity="1" fill-rule="nonzero"/><path fill="#000000" d="M 124.261719 199.503906 C 124.261719 199.503906 110.621094 188.238281 111.449219 181.09375 C 112.277344 173.949219 111.726562 165.84375 105.25 166.53125 C 98.773438 167.214844 101.105469 172.4375 101.105469 172.4375 C 100.546875 169.414062 105.796875 168.726562 106.074219 172.574219 C 106.351562 176.421875 101.390625 179.445312 98.082031 175.734375 C 94.773438 172.023438 96.015625 165.292969 93.949219 164.605469 C 91.882812 163.917969 90.78125 165.980469 90.78125 165.980469 C 89.402344 161.855469 92.296875 155.125 89.953125 154.023438 C 87.609375 152.925781 86.371094 155.671875 86.371094 155.671875 C 86.78125 151.277344 92.019531 149.214844 91.191406 146.332031 C 90.367188 143.445312 87.335938 145.09375 87.335938 145.09375 C 91.191406 138.222656 103.59375 140.972656 103.042969 146.46875 C 102.492188 151.964844 96.707031 147.015625 95.878906 152.511719 C 95.050781 158.007812 110.207031 161.855469 110.207031 146.46875 C 110.207031 131.078125 77.140625 122.835938 77.964844 154.4375 C 78.792969 186.039062 124.261719 201.699219 124.261719 201.699219 C 109.519531 195.105469 107.175781 182.328125 107.175781 182.328125 C 111.035156 193.460938 124.261719 199.503906 124.261719 199.503906 Z M 124.261719 199.503906 " fill-opacity="1" fill-rule="nonzero"/><path fill="#000000" d="M 97.015625 199.558594 C 86.425781 204.886719 91.175781 218.015625 98.003906 218.015625 C 104.835938 218.015625 106.617188 212.78125 104.832031 210.808594 C 103.050781 208.835938 103.25 210.511719 101.269531 212.78125 C 99.292969 215.050781 94.738281 213.570312 95.628906 209.425781 C 96.519531 205.28125 100.972656 205.378906 100.972656 205.378906 C 100.972656 205.378906 98.203125 206.457031 99.191406 207.890625 C 100.183594 209.328125 104.636719 205.777344 104.636719 205.777344 C 104.636719 205.777344 102.65625 207.847656 104.535156 208.441406 C 106.417969 209.03125 110.078125 204.492188 110.078125 204.492188 C 110.078125 204.492188 109.089844 206.664062 110.96875 206.761719 C 112.851562 206.863281 114.433594 202.421875 120.769531 202.519531 C 120.769531 202.519531 107.605469 194.230469 97.015625 199.558594 Z M 97.015625 199.558594 " fill-opacity="1" fill-rule="nonzero"/><g clip-path="url(#3cc15c2e7a)"><path fill="#000000" d="M 91.425781 196.839844 C 94.175781 199.054688 101.851562 194.820312 105.789062 195.226562 C 105.789062 195.226562 81.875 186.191406 75.066406 162.855469 C 75.066406 162.855469 74.585938 170.0625 76.261719 174.085938 C 76.261719 174.085938 74.339844 172.898438 72.199219 174.003906 C 70.058594 175.105469 68.636719 174.925781 68.636719 174.925781 C 68.636719 174.925781 71.203125 178.664062 75.695312 178.992188 C 75.695312 178.992188 73.328125 180.191406 73 182.476562 C 72.667969 184.761719 71.855469 185.707031 71.855469 185.707031 C 71.855469 185.707031 76.578125 185.714844 79.128906 182.988281 C 79.128906 182.988281 77.558594 181.378906 74.707031 183.542969 C 74.707031 183.542969 76.847656 180.140625 80.230469 180.632812 C 80.230469 180.632812 78.03125 177.578125 74.429688 176.078125 C 74.429688 176.078125 82.476562 177.34375 82.871094 185.140625 C 83.261719 192.9375 76.941406 189.566406 78.949219 186.707031 C 78.949219 186.707031 75.9375 187.65625 77.84375 191.363281 C 79.753906 195.070312 85.933594 194.699219 87.015625 189.175781 C 87.015625 189.175781 86.386719 191.992188 87.996094 192.726562 C 89.609375 193.460938 91.53125 192.347656 91.53125 192.347656 C 91.53125 192.347656 88.675781 194.625 91.425781 196.839844 Z M 91.425781 196.839844 " fill-opacity="1" fill-rule="nonzero"/></g><path fill="#000000" d="M 90.105469 100.863281 C 88.363281 118.632812 111.140625 135.304688 111.140625 135.304688 C 107.28125 127.792969 109.671875 118.632812 107.28125 114.601562 C 104.894531 110.570312 102.875 115.335938 102.875 115.335938 C 102.875 115.335938 102.503906 110.207031 100.117188 109.839844 C 97.730469 109.472656 97.914062 113.871094 97.914062 113.871094 C 93.871094 109.289062 93.136719 96.832031 99.382812 94.40625 C 104.511719 92.414062 105.628906 96.46875 105.628906 96.46875 C 105.628906 96.46875 100.851562 94.453125 100.972656 99.398438 C 101.09375 104.34375 110.589844 106.542969 111.875 97.199219 C 113.160156 87.855469 91.847656 83.09375 90.105469 100.863281 Z M 90.105469 100.863281 " fill-opacity="1" fill-rule="nonzero"/><path fill="#000000" d="M 136.621094 70.179688 C 146.527344 53.882812 125.265625 44.363281 120.371094 53.167969 C 115.476562 61.96875 125.003906 66.148438 128.277344 61.996094 C 131.550781 57.847656 126.175781 56.523438 126.175781 56.523438 C 126.175781 56.523438 129.730469 53.769531 132.835938 58.746094 C 136.617188 64.804688 128 74.976562 121.609375 76.3125 C 121.609375 76.3125 124.585938 72.675781 122.308594 71.464844 C 120.035156 70.253906 116.429688 74.402344 116.429688 74.402344 C 116.429688 74.402344 117.757812 69.042969 113.132812 70.964844 C 108.507812 72.886719 104.671875 82.234375 96.558594 86.191406 C 96.558594 86.191406 126.710938 86.472656 136.621094 70.179688 Z M 136.621094 70.179688 " fill-opacity="1" fill-rule="nonzero"/><path fill="#000000" d="M 78.851562 132.554688 C 84.363281 135.578125 88.910156 130.769531 87.667969 128.296875 C 86.429688 125.824219 85.050781 126.507812 83.671875 128.570312 C 82.296875 130.632812 79.253906 129.246094 80.84375 125.75 C 82.433594 122.25 87.394531 122.664062 90.011719 124.449219 C 90.011719 124.449219 88.496094 125.136719 89.046875 126.511719 C 89.597656 127.882812 94.144531 127.609375 94.144531 127.609375 C 94.144531 127.609375 91.9375 128.433594 92.628906 129.808594 C 93.316406 131.183594 100.074219 129.671875 103.996094 131.871094 C 103.996094 131.871094 94.003906 117.441406 84.496094 117.992188 C 74.992188 118.539062 73.339844 129.53125 78.851562 132.554688 Z M 78.851562 132.554688 " fill-opacity="1" fill-rule="nonzero"/><path fill="#000000" d="M 111.09375 109.023438 C 111.09375 109.492188 111.003906 109.945312 110.824219 110.378906 C 110.644531 110.8125 110.386719 111.195312 110.054688 111.527344 C 109.722656 111.855469 109.339844 112.113281 108.902344 112.292969 C 108.46875 112.472656 108.015625 112.5625 107.546875 112.5625 C 107.078125 112.5625 106.625 112.472656 106.1875 112.292969 C 105.753906 112.113281 105.371094 111.855469 105.039062 111.527344 C 104.707031 111.195312 104.449219 110.8125 104.269531 110.378906 C 104.089844 109.945312 104 109.492188 104 109.023438 C 104 108.554688 104.089844 108.105469 104.269531 107.671875 C 104.449219 107.238281 104.707031 106.855469 105.039062 106.523438 C 105.371094 106.191406 105.753906 105.9375 106.1875 105.757812 C 106.625 105.578125 107.078125 105.488281 107.546875 105.488281 C 108.015625 105.488281 108.46875 105.578125 108.902344 105.757812 C 109.339844 105.9375 109.722656 106.191406 110.054688 106.523438 C 110.386719 106.855469 110.644531 107.238281 110.824219 107.671875 C 111.003906 108.105469 111.09375 108.554688 111.09375 109.023438 Z M 111.09375 109.023438 " fill-opacity="1" fill-rule="nonzero"/><path fill="#000000" d="M 91.425781 92.757812 C 91.425781 92.757812 82.199219 93.359375 78.632812 97.472656 C 78.632812 97.472656 82.710938 91.992188 90.574219 91.1875 C 90.574219 91.1875 82.035156 86.417969 77.726562 92.335938 C 73.417969 98.253906 69.742188 98.707031 69.742188 98.707031 C 69.742188 98.707031 83.660156 106.164062 91.425781 92.757812 Z M 91.425781 92.757812 " fill-opacity="1" fill-rule="nonzero"/><path fill="#000000" d="M 93.851562 89.007812 C 93.851562 89.007812 87.621094 82.195312 82.171875 81.984375 C 82.171875 81.984375 89.011719 81.738281 94.550781 87.363281 C 94.550781 87.363281 92.957031 77.734375 85.628906 78.074219 C 78.304688 78.410156 75.65625 75.828125 75.65625 75.828125 C 75.65625 75.828125 78.503906 91.328125 93.851562 89.007812 Z M 93.851562 89.007812 " fill-opacity="1" fill-rule="nonzero"/><path fill="#000000" d="M 98.402344 71.734375 C 95.347656 76.234375 97.160156 85.28125 97.160156 85.28125 C 108.125 74.316406 97.285156 62.851562 97.285156 62.851562 C 97.285156 62.851562 97.804688 66.507812 93.195312 72.195312 C 88.582031 77.882812 95.417969 84.867188 95.417969 84.867188 C 94.152344 77.085938 98.402344 71.734375 98.402344 71.734375 Z M 98.402344 71.734375 " fill-opacity="1" fill-rule="nonzero"/><path fill="#000000" d="M 76.449219 117.9375 C 76.449219 117.9375 84.519531 113.066406 93.457031 118.816406 C 93.457031 118.816406 85.515625 109.972656 87.980469 99.941406 C 87.980469 99.941406 81.886719 105.300781 85.960938 112.273438 C 85.960938 112.273438 79.042969 111.308594 76.449219 117.9375 Z M 76.449219 117.9375 " fill-opacity="1" fill-rule="nonzero"/><path fill="#000000" d="M 99.75 159.804688 C 98.253906 159.804688 97.039062 161.011719 97.039062 162.507812 C 97.039062 164 98.253906 165.207031 99.75 165.207031 C 101.246094 165.207031 102.460938 164 102.460938 162.507812 C 102.460938 161.011719 101.246094 159.804688 99.75 159.804688 Z M 99.75 159.804688 " fill-opacity="1" fill-rule="nonzero"/><path fill="#000000" d="M 78.242188 134.675781 C 78.613281 135.042969 78.898438 135.46875 79.101562 135.953125 C 79.300781 136.433594 79.398438 136.9375 79.398438 137.457031 C 79.402344 137.980469 79.300781 138.484375 79.101562 138.964844 C 78.898438 139.449219 78.613281 139.875 78.242188 140.242188 C 77.875 140.613281 77.445312 140.898438 76.960938 141.097656 C 76.476562 141.296875 75.972656 141.398438 75.449219 141.398438 C 74.925781 141.398438 74.421875 141.296875 73.9375 141.097656 C 73.453125 140.898438 73.027344 140.613281 72.65625 140.242188 C 72.289062 139.875 72 139.449219 71.800781 138.964844 C 71.601562 138.484375 71.5 137.980469 71.5 137.460938 C 71.5 136.9375 71.601562 136.433594 71.800781 135.953125 C 72 135.46875 72.285156 135.042969 72.65625 134.675781 C 73.027344 134.304688 73.453125 134.019531 73.9375 133.820312 C 74.421875 133.621094 74.925781 133.519531 75.449219 133.519531 C 75.972656 133.519531 76.476562 133.621094 76.960938 133.820312 C 77.445312 134.019531 77.875 134.304688 78.242188 134.675781 Z M 78.242188 134.675781 " fill-opacity="1" fill-rule="nonzero"/><path fill="#000000" d="M 108.382812 69.386719 C 111.269531 69.386719 113.613281 67.050781 113.613281 64.171875 C 113.613281 61.289062 111.269531 58.957031 108.382812 58.957031 C 105.492188 58.957031 103.152344 61.289062 103.152344 64.171875 C 103.152344 67.050781 105.492188 69.386719 108.382812 69.386719 Z M 108.382812 69.386719 " fill-opacity="1" fill-rule="nonzero"/><g clip-path="url(#24c374c17a)"><path fill="#000000" d="M 196.894531 252.042969 C 191.199219 249.753906 187.796875 254.148438 187.796875 254.148438 C 187.796875 254.148438 184.398438 249.753906 178.703125 252.042969 C 172.46875 254.550781 171.996094 262.761719 176.5 264.410156 C 179.941406 265.667969 180.082031 262.574219 180.082031 262.574219 C 178.0625 263.765625 175.398438 259.09375 180.449219 257.8125 C 185.503906 256.53125 187.25 262.300781 185.226562 264.589844 C 183.273438 266.804688 184.410156 269.445312 184.488281 269.621094 C 183.566406 267.246094 180.816406 266.703125 179.898438 268.804688 C 178.980469 270.910156 183.667969 273.203125 183.667969 273.203125 C 177.789062 272.742188 178.0625 277.691406 178.0625 277.691406 C 179.167969 274.667969 185.410156 275.765625 183.207031 280.164062 C 181.003906 284.558594 187.800781 291.382812 187.800781 291.382812 C 187.800781 291.382812 194.601562 284.5625 192.394531 280.164062 C 190.191406 275.765625 196.4375 274.667969 197.539062 277.691406 C 197.539062 277.691406 197.816406 272.742188 191.9375 273.203125 C 191.9375 273.203125 196.621094 270.910156 195.703125 268.804688 C 194.785156 266.703125 192.035156 267.246094 191.113281 269.621094 C 191.191406 269.445312 192.328125 266.804688 190.375 264.589844 C 188.355469 262.300781 190.097656 256.53125 195.152344 257.8125 C 200.207031 259.09375 197.539062 263.765625 195.519531 262.574219 C 195.519531 262.574219 195.660156 265.667969 199.105469 264.410156 C 203.597656 262.757812 203.128906 254.550781 196.894531 252.042969 Z M 196.894531 252.042969 " fill-opacity="1" fill-rule="nonzero"/></g><path fill="#000000" d="M 240.4375 240.417969 C 238.898438 238.785156 235.339844 237.441406 231.300781 242.238281 C 231.300781 242.238281 233.898438 236.582031 231.875 233.992188 C 229.855469 231.402344 227.835938 233.703125 228.414062 235.429688 C 228.414062 235.429688 225.914062 232.070312 223.121094 232.167969 C 220.332031 232.265625 220.71875 234.757812 221.96875 235.042969 C 221.96875 235.042969 217.253906 233.796875 214.753906 237.058594 C 212.253906 240.320312 214.273438 246.460938 217.542969 245.980469 C 220.8125 245.5 219.851562 243.582031 218.3125 242.046875 C 216.773438 240.511719 221.292969 236.386719 224.371094 240.511719 C 227.449219 244.636719 222.832031 250.816406 219.46875 250.75 C 219.46875 250.75 221.390625 249.050781 219.46875 247.996094 C 217.542969 246.941406 213.695312 250.296875 213.695312 250.296875 C 213.695312 250.296875 214.367188 248.28125 212.925781 247.898438 C 211.484375 247.515625 208.5 249.246094 207.441406 249.195312 C 207.441406 249.195312 208.597656 247.707031 206.863281 246.941406 C 205.132812 246.171875 201.191406 249.441406 196.570312 249.195312 C 196.570312 249.195312 214.589844 258.320312 224.726562 255.253906 C 234.855469 252.183594 233.832031 250.976562 239.476562 250.75 C 239.476562 250.75 235.757812 246.683594 231.523438 248.605469 C 231.523438 248.605469 234.089844 246.175781 237.070312 245.886719 C 240.050781 245.597656 243.128906 244.832031 244.957031 240.417969 C 244.957031 240.417969 241.976562 242.046875 240.4375 240.417969 Z M 240.4375 240.417969 " fill-opacity="1" fill-rule="nonzero"/><path fill="#000000" d="M 205.085938 253.964844 C 205.085938 253.964844 208.027344 259.148438 212.207031 259.597656 C 212.207031 259.597656 207.984375 261.03125 204.523438 255.199219 C 204.523438 255.199219 205.316406 263.65625 200.570312 268.835938 C 200.570312 268.835938 207.929688 268.191406 208.25 263.089844 C 208.25 263.089844 209.605469 267.035156 212.429688 268.046875 C 212.429688 268.046875 213.945312 264.796875 211.1875 261.964844 C 211.1875 261.964844 217.175781 263.878906 220.226562 258.019531 C 220.226562 258.019531 209.265625 258.628906 205.085938 253.964844 Z M 205.085938 253.964844 " fill-opacity="1" fill-rule="nonzero"/><path fill="#000000" d="M 252.457031 203.863281 C 247.679688 203.957031 245.382812 206.886719 245.84375 210.640625 C 246.300781 214.398438 252.179688 214.761719 252.550781 211.28125 C 252.917969 207.800781 250.253906 208.535156 250.253906 208.535156 C 250.253906 208.535156 253.742188 206.425781 257.050781 208.898438 C 260.359375 211.375 259.164062 219.800781 251.996094 220.898438 C 251.996094 220.898438 253.652344 219.339844 251.8125 218.011719 C 249.976562 216.683594 246.578125 221.082031 246.578125 221.082031 C 246.578125 221.082031 247.589844 219.15625 245.566406 218.792969 C 243.546875 218.425781 240.699219 222.546875 240.699219 222.546875 C 240.699219 222.546875 241.710938 220.625 239.230469 220.257812 C 236.75 219.890625 225.359375 225.570312 227.378906 232.164062 C 227.378906 232.164062 227.195312 227.585938 236.839844 227.402344 C 246.488281 227.21875 259.070312 227.035156 262.101562 217.691406 C 265.132812 208.351562 257.234375 203.769531 252.457031 203.863281 Z M 252.457031 203.863281 " fill-opacity="1" fill-rule="nonzero"/><path fill="#000000" d="M 255.316406 229.511719 C 255.59375 227.953125 257.246094 226.304688 257.246094 226.304688 C 257.246094 226.304688 251.183594 230.882812 240.800781 228.960938 C 230.421875 227.035156 228.589844 231.808594 228.859375 231.617188 C 230.789062 230.242188 233.726562 230.699219 235.289062 233.265625 C 236.851562 235.828125 237.863281 237.476562 240.25 237.476562 C 242.636719 237.476562 242.179688 235.1875 242.179688 235.1875 C 242.179688 235.1875 241.535156 236.652344 239.792969 235.1875 C 238.046875 233.722656 239.699219 230.148438 243.050781 232.164062 C 246.40625 234.179688 246.3125 236.378906 246.3125 236.378906 C 245.332031 234.203125 243.050781 233.078125 243.050781 233.078125 C 243.832031 237.660156 248.425781 239.035156 248.425781 239.035156 C 248.425781 239.035156 247.691406 237.933594 248.242188 236.207031 C 248.792969 234.480469 247.046875 232.164062 247.046875 232.164062 C 249.894531 232.070312 252.007812 234.546875 252.007812 234.546875 C 251 233.445312 248.335938 233.355469 248.335938 233.355469 C 251 237.28125 255.59375 236.011719 255.59375 236.011719 C 255.59375 236.011719 254.675781 235.460938 254.398438 233.628906 C 254.121094 231.796875 251.824219 231.15625 251.824219 231.15625 C 251.824219 231.15625 255.039062 231.066406 255.316406 229.511719 Z M 255.316406 229.511719 " fill-opacity="1" fill-rule="nonzero"/><path fill="#000000" d="M 251.332031 201.703125 C 251.332031 201.703125 296.804688 186.039062 297.632812 154.4375 C 298.457031 122.835938 265.386719 131.082031 265.386719 146.46875 C 265.386719 161.855469 280.546875 158.007812 279.71875 152.515625 C 278.890625 147.019531 273.105469 151.964844 272.550781 146.46875 C 272 140.972656 284.402344 138.222656 288.261719 145.09375 C 288.261719 145.09375 285.230469 143.445312 284.402344 146.332031 C 283.578125 149.214844 288.8125 151.277344 289.226562 155.675781 C 289.226562 155.675781 287.988281 152.925781 285.644531 154.027344 C 283.300781 155.125 286.195312 161.855469 284.816406 165.980469 C 284.816406 165.980469 283.714844 163.917969 281.648438 164.605469 C 279.582031 165.292969 280.820312 172.027344 277.515625 175.734375 C 274.207031 179.445312 269.246094 176.421875 269.523438 172.574219 C 269.796875 168.730469 275.050781 169.417969 274.488281 172.4375 C 274.488281 172.4375 276.824219 167.21875 270.347656 166.53125 C 263.871094 165.84375 263.320312 173.949219 264.148438 181.09375 C 264.976562 188.238281 251.332031 199.503906 251.332031 199.503906 C 251.332031 199.503906 264.5625 193.460938 268.417969 182.332031 C 268.417969 182.332031 266.078125 195.109375 251.332031 201.703125 Z M 251.332031 201.703125 " fill-opacity="1" fill-rule="nonzero"/><path fill="#000000" d="M 278.582031 199.558594 C 267.992188 194.230469 254.828125 202.519531 254.828125 202.519531 C 261.160156 202.421875 262.746094 206.863281 264.625 206.761719 C 266.507812 206.664062 265.515625 204.492188 265.515625 204.492188 C 265.515625 204.492188 269.179688 209.03125 271.058594 208.441406 C 272.941406 207.847656 270.957031 205.777344 270.957031 205.777344 C 270.957031 205.777344 275.414062 209.328125 276.402344 207.890625 C 277.394531 206.457031 274.621094 205.378906 274.621094 205.378906 C 274.621094 205.378906 279.074219 205.28125 279.964844 209.425781 C 280.855469 213.574219 276.304688 215.050781 274.324219 212.78125 C 272.34375 210.511719 272.542969 208.835938 270.761719 210.808594 C 268.980469 212.78125 270.761719 218.015625 277.589844 218.015625 C 284.417969 218.015625 289.171875 204.886719 278.582031 199.558594 Z M 278.582031 199.558594 " fill-opacity="1" fill-rule="nonzero"/><g clip-path="url(#8efe5c57cf)"><path fill="#000000" d="M 306.957031 174.929688 C 306.957031 174.929688 305.539062 175.105469 303.398438 174.003906 C 301.257812 172.902344 299.335938 174.089844 299.335938 174.089844 C 301.007812 170.0625 300.53125 162.855469 300.53125 162.855469 C 293.722656 186.191406 269.808594 195.230469 269.808594 195.230469 C 273.742188 194.820312 281.421875 199.054688 284.171875 196.839844 C 286.921875 194.625 284.066406 192.355469 284.066406 192.355469 C 284.066406 192.355469 285.984375 193.464844 287.597656 192.734375 C 289.210938 192 288.582031 189.179688 288.582031 189.179688 C 289.660156 194.703125 295.84375 195.074219 297.753906 191.371094 C 299.664062 187.664062 296.648438 186.710938 296.648438 186.710938 C 298.65625 189.574219 292.335938 192.945312 292.726562 185.144531 C 293.121094 177.347656 301.167969 176.085938 301.167969 176.085938 C 297.566406 177.585938 295.367188 180.636719 295.367188 180.636719 C 298.75 180.148438 300.890625 183.550781 300.890625 183.550781 C 298.039062 181.386719 296.46875 182.996094 296.46875 182.996094 C 299.019531 185.722656 303.742188 185.714844 303.742188 185.714844 C 303.742188 185.714844 302.929688 184.765625 302.597656 182.484375 C 302.265625 180.199219 299.902344 178.996094 299.902344 178.996094 C 304.390625 178.667969 306.957031 174.929688 306.957031 174.929688 Z M 306.957031 174.929688 " fill-opacity="1" fill-rule="nonzero"/></g><path fill="#000000" d="M 263.722656 97.199219 C 265.007812 106.542969 274.503906 104.34375 274.625 99.398438 C 274.746094 94.449219 269.96875 96.464844 269.96875 96.464844 C 269.96875 96.464844 271.085938 92.414062 276.214844 94.40625 C 282.460938 96.832031 281.726562 109.289062 277.683594 113.867188 C 277.683594 113.867188 277.867188 109.472656 275.480469 109.839844 C 273.089844 110.203125 272.722656 115.335938 272.722656 115.335938 C 272.722656 115.335938 270.703125 110.570312 268.3125 114.601562 C 265.925781 118.632812 268.3125 127.792969 264.457031 135.300781 C 264.457031 135.300781 287.230469 118.632812 285.488281 100.859375 C 283.75 83.09375 262.4375 87.855469 263.722656 97.199219 Z M 263.722656 97.199219 " fill-opacity="1" fill-rule="nonzero"/><path fill="#000000" d="M 279.039062 86.191406 C 270.925781 82.234375 267.089844 72.886719 262.464844 70.964844 C 257.839844 69.046875 259.167969 74.402344 259.167969 74.402344 C 259.167969 74.402344 255.5625 70.253906 253.285156 71.464844 C 251.011719 72.675781 253.988281 76.316406 253.988281 76.316406 C 247.597656 74.980469 238.976562 64.804688 242.757812 58.746094 C 245.863281 53.773438 249.417969 56.523438 249.417969 56.523438 C 249.417969 56.523438 244.046875 57.847656 247.320312 62 C 250.59375 66.148438 260.121094 61.96875 255.226562 53.167969 C 250.332031 44.363281 229.066406 53.886719 238.976562 70.179688 C 248.886719 86.472656 279.039062 86.191406 279.039062 86.191406 Z M 279.039062 86.191406 " fill-opacity="1" fill-rule="nonzero"/><path fill="#000000" d="M 291.925781 128.570312 C 290.546875 126.507812 289.167969 125.824219 287.929688 128.296875 C 286.6875 130.769531 291.234375 135.578125 296.746094 132.554688 C 302.257812 129.53125 300.601562 118.542969 291.097656 117.992188 C 281.589844 117.441406 271.59375 131.867188 271.59375 131.867188 C 275.519531 129.671875 282.277344 131.183594 282.964844 129.808594 C 283.65625 128.433594 281.449219 127.609375 281.449219 127.609375 C 281.449219 127.609375 285.996094 127.882812 286.546875 126.507812 C 287.097656 125.136719 285.582031 124.449219 285.582031 124.449219 C 288.199219 122.660156 293.160156 122.25 294.75 125.746094 C 296.339844 129.246094 293.300781 130.628906 291.925781 128.570312 Z M 291.925781 128.570312 " fill-opacity="1" fill-rule="nonzero"/><path fill="#000000" d="M 271.597656 109.023438 C 271.597656 109.492188 271.507812 109.945312 271.328125 110.378906 C 271.148438 110.8125 270.890625 111.195312 270.558594 111.527344 C 270.226562 111.855469 269.84375 112.113281 269.40625 112.292969 C 268.972656 112.472656 268.519531 112.5625 268.050781 112.5625 C 267.578125 112.5625 267.128906 112.472656 266.691406 112.292969 C 266.257812 112.113281 265.875 111.855469 265.542969 111.527344 C 265.210938 111.195312 264.953125 110.8125 264.773438 110.378906 C 264.59375 109.945312 264.503906 109.492188 264.503906 109.023438 C 264.503906 108.554688 264.59375 108.105469 264.773438 107.671875 C 264.953125 107.238281 265.210938 106.855469 265.542969 106.523438 C 265.875 106.191406 266.257812 105.9375 266.691406 105.757812 C 267.128906 105.578125 267.578125 105.488281 268.050781 105.488281 C 268.519531 105.488281 268.972656 105.578125 269.40625 105.757812 C 269.84375 105.9375 270.226562 106.191406 270.558594 106.523438 C 270.890625 106.855469 271.148438 107.238281 271.328125 107.671875 C 271.507812 108.105469 271.597656 108.554688 271.597656 109.023438 Z M 271.597656 109.023438 " fill-opacity="1" fill-rule="nonzero"/><path fill="#000000" d="M 285.023438 91.1875 C 292.886719 91.992188 296.964844 97.472656 296.964844 97.472656 C 293.398438 93.359375 284.171875 92.757812 284.171875 92.757812 C 291.9375 106.164062 305.859375 98.707031 305.859375 98.707031 C 305.859375 98.707031 302.179688 98.253906 297.875 92.335938 C 293.5625 86.417969 285.023438 91.1875 285.023438 91.1875 Z M 285.023438 91.1875 " fill-opacity="1" fill-rule="nonzero"/><path fill="#000000" d="M 293.425781 81.984375 C 287.976562 82.195312 281.742188 89.007812 281.742188 89.007812 C 297.09375 91.324219 299.941406 75.828125 299.941406 75.828125 C 299.941406 75.828125 297.292969 78.410156 289.964844 78.074219 C 282.640625 77.734375 281.042969 87.363281 281.042969 87.363281 C 286.585938 81.738281 293.425781 81.984375 293.425781 81.984375 Z M 293.425781 81.984375 " fill-opacity="1" fill-rule="nonzero"/><path fill="#000000" d="M 277.195312 71.734375 C 277.195312 71.734375 281.441406 77.085938 280.179688 84.867188 C 280.179688 84.867188 287.015625 77.882812 282.40625 72.195312 C 277.792969 66.507812 278.3125 62.851562 278.3125 62.851562 C 278.3125 62.851562 267.472656 74.320312 278.4375 85.28125 C 278.4375 85.28125 280.25 76.234375 277.195312 71.734375 Z M 277.195312 71.734375 " fill-opacity="1" fill-rule="nonzero"/><path fill="#000000" d="M 299.148438 117.9375 C 296.554688 111.308594 289.636719 112.273438 289.636719 112.273438 C 293.710938 105.300781 287.617188 99.941406 287.617188 99.941406 C 290.078125 109.972656 282.140625 118.816406 282.140625 118.816406 C 291.078125 113.066406 299.148438 117.9375 299.148438 117.9375 Z M 299.148438 117.9375 " fill-opacity="1" fill-rule="nonzero"/><path fill="#000000" d="M 278.558594 162.507812 C 278.558594 161.011719 277.34375 159.804688 275.847656 159.804688 C 274.351562 159.804688 273.136719 161.011719 273.136719 162.507812 C 273.136719 164 274.351562 165.207031 275.847656 165.207031 C 277.34375 165.207031 278.558594 164 278.558594 162.507812 Z M 278.558594 162.507812 " fill-opacity="1" fill-rule="nonzero"/><path fill="#000000" d="M 302.933594 134.675781 C 303.304688 135.046875 303.589844 135.472656 303.789062 135.953125 C 303.992188 136.4375 304.089844 136.9375 304.089844 137.460938 C 304.089844 137.984375 303.992188 138.484375 303.789062 138.96875 C 303.589844 139.449219 303.304688 139.875 302.933594 140.246094 C 302.5625 140.617188 302.136719 140.898438 301.652344 141.101562 C 301.167969 141.300781 300.664062 141.398438 300.140625 141.398438 C 299.617188 141.398438 299.113281 141.300781 298.628906 141.101562 C 298.144531 140.898438 297.71875 140.617188 297.347656 140.246094 C 296.976562 139.875 296.691406 139.449219 296.492188 138.96875 C 296.292969 138.484375 296.191406 137.984375 296.191406 137.460938 C 296.191406 136.9375 296.292969 136.4375 296.492188 135.953125 C 296.691406 135.472656 296.976562 135.046875 297.347656 134.675781 C 297.71875 134.308594 298.144531 134.023438 298.628906 133.820312 C 299.113281 133.621094 299.617188 133.523438 300.140625 133.523438 C 300.664062 133.523438 301.167969 133.621094 301.652344 133.820312 C 302.136719 134.023438 302.5625 134.304688 302.933594 134.675781 Z M 302.933594 134.675781 " fill-opacity="1" fill-rule="nonzero"/><path fill="#000000" d="M 269.214844 59.347656 C 269.53125 59.476562 269.832031 59.640625 270.121094 59.828125 C 270.40625 60.019531 270.667969 60.234375 270.910156 60.476562 C 271.15625 60.71875 271.371094 60.984375 271.5625 61.269531 C 271.753906 61.554688 271.914062 61.855469 272.046875 62.171875 C 272.175781 62.488281 272.277344 62.8125 272.34375 63.148438 C 272.410156 63.484375 272.445312 63.824219 272.445312 64.164062 C 272.445312 64.507812 272.410156 64.847656 272.34375 65.183594 C 272.277344 65.519531 272.175781 65.84375 272.046875 66.160156 C 271.914062 66.476562 271.753906 66.777344 271.5625 67.0625 C 271.371094 67.347656 271.15625 67.613281 270.910156 67.855469 C 270.667969 68.097656 270.40625 68.3125 270.121094 68.503906 C 269.832031 68.691406 269.53125 68.851562 269.214844 68.984375 C 268.898438 69.117188 268.570312 69.214844 268.234375 69.28125 C 267.898438 69.347656 267.558594 69.382812 267.214844 69.382812 C 266.871094 69.382812 266.53125 69.347656 266.191406 69.28125 C 265.855469 69.214844 265.527344 69.117188 265.210938 68.984375 C 264.894531 68.851562 264.59375 68.691406 264.308594 68.503906 C 264.023438 68.3125 263.757812 68.097656 263.515625 67.855469 C 263.273438 67.613281 263.054688 67.347656 262.863281 67.0625 C 262.671875 66.777344 262.511719 66.476562 262.382812 66.160156 C 262.25 65.84375 262.152344 65.519531 262.082031 65.183594 C 262.015625 64.847656 261.984375 64.507812 261.984375 64.164062 C 261.984375 63.824219 262.015625 63.484375 262.082031 63.148438 C 262.152344 62.8125 262.25 62.488281 262.382812 62.171875 C 262.511719 61.855469 262.671875 61.554688 262.863281 61.269531 C 263.054688 60.984375 263.273438 60.71875 263.515625 60.476562 C 263.757812 60.234375 264.023438 60.019531 264.308594 59.828125 C 264.59375 59.640625 264.894531 59.476562 265.210938 59.347656 C 265.527344 59.214844 265.855469 59.117188 266.191406 59.050781 C 266.53125 58.984375 266.871094 58.949219 267.214844 58.949219 C 267.558594 58.949219 267.898438 58.984375 268.234375 59.050781 C 268.570312 59.117188 268.898438 59.214844 269.214844 59.347656 Z M 269.214844 59.347656 " fill-opacity="1" fill-rule="nonzero"/><g clip-path="url(#89c6b46faa)"><path fill="#000000" d="M 223.832031 111.027344 L 186.023438 124.859375 L 137.140625 106.984375 L 186.023438 89.019531 L 226.261719 103.75 L 236.703125 103.75 L 186.652344 85.425781 C 186.292969 85.246094 185.84375 85.246094 185.390625 85.425781 L 131.289062 105.277344 C 130.570312 105.546875 130.117188 106.175781 130.117188 106.984375 C 130.117188 107.792969 130.570312 108.421875 131.289062 108.691406 L 153.523438 116.867188 L 153.523438 138.335938 C 153.523438 139.324219 153.523438 141.117188 167.296875 147.046875 C 170.449219 148.394531 180.980469 152.796875 185.753906 152.796875 C 190.613281 152.796875 201.324219 148.394531 204.476562 147.046875 C 218.429688 141.117188 218.429688 139.324219 218.429688 138.335938 L 218.429688 116.867188 L 234.273438 111.027344 C 234.273438 111.027344 223.832031 111.027344 223.832031 111.027344 Z M 214.828125 137.707031 C 211.859375 140.3125 191.511719 149.113281 185.753906 149.113281 C 180.171875 149.113281 160.097656 140.3125 157.125 137.707031 L 157.125 118.125 L 185.390625 128.453125 C 185.570312 128.542969 185.84375 128.542969 186.023438 128.542969 C 186.203125 128.542969 186.472656 128.542969 186.652344 128.453125 L 214.917969 118.125 Z M 214.828125 137.707031 " fill-opacity="1" fill-rule="nonzero"/></g><g clip-path="url(#f5bad8f853)"><path fill="#000000" d="M 245.167969 139.863281 C 244.898438 138.695312 244.625 137.4375 244.445312 136.269531 L 243.996094 132.675781 L 243.367188 129.082031 C 243.097656 127.734375 242.917969 126.476562 242.644531 125.128906 C 244.085938 124.679688 245.167969 123.332031 245.167969 121.714844 C 245.167969 120.011719 243.996094 118.574219 242.375 118.214844 C 242.464844 118.035156 242.644531 117.945312 242.734375 117.765625 L 243.277344 117.046875 C 243.546875 116.777344 243.277344 116.507812 243.367188 116.328125 L 243.367188 107.433594 C 243.367188 106.445312 242.554688 105.636719 241.566406 105.636719 L 212.757812 105.636719 C 207.988281 105.726562 203.125 105.457031 198.355469 105.996094 C 195.382812 106.265625 192.414062 106.535156 189.351562 106.804688 C 188.902344 106.085938 187.550781 105.546875 185.933594 105.546875 C 183.953125 105.546875 182.332031 106.355469 182.332031 107.34375 C 182.332031 108.332031 183.953125 109.140625 185.933594 109.140625 C 187.550781 109.140625 188.8125 108.601562 189.351562 107.882812 C 192.324219 108.152344 195.292969 108.511719 198.355469 108.691406 C 203.125 109.320312 207.988281 109.050781 212.757812 109.050781 L 239.765625 109.050781 L 239.765625 116.148438 C 239.855469 116.417969 239.585938 116.6875 239.855469 116.867188 L 240.394531 117.585938 C 240.484375 117.765625 240.664062 117.855469 240.753906 118.035156 C 239.136719 118.394531 237.964844 119.832031 237.964844 121.535156 C 237.964844 123.152344 239.046875 124.5 240.484375 124.949219 C 240.214844 126.296875 239.945312 127.554688 239.765625 128.902344 L 239.136719 132.496094 L 238.683594 136.089844 C 238.503906 137.257812 238.234375 138.515625 237.964844 139.683594 C 237.695312 140.847656 237.695312 142.105469 237.964844 143.273438 C 238.144531 144.441406 238.503906 145.699219 239.046875 146.867188 C 239.585938 148.035156 240.214844 149.292969 241.207031 150.460938 L 241.925781 150.460938 C 242.917969 149.292969 243.636719 148.035156 244.085938 146.867188 C 244.625 145.699219 244.898438 144.441406 245.167969 143.273438 C 245.4375 142.285156 245.4375 141.117188 245.167969 139.863281 Z M 245.167969 139.863281 " fill-opacity="1" fill-rule="nonzero"/></g><g clip-path="url(#4fda98f999)"><path fill="#000000" d="M 232.652344 172.738281 C 231.84375 171.570312 230.222656 170.492188 228.871094 170.222656 C 191.785156 162.136719 143.621094 144.710938 143.171875 144.621094 C 143.082031 144.621094 142.902344 144.53125 142.8125 144.53125 C 142.632812 144.53125 137.410156 145.070312 135.519531 151.269531 C 134.800781 153.785156 134.53125 158.546875 138.3125 161.148438 C 137.5 161.507812 136.421875 162.046875 135.25 162.316406 C 134.890625 162.40625 134.621094 162.765625 134.621094 163.214844 C 134.621094 163.664062 134.980469 164.023438 135.339844 164.023438 C 135.519531 164.023438 151.003906 166.808594 168.289062 172.199219 L 152.894531 177.050781 L 161.265625 177.589844 L 160.90625 181.808594 L 170.988281 177.050781 L 168.289062 185.492188 L 173.960938 184.054688 L 178.550781 187.199219 L 179.269531 175.882812 C 196.734375 182.257812 212.667969 190.074219 220.769531 196.453125 C 220.949219 196.542969 221.128906 196.632812 221.3125 196.632812 C 221.492188 196.632812 221.671875 196.542969 221.851562 196.453125 C 221.851562 196.453125 225.8125 193.398438 228.871094 190.972656 C 228.960938 190.882812 229.050781 190.792969 229.050781 190.703125 C 230.3125 189.625 231.214844 188.1875 231.84375 186.75 C 233.914062 182.617188 235.175781 176.332031 232.652344 172.738281 Z M 137.230469 151.71875 C 138.582031 147.226562 141.910156 146.417969 142.8125 146.328125 C 144.613281 146.957031 157.664062 151.628906 174.769531 157.109375 C 172.429688 157.917969 170.539062 159.984375 169.457031 162.136719 C 168.46875 164.023438 167.65625 166.628906 168.109375 168.964844 C 151.542969 163.394531 141.011719 160.609375 140.832031 160.519531 C 135.339844 158.367188 137.140625 151.988281 137.230469 151.71875 Z M 221.492188 194.65625 C 215.1875 189.804688 205.917969 185.042969 196.285156 180.730469 C 205.105469 184.054688 214.648438 187.917969 224.550781 192.140625 L 224.640625 192.140625 C 223.292969 193.308594 222.121094 194.207031 221.492188 194.65625 Z M 230.402344 186.121094 C 229.683594 187.738281 227.703125 190.703125 225.453125 190.433594 C 224.28125 190.34375 223.742188 188.726562 223.472656 187.738281 C 222.570312 184.59375 223.742188 180.195312 225.902344 177.859375 C 226.621094 177.140625 227.703125 176.332031 228.601562 176.332031 C 229.050781 176.332031 229.414062 176.511719 229.773438 176.960938 C 231.125 178.488281 230.3125 182.707031 229.050781 184.59375 C 228.511719 185.402344 227.703125 185.941406 226.980469 186.121094 C 226.53125 186.210938 226.171875 186.121094 225.902344 185.851562 C 225.363281 185.402344 225.089844 184.59375 225.183594 183.695312 C 225.273438 182.527344 225.902344 181.539062 226.621094 181.179688 L 226.710938 181.179688 C 226.800781 181.269531 226.800781 181.539062 226.710938 181.898438 C 226.53125 182.347656 226.890625 182.886719 227.34375 182.976562 C 227.792969 183.15625 228.332031 182.796875 228.421875 182.347656 C 228.691406 181.269531 228.511719 180.28125 227.792969 179.746094 C 227.523438 179.566406 226.800781 179.117188 225.722656 179.65625 C 224.460938 180.371094 223.472656 181.898438 223.292969 183.605469 C 223.109375 185.132812 223.652344 186.570312 224.640625 187.378906 C 225.363281 187.917969 226.261719 188.1875 227.164062 188.007812 C 228.421875 187.828125 229.683594 186.929688 230.492188 185.671875 C 230.492188 185.582031 230.582031 185.582031 230.582031 185.492188 C 230.582031 185.671875 230.492188 185.941406 230.402344 186.121094 Z M 232.203125 178.847656 C 232.113281 177.679688 231.753906 176.601562 231.03125 175.882812 C 230.3125 175.074219 229.503906 174.714844 228.511719 174.625 C 228.511719 174.625 228.511719 174.625 228.421875 174.625 C 226.53125 174.625 225 176.0625 224.371094 176.691406 C 221.761719 179.476562 220.5 184.59375 221.492188 188.277344 C 221.582031 188.636719 221.671875 188.90625 221.761719 189.175781 C 206.277344 182.617188 191.785156 177.140625 179.539062 172.828125 C 178.730469 170.492188 179.8125 167.796875 180.890625 165.730469 C 182.0625 163.574219 183.953125 161.417969 186.382812 160.699219 C 199.976562 164.832031 214.917969 168.964844 228.421875 171.929688 C 229.324219 172.109375 230.582031 172.917969 231.125 173.726562 C 232.023438 174.984375 232.382812 176.78125 232.203125 178.847656 Z M 232.203125 178.847656 " fill-opacity="1" fill-rule="nonzero"/></g><g clip-path="url(#617ffc8b1a)"><path fill="#000000" d="M 187.53125 196.476562 L 192.136719 205.816406 L 202.445312 207.316406 L 194.984375 214.59375 L 196.753906 224.859375 L 187.53125 220.011719 L 178.300781 224.859375 L 180.0625 214.59375 L 172.609375 207.316406 L 182.917969 205.816406 Z M 187.53125 196.476562 " fill-opacity="1" fill-rule="nonzero"/><path fill="#000000" d="M 187.457031 196.386719 L 192.074219 205.730469 L 202.382812 207.226562 L 194.921875 214.503906 L 196.679688 224.769531 L 187.457031 219.921875 L 178.238281 224.769531 L 179.996094 214.503906 L 172.535156 207.226562 L 182.84375 205.730469 Z M 187.457031 196.386719 " fill-opacity="1" fill-rule="nonzero"/><path fill="#000000" d="M 187.457031 196.386719 L 192.074219 205.730469 L 202.382812 207.226562 L 194.921875 214.503906 L 196.679688 224.769531 L 187.457031 219.921875 L 178.238281 224.769531 L 179.996094 214.503906 L 172.535156 207.226562 L 182.84375 205.730469 Z M 187.457031 196.386719 " fill-opacity="1" fill-rule="nonzero"/><path fill="#000000" d="M 187.457031 196.386719 L 192.074219 205.730469 L 202.382812 207.226562 L 194.921875 214.503906 L 196.679688 224.769531 L 187.457031 219.921875 L 178.238281 224.769531 L 179.996094 214.503906 L 172.535156 207.226562 L 182.84375 205.730469 Z M 187.457031 196.386719 " fill-opacity="1" fill-rule="nonzero"/></g><g fill="#000000" fill-opacity="1"><g transform="translate(34.647347, 327.038332)"><g><path d="M 37.578125 -13.773438 L 37.578125 -14 L 19.929688 -14 L 19.019531 -13.453125 C 26.679688 -13.226562 27.863281 -12.996094 27.863281 -11.355469 L 27.863281 -3.832031 C 26.632812 -2.554688 24.902344 -1.6875 22.253906 -1.6875 C 14.503906 -1.6875 8.847656 -9.621094 8.847656 -18.925781 C 8.847656 -27.453125 13.042969 -31.511719 18.515625 -31.511719 C 25.628906 -31.511719 29.097656 -25.265625 26.726562 -18.972656 L 26.863281 -18.925781 L 33.476562 -27.773438 C 31.375 -30.328125 27.226562 -32.5625 21.253906 -32.5625 C 11.859375 -32.5625 2.050781 -26.816406 2.050781 -15.871094 C 2.050781 -6.339844 9.851562 0.636719 18.378906 0.636719 C 22.4375 0.636719 25.585938 -0.867188 27.726562 -3.011719 L 27.273438 0 L 37.578125 0 L 37.578125 -0.226562 C 35.710938 -0.457031 34.113281 -0.957031 34.113281 -2.597656 L 34.113281 -11.355469 C 34.113281 -12.996094 35.710938 -13.546875 37.578125 -13.773438 Z M 37.578125 -13.773438 "/></g></g></g><g fill="#000000" fill-opacity="1"><g transform="translate(72.679408, 327.038332)"><g><path d="M 28.914062 -9.714844 C 25.175781 -3.601562 22.300781 -0.730469 16.417969 -0.730469 L 10.398438 -0.730469 L 10.398438 -15.597656 L 14.230469 -15.597656 C 19.882812 -15.597656 22.027344 -14.367188 23.121094 -10.214844 L 23.121094 -21.753906 C 22.027344 -17.558594 19.882812 -16.328125 14.230469 -16.328125 L 10.398438 -16.328125 L 10.398438 -31.195312 L 16.144531 -31.195312 C 22.027344 -31.195312 23.804688 -28.914062 27.273438 -23.804688 L 27.453125 -23.898438 L 25.765625 -31.925781 L 0.683594 -31.925781 L 0.683594 -31.695312 C 2.554688 -31.46875 4.148438 -30.964844 4.148438 -29.324219 L 4.148438 -3.511719 C 4.148438 -1.871094 2.554688 -0.914062 0.683594 -0.226562 L 0.683594 0 L 24.855469 0 L 26.40625 1.003906 L 26.679688 0 L 29.097656 -9.621094 Z M 28.914062 -9.714844 "/></g></g></g><g fill="#000000" fill-opacity="1"><g transform="translate(102.457499, 327.038332)"><g/></g></g><g fill="#000000" fill-opacity="1"><g transform="translate(111.57789, 327.038332)"><g><path d="M 32.242188 -5.0625 L 31.925781 -5.289062 C 29.964844 -2.875 26.359375 -1.6875 23.03125 -1.6875 C 14.546875 -1.6875 8.847656 -9.621094 8.847656 -18.925781 C 8.847656 -27.453125 13.132812 -31.605469 18.699219 -31.605469 C 25.675781 -31.605469 28.550781 -25.265625 26.175781 -18.925781 L 26.316406 -18.878906 L 32.925781 -27.773438 C 30.828125 -30.328125 27.136719 -32.5625 21.253906 -32.5625 C 11.859375 -32.5625 2.050781 -26.816406 2.050781 -15.871094 C 2.050781 -6.339844 9.667969 0.636719 19.929688 0.636719 C 26.269531 0.636719 30.28125 -1.960938 32.242188 -5.0625 Z M 32.242188 -5.0625 "/></g></g></g><g fill="#000000" fill-opacity="1"><g transform="translate(145.870583, 327.038332)"><g><path d="M 19.65625 -32.5625 C 9.714844 -32.5625 2.050781 -26.222656 2.050781 -15.960938 C 2.050781 -5.699219 9.714844 0.636719 19.65625 0.636719 C 29.550781 0.636719 37.214844 -5.699219 37.214844 -15.960938 C 37.214844 -26.222656 29.550781 -32.5625 19.65625 -32.5625 Z M 21.570312 -0.183594 C 14 -0.183594 8.664062 -9.894531 8.664062 -19.019531 C 8.664062 -26.589844 12.222656 -31.742188 17.695312 -31.742188 C 25.265625 -31.742188 30.601562 -22.027344 30.601562 -12.953125 C 30.601562 -5.382812 27.042969 -0.183594 21.570312 -0.183594 Z M 21.570312 -0.183594 "/></g></g></g><g fill="#000000" fill-opacity="1"><g transform="translate(185.133875, 327.038332)"><g><path d="M 27.910156 -9.394531 C 23.804688 -3.921875 21.617188 -0.730469 13.910156 -0.730469 L 10.398438 -0.730469 L 10.398438 -29.324219 C 10.398438 -30.964844 11.996094 -31.46875 14.320312 -31.695312 L 14.320312 -31.925781 L 0.683594 -31.925781 L 0.683594 -31.695312 C 2.554688 -31.46875 4.148438 -30.964844 4.148438 -29.324219 L 4.148438 -5.109375 C 4.148438 -2.691406 2.554688 -0.914062 0.683594 -0.226562 L 0.683594 0 L 23.898438 0 L 25.449219 1.003906 L 25.722656 0 L 28.09375 -9.304688 Z M 27.910156 -9.394531 "/></g></g></g><g fill="#000000" fill-opacity="1"><g transform="translate(213.908717, 327.038332)"><g><path d="M 27.910156 -9.394531 C 23.804688 -3.921875 21.617188 -0.730469 13.910156 -0.730469 L 10.398438 -0.730469 L 10.398438 -29.324219 C 10.398438 -30.964844 11.996094 -31.46875 14.320312 -31.695312 L 14.320312 -31.925781 L 0.683594 -31.925781 L 0.683594 -31.695312 C 2.554688 -31.46875 4.148438 -30.964844 4.148438 -29.324219 L 4.148438 -5.109375 C 4.148438 -2.691406 2.554688 -0.914062 0.683594 -0.226562 L 0.683594 0 L 23.898438 0 L 25.449219 1.003906 L 25.722656 0 L 28.09375 -9.304688 Z M 27.910156 -9.394531 "/></g></g></g><g fill="#000000" fill-opacity="1"><g transform="translate(242.683559, 327.038332)"><g><path d="M 28.914062 -9.714844 C 25.175781 -3.601562 22.300781 -0.730469 16.417969 -0.730469 L 10.398438 -0.730469 L 10.398438 -15.597656 L 14.230469 -15.597656 C 19.882812 -15.597656 22.027344 -14.367188 23.121094 -10.214844 L 23.121094 -21.753906 C 22.027344 -17.558594 19.882812 -16.328125 14.230469 -16.328125 L 10.398438 -16.328125 L 10.398438 -31.195312 L 16.144531 -31.195312 C 22.027344 -31.195312 23.804688 -28.914062 27.273438 -23.804688 L 27.453125 -23.898438 L 25.765625 -31.925781 L 0.683594 -31.925781 L 0.683594 -31.695312 C 2.554688 -31.46875 4.148438 -30.964844 4.148438 -29.324219 L 4.148438 -3.511719 C 4.148438 -1.871094 2.554688 -0.914062 0.683594 -0.226562 L 0.683594 0 L 24.855469 0 L 26.40625 1.003906 L 26.679688 0 L 29.097656 -9.621094 Z M 28.914062 -9.714844 "/></g></g></g><g fill="#000000" fill-opacity="1"><g transform="translate(272.46165, 327.038332)"><g><path d="M 37.578125 -13.773438 L 37.578125 -14 L 19.929688 -14 L 19.019531 -13.453125 C 26.679688 -13.226562 27.863281 -12.996094 27.863281 -11.355469 L 27.863281 -3.832031 C 26.632812 -2.554688 24.902344 -1.6875 22.253906 -1.6875 C 14.503906 -1.6875 8.847656 -9.621094 8.847656 -18.925781 C 8.847656 -27.453125 13.042969 -31.511719 18.515625 -31.511719 C 25.628906 -31.511719 29.097656 -25.265625 26.726562 -18.972656 L 26.863281 -18.925781 L 33.476562 -27.773438 C 31.375 -30.328125 27.226562 -32.5625 21.253906 -32.5625 C 11.859375 -32.5625 2.050781 -26.816406 2.050781 -15.871094 C 2.050781 -6.339844 9.851562 0.636719 18.378906 0.636719 C 22.4375 0.636719 25.585938 -0.867188 27.726562 -3.011719 L 27.273438 0 L 37.578125 0 L 37.578125 -0.226562 C 35.710938 -0.457031 34.113281 -0.957031 34.113281 -2.597656 L 34.113281 -11.355469 C 34.113281 -12.996094 35.710938 -13.546875 37.578125 -13.773438 Z M 37.578125 -13.773438 "/></g></g></g><g fill="#000000" fill-opacity="1"><g transform="translate(310.493711, 327.038332)"><g><path d="M 28.914062 -9.714844 C 25.175781 -3.601562 22.300781 -0.730469 16.417969 -0.730469 L 10.398438 -0.730469 L 10.398438 -15.597656 L 14.230469 -15.597656 C 19.882812 -15.597656 22.027344 -14.367188 23.121094 -10.214844 L 23.121094 -21.753906 C 22.027344 -17.558594 19.882812 -16.328125 14.230469 -16.328125 L 10.398438 -16.328125 L 10.398438 -31.195312 L 16.144531 -31.195312 C 22.027344 -31.195312 23.804688 -28.914062 27.273438 -23.804688 L 27.453125 -23.898438 L 25.765625 -31.925781 L 0.683594 -31.925781 L 0.683594 -31.695312 C 2.554688 -31.46875 4.148438 -30.964844 4.148438 -29.324219 L 4.148438 -3.511719 C 4.148438 -1.871094 2.554688 -0.914062 0.683594 -0.226562 L 0.683594 0 L 24.855469 0 L 26.40625 1.003906 L 26.679688 0 L 29.097656 -9.621094 Z M 28.914062 -9.714844 "/></g></g></g></svg>