<svg xmlns="http://www.w3.org/2000/svg" xmlns:xlink="http://www.w3.org/1999/xlink" width="500" zoomAndPan="magnify" viewBox="0 0 375 374.999991" height="500" preserveAspectRatio="xMidYMid meet" version="1.0"><defs><clipPath id="8e0143828e"><path d="M 0 135.679688 L 375 135.679688 L 375 159.226562 L 0 159.226562 Z M 0 135.679688 " clip-rule="nonzero"/></clipPath><clipPath id="ab0881b61c"><path d="M 11.773438 135.679688 L 363.226562 135.679688 C 369.730469 135.679688 375 140.953125 375 147.453125 C 375 153.957031 369.730469 159.226562 363.226562 159.226562 L 11.773438 159.226562 C 5.269531 159.226562 0 153.957031 0 147.453125 C 0 140.953125 5.269531 135.679688 11.773438 135.679688 Z M 11.773438 135.679688 " clip-rule="nonzero"/></clipPath><clipPath id="f03d2cb340"><path d="M 0 175.726562 L 375 175.726562 L 375 199.273438 L 0 199.273438 Z M 0 175.726562 " clip-rule="nonzero"/></clipPath><clipPath id="09f2f894f0"><path d="M 11.773438 175.726562 L 363.226562 175.726562 C 369.730469 175.726562 375 180.996094 375 187.5 C 375 194.003906 369.730469 199.273438 363.226562 199.273438 L 11.773438 199.273438 C 5.269531 199.273438 0 194.003906 0 187.5 C 0 180.996094 5.269531 175.726562 11.773438 175.726562 Z M 11.773438 175.726562 " clip-rule="nonzero"/></clipPath><clipPath id="b09569a7f4"><path d="M 0 215.714844 L 375 215.714844 L 375 239.261719 L 0 239.261719 Z M 0 215.714844 " clip-rule="nonzero"/></clipPath><clipPath id="584dcedca5"><path d="M 11.773438 215.714844 L 363.226562 215.714844 C 369.730469 215.714844 375 220.984375 375 227.488281 C 375 233.992188 369.730469 239.261719 363.226562 239.261719 L 11.773438 239.261719 C 5.269531 239.261719 0 233.992188 0 227.488281 C 0 220.984375 5.269531 215.714844 11.773438 215.714844 Z M 11.773438 215.714844 " clip-rule="nonzero"/></clipPath></defs><g clip-path="url(#8e0143828e)"><g clip-path="url(#ab0881b61c)"><path fill="#ffffff" d="M 0 135.679688 L 375 135.679688 L 375 159.226562 L 0 159.226562 Z M 0 135.679688 " fill-opacity="1" fill-rule="nonzero"/></g></g><g clip-path="url(#f03d2cb340)"><g clip-path="url(#09f2f894f0)"><path fill="#ffffff" d="M 0 175.726562 L 375 175.726562 L 375 199.273438 L 0 199.273438 Z M 0 175.726562 " fill-opacity="1" fill-rule="nonzero"/></g></g><g clip-path="url(#b09569a7f4)"><g clip-path="url(#584dcedca5)"><path fill="#ffffff" d="M 0 215.714844 L 375 215.714844 L 375 239.261719 L 0 239.261719 Z M 0 215.714844 " fill-opacity="1" fill-rule="nonzero"/></g></g></svg>